G75*
%MOIN*%
%OFA0B0*%
%FSLAX24Y24*%
%IPPOS*%
%LPD*%
%AMOC8*
5,1,8,0,0,1.08239X$1,22.5*
%
%ADD10C,0.0060*%
%ADD11C,0.0075*%
%ADD12C,0.0040*%
%ADD13R,0.0300X0.0100*%
%ADD14R,0.0300X0.0180*%
%ADD15C,0.0220*%
%ADD16C,0.0080*%
%ADD17R,0.0180X0.0300*%
%ADD18C,0.0059*%
%ADD19R,0.0337X0.0000*%
%ADD20R,0.0337X0.0000*%
%ADD21R,0.0344X0.0001*%
%ADD22R,0.0348X0.0000*%
%ADD23R,0.0347X0.0000*%
%ADD24R,0.0350X0.0000*%
%ADD25R,0.0350X0.0000*%
%ADD26R,0.0352X0.0001*%
%ADD27R,0.0355X0.0000*%
%ADD28R,0.0354X0.0000*%
%ADD29R,0.0356X0.0001*%
%ADD30R,0.0359X0.0000*%
%ADD31R,0.0360X0.0000*%
%ADD32R,0.0361X0.0001*%
%ADD33R,0.0363X0.0000*%
%ADD34R,0.0362X0.0000*%
%ADD35R,0.0365X0.0001*%
%ADD36R,0.0364X0.0001*%
%ADD37R,0.0365X0.0000*%
%ADD38R,0.0366X0.0000*%
%ADD39R,0.0366X0.0000*%
%ADD40R,0.0367X0.0001*%
%ADD41R,0.0369X0.0000*%
%ADD42R,0.0370X0.0001*%
%ADD43R,0.0369X0.0001*%
%ADD44R,0.0370X0.0000*%
%ADD45R,0.0371X0.0000*%
%ADD46R,0.0371X0.0000*%
%ADD47R,0.0372X0.0001*%
%ADD48R,0.0372X0.0001*%
%ADD49R,0.0373X0.0000*%
%ADD50R,0.0373X0.0000*%
%ADD51R,0.0374X0.0001*%
%ADD52R,0.0374X0.0001*%
%ADD53R,0.0375X0.0000*%
%ADD54R,0.0374X0.0000*%
%ADD55R,0.0375X0.0000*%
%ADD56R,0.0375X0.0000*%
%ADD57R,0.0375X0.0001*%
%ADD58R,0.0376X0.0001*%
%ADD59R,0.0376X0.0000*%
%ADD60R,0.0377X0.0001*%
%ADD61R,0.0376X0.0001*%
%ADD62R,0.0377X0.0000*%
%ADD63R,0.0378X0.0000*%
%ADD64R,0.0378X0.0000*%
%ADD65R,0.0379X0.0001*%
%ADD66R,0.0379X0.0000*%
%ADD67R,0.0379X0.0000*%
%ADD68R,0.0380X0.0001*%
%ADD69R,0.0379X0.0001*%
%ADD70R,0.0380X0.0000*%
%ADD71R,0.0379X0.0000*%
%ADD72R,0.0380X0.0000*%
%ADD73R,0.0380X0.0000*%
%ADD74R,0.0380X0.0001*%
%ADD75R,0.0381X0.0001*%
%ADD76R,0.0381X0.0000*%
%ADD77R,0.0381X0.0001*%
%ADD78R,0.0381X0.0001*%
%ADD79R,0.0381X0.0000*%
%ADD80R,0.0382X0.0001*%
%ADD81R,0.0381X0.0001*%
%ADD82R,0.0382X0.0000*%
%ADD83R,0.0382X0.0000*%
%ADD84R,0.0382X0.0001*%
%ADD85R,0.0382X0.0000*%
%ADD86R,0.0383X0.0000*%
%ADD87R,0.0383X0.0001*%
%ADD88R,0.0383X0.0001*%
%ADD89R,0.0383X0.0000*%
%ADD90R,0.0382X0.0001*%
%ADD91R,0.0379X0.0001*%
%ADD92R,0.0381X0.0000*%
%ADD93R,0.0378X0.0001*%
%ADD94R,0.0377X0.0000*%
%ADD95R,0.0376X0.0000*%
%ADD96R,0.0374X0.0000*%
%ADD97R,0.0377X0.0001*%
%ADD98R,0.0372X0.0000*%
%ADD99R,0.0371X0.0001*%
%ADD100R,0.0376X0.0001*%
%ADD101R,0.0371X0.0000*%
%ADD102R,0.0376X0.0000*%
%ADD103R,0.0370X0.0000*%
%ADD104R,0.0369X0.0001*%
%ADD105R,0.0374X0.0001*%
%ADD106R,0.0368X0.0000*%
%ADD107R,0.0374X0.0000*%
%ADD108R,0.0367X0.0001*%
%ADD109R,0.0373X0.0001*%
%ADD110R,0.0366X0.0000*%
%ADD111R,0.0372X0.0000*%
%ADD112R,0.0365X0.0000*%
%ADD113R,0.0371X0.0000*%
%ADD114R,0.0364X0.0001*%
%ADD115R,0.0371X0.0001*%
%ADD116R,0.0362X0.0000*%
%ADD117R,0.0369X0.0000*%
%ADD118R,0.0360X0.0001*%
%ADD119R,0.0369X0.0001*%
%ADD120R,0.0359X0.0000*%
%ADD121R,0.0367X0.0000*%
%ADD122R,0.0357X0.0000*%
%ADD123R,0.0355X0.0001*%
%ADD124R,0.0365X0.0001*%
%ADD125R,0.0354X0.0000*%
%ADD126R,0.0364X0.0000*%
%ADD127R,0.0351X0.0001*%
%ADD128R,0.0363X0.0001*%
%ADD129R,0.0348X0.0000*%
%ADD130R,0.0361X0.0000*%
%ADD131R,0.0345X0.0000*%
%ADD132R,0.0340X0.0001*%
%ADD133R,0.0359X0.0001*%
%ADD134R,0.0258X0.0000*%
%ADD135R,0.0356X0.0000*%
%ADD136R,0.0257X0.0001*%
%ADD137R,0.0354X0.0001*%
%ADD138R,0.0257X0.0000*%
%ADD139R,0.0352X0.0000*%
%ADD140R,0.0347X0.0001*%
%ADD141R,0.0257X0.0000*%
%ADD142R,0.0344X0.0000*%
%ADD143R,0.0257X0.0001*%
%ADD144R,0.0338X0.0001*%
%ADD145R,0.0239X0.0000*%
%ADD146R,0.0256X0.0000*%
%ADD147R,0.0256X0.0001*%
%ADD148R,0.0239X0.0001*%
%ADD149R,0.0239X0.0001*%
%ADD150R,0.0256X0.0000*%
%ADD151R,0.0239X0.0000*%
%ADD152R,0.0256X0.0001*%
%ADD153R,0.0255X0.0000*%
%ADD154R,0.0238X0.0000*%
%ADD155R,0.0255X0.0001*%
%ADD156R,0.0238X0.0001*%
%ADD157R,0.0255X0.0000*%
%ADD158R,0.0255X0.0001*%
%ADD159R,0.0238X0.0001*%
%ADD160R,0.0238X0.0000*%
%ADD161R,0.0255X0.0000*%
%ADD162R,0.0238X0.0000*%
%ADD163R,0.0255X0.0001*%
%ADD164R,0.0238X0.0001*%
%ADD165R,0.0254X0.0000*%
%ADD166R,0.0254X0.0001*%
%ADD167R,0.0237X0.0000*%
%ADD168R,0.0254X0.0001*%
%ADD169R,0.0237X0.0001*%
%ADD170R,0.0254X0.0000*%
%ADD171R,0.0253X0.0000*%
%ADD172R,0.0236X0.0000*%
%ADD173R,0.0253X0.0001*%
%ADD174R,0.0236X0.0001*%
%ADD175R,0.0253X0.0000*%
%ADD176R,0.0253X0.0001*%
%ADD177R,0.0236X0.0001*%
%ADD178R,0.0236X0.0000*%
%ADD179R,0.0252X0.0001*%
%ADD180R,0.0252X0.0000*%
%ADD181R,0.0235X0.0000*%
%ADD182R,0.0235X0.0001*%
%ADD183R,0.0251X0.0000*%
%ADD184R,0.0251X0.0001*%
%ADD185R,0.0235X0.0001*%
%ADD186R,0.0235X0.0000*%
%ADD187R,0.0251X0.0001*%
%ADD188R,0.0251X0.0000*%
%ADD189R,0.0234X0.0000*%
%ADD190R,0.0250X0.0001*%
%ADD191R,0.0234X0.0001*%
%ADD192R,0.0250X0.0000*%
%ADD193R,0.0250X0.0000*%
%ADD194R,0.0234X0.0000*%
%ADD195R,0.0250X0.0001*%
%ADD196R,0.0234X0.0001*%
%ADD197R,0.0250X0.0001*%
%ADD198R,0.0250X0.0000*%
%ADD199R,0.0233X0.0000*%
%ADD200R,0.0249X0.0001*%
%ADD201R,0.0233X0.0001*%
%ADD202R,0.0249X0.0000*%
%ADD203R,0.0233X0.0001*%
%ADD204R,0.0233X0.0000*%
%ADD205R,0.0249X0.0000*%
%ADD206R,0.0249X0.0001*%
%ADD207R,0.0232X0.0000*%
%ADD208R,0.0248X0.0001*%
%ADD209R,0.0232X0.0001*%
%ADD210R,0.0248X0.0000*%
%ADD211R,0.0248X0.0001*%
%ADD212R,0.0232X0.0001*%
%ADD213R,0.0248X0.0000*%
%ADD214R,0.0232X0.0000*%
%ADD215R,0.0247X0.0000*%
%ADD216R,0.0231X0.0000*%
%ADD217R,0.0247X0.0001*%
%ADD218R,0.0231X0.0001*%
%ADD219R,0.0246X0.0001*%
%ADD220R,0.0246X0.0000*%
%ADD221R,0.0231X0.0000*%
%ADD222R,0.0231X0.0001*%
%ADD223R,0.0246X0.0000*%
%ADD224R,0.0246X0.0001*%
%ADD225R,0.0230X0.0000*%
%ADD226R,0.0245X0.0000*%
%ADD227R,0.0245X0.0001*%
%ADD228R,0.0230X0.0001*%
%ADD229R,0.0245X0.0001*%
%ADD230R,0.0230X0.0001*%
%ADD231R,0.0245X0.0000*%
%ADD232R,0.0230X0.0000*%
%ADD233R,0.0245X0.0000*%
%ADD234R,0.0229X0.0000*%
%ADD235R,0.0245X0.0001*%
%ADD236R,0.0229X0.0001*%
%ADD237R,0.0244X0.0000*%
%ADD238R,0.0244X0.0001*%
%ADD239R,0.0229X0.0001*%
%ADD240R,0.0229X0.0000*%
%ADD241R,0.0244X0.0000*%
%ADD242R,0.0228X0.0000*%
%ADD243R,0.0244X0.0001*%
%ADD244R,0.0228X0.0001*%
%ADD245R,0.0243X0.0000*%
%ADD246R,0.0243X0.0001*%
%ADD247R,0.0243X0.0000*%
%ADD248R,0.0228X0.0000*%
%ADD249R,0.0243X0.0001*%
%ADD250R,0.0228X0.0001*%
%ADD251R,0.0242X0.0000*%
%ADD252R,0.0227X0.0000*%
%ADD253R,0.0242X0.0001*%
%ADD254R,0.0227X0.0001*%
%ADD255R,0.0241X0.0000*%
%ADD256R,0.0241X0.0001*%
%ADD257R,0.0227X0.0001*%
%ADD258R,0.0227X0.0000*%
%ADD259R,0.0241X0.0001*%
%ADD260R,0.0241X0.0000*%
%ADD261R,0.0226X0.0000*%
%ADD262R,0.0226X0.0001*%
%ADD263R,0.0240X0.0000*%
%ADD264R,0.0240X0.0001*%
%ADD265R,0.0226X0.0001*%
%ADD266R,0.0240X0.0000*%
%ADD267R,0.0226X0.0000*%
%ADD268R,0.0240X0.0001*%
%ADD269R,0.0225X0.0000*%
%ADD270R,0.0240X0.0001*%
%ADD271R,0.0225X0.0001*%
%ADD272R,0.0240X0.0000*%
%ADD273R,0.0225X0.0000*%
%ADD274R,0.0225X0.0001*%
%ADD275R,0.0239X0.0001*%
%ADD276R,0.0239X0.0000*%
%ADD277R,0.0224X0.0000*%
%ADD278R,0.0224X0.0001*%
%ADD279R,0.0224X0.0001*%
%ADD280R,0.0224X0.0000*%
%ADD281R,0.0223X0.0000*%
%ADD282R,0.0237X0.0001*%
%ADD283R,0.0223X0.0001*%
%ADD284R,0.0237X0.0000*%
%ADD285R,0.0223X0.0001*%
%ADD286R,0.0223X0.0000*%
%ADD287R,0.0236X0.0000*%
%ADD288R,0.0222X0.0000*%
%ADD289R,0.0236X0.0001*%
%ADD290R,0.0222X0.0001*%
%ADD291R,0.0222X0.0000*%
%ADD292R,0.0222X0.0001*%
%ADD293R,0.0221X0.0000*%
%ADD294R,0.0235X0.0000*%
%ADD295R,0.0235X0.0001*%
%ADD296R,0.0221X0.0001*%
%ADD297R,0.0221X0.0001*%
%ADD298R,0.0221X0.0000*%
%ADD299R,0.0234X0.0000*%
%ADD300R,0.0220X0.0000*%
%ADD301R,0.0234X0.0001*%
%ADD302R,0.0220X0.0001*%
%ADD303R,0.0220X0.0001*%
%ADD304R,0.0220X0.0000*%
%ADD305R,0.0219X0.0000*%
%ADD306R,0.0219X0.0001*%
%ADD307R,0.0232X0.0000*%
%ADD308R,0.0232X0.0001*%
%ADD309R,0.0219X0.0000*%
%ADD310R,0.0219X0.0001*%
%ADD311R,0.0231X0.0000*%
%ADD312R,0.0218X0.0000*%
%ADD313R,0.0231X0.0001*%
%ADD314R,0.0218X0.0001*%
%ADD315R,0.0218X0.0001*%
%ADD316R,0.0218X0.0000*%
%ADD317R,0.0217X0.0000*%
%ADD318R,0.0217X0.0001*%
%ADD319R,0.0230X0.0000*%
%ADD320R,0.0230X0.0001*%
%ADD321R,0.0217X0.0001*%
%ADD322R,0.0217X0.0000*%
%ADD323R,0.0216X0.0000*%
%ADD324R,0.0229X0.0001*%
%ADD325R,0.0216X0.0001*%
%ADD326R,0.0229X0.0000*%
%ADD327R,0.0216X0.0000*%
%ADD328R,0.0216X0.0001*%
%ADD329R,0.0215X0.0000*%
%ADD330R,0.0227X0.0001*%
%ADD331R,0.0215X0.0001*%
%ADD332R,0.0227X0.0000*%
%ADD333R,0.0215X0.0001*%
%ADD334R,0.0215X0.0000*%
%ADD335R,0.0214X0.0000*%
%ADD336R,0.0226X0.0001*%
%ADD337R,0.0214X0.0001*%
%ADD338R,0.0226X0.0000*%
%ADD339R,0.0214X0.0001*%
%ADD340R,0.0214X0.0000*%
%ADD341R,0.0213X0.0000*%
%ADD342R,0.0213X0.0001*%
%ADD343R,0.0225X0.0001*%
%ADD344R,0.0225X0.0000*%
%ADD345R,0.0213X0.0000*%
%ADD346R,0.0213X0.0001*%
%ADD347R,0.0213X0.0000*%
%ADD348R,0.0224X0.0000*%
%ADD349R,0.0224X0.0001*%
%ADD350R,0.0213X0.0001*%
%ADD351R,0.0212X0.0001*%
%ADD352R,0.0212X0.0000*%
%ADD353R,0.0211X0.0000*%
%ADD354R,0.0211X0.0001*%
%ADD355R,0.0222X0.0000*%
%ADD356R,0.0222X0.0001*%
%ADD357R,0.0211X0.0001*%
%ADD358R,0.0211X0.0000*%
%ADD359R,0.0210X0.0000*%
%ADD360R,0.0210X0.0001*%
%ADD361R,0.0221X0.0000*%
%ADD362R,0.0221X0.0001*%
%ADD363R,0.0210X0.0000*%
%ADD364R,0.0210X0.0001*%
%ADD365R,0.0209X0.0000*%
%ADD366R,0.0209X0.0001*%
%ADD367R,0.0220X0.0000*%
%ADD368R,0.0220X0.0001*%
%ADD369R,0.0209X0.0001*%
%ADD370R,0.0209X0.0000*%
%ADD371R,0.0208X0.0000*%
%ADD372R,0.0208X0.0001*%
%ADD373R,0.0219X0.0000*%
%ADD374R,0.0219X0.0001*%
%ADD375R,0.0208X0.0001*%
%ADD376R,0.0208X0.0000*%
%ADD377R,0.0208X0.0000*%
%ADD378R,0.0208X0.0001*%
%ADD379R,0.0217X0.0000*%
%ADD380R,0.0207X0.0000*%
%ADD381R,0.0217X0.0001*%
%ADD382R,0.0207X0.0001*%
%ADD383R,0.0206X0.0000*%
%ADD384R,0.0216X0.0001*%
%ADD385R,0.0206X0.0001*%
%ADD386R,0.0216X0.0000*%
%ADD387R,0.0206X0.0001*%
%ADD388R,0.0206X0.0000*%
%ADD389R,0.0205X0.0000*%
%ADD390R,0.0205X0.0001*%
%ADD391R,0.0215X0.0001*%
%ADD392R,0.0205X0.0001*%
%ADD393R,0.0215X0.0000*%
%ADD394R,0.0205X0.0000*%
%ADD395R,0.0204X0.0000*%
%ADD396R,0.0204X0.0001*%
%ADD397R,0.0214X0.0001*%
%ADD398R,0.0214X0.0000*%
%ADD399R,0.0204X0.0000*%
%ADD400R,0.0204X0.0001*%
%ADD401R,0.0203X0.0000*%
%ADD402R,0.0203X0.0001*%
%ADD403R,0.0212X0.0001*%
%ADD404R,0.0203X0.0001*%
%ADD405R,0.0212X0.0000*%
%ADD406R,0.0203X0.0000*%
%ADD407R,0.0203X0.0000*%
%ADD408R,0.0203X0.0001*%
%ADD409R,0.0211X0.0000*%
%ADD410R,0.0211X0.0001*%
%ADD411R,0.0202X0.0001*%
%ADD412R,0.0202X0.0000*%
%ADD413R,0.0201X0.0000*%
%ADD414R,0.0201X0.0001*%
%ADD415R,0.0210X0.0000*%
%ADD416R,0.0201X0.0000*%
%ADD417R,0.0210X0.0001*%
%ADD418R,0.0201X0.0001*%
%ADD419R,0.0200X0.0000*%
%ADD420R,0.0200X0.0001*%
%ADD421R,0.0209X0.0000*%
%ADD422R,0.0209X0.0001*%
%ADD423R,0.0200X0.0001*%
%ADD424R,0.0200X0.0000*%
%ADD425R,0.0199X0.0000*%
%ADD426R,0.0199X0.0001*%
%ADD427R,0.0199X0.0001*%
%ADD428R,0.0207X0.0000*%
%ADD429R,0.0199X0.0000*%
%ADD430R,0.0207X0.0001*%
%ADD431R,0.0198X0.0000*%
%ADD432R,0.0198X0.0001*%
%ADD433R,0.0206X0.0000*%
%ADD434R,0.0198X0.0000*%
%ADD435R,0.0206X0.0001*%
%ADD436R,0.0198X0.0001*%
%ADD437R,0.0198X0.0000*%
%ADD438R,0.0198X0.0001*%
%ADD439R,0.0197X0.0001*%
%ADD440R,0.0205X0.0000*%
%ADD441R,0.0197X0.0000*%
%ADD442R,0.0205X0.0001*%
%ADD443R,0.0196X0.0000*%
%ADD444R,0.0196X0.0001*%
%ADD445R,0.0204X0.0001*%
%ADD446R,0.0196X0.0001*%
%ADD447R,0.0204X0.0000*%
%ADD448R,0.0196X0.0000*%
%ADD449R,0.0195X0.0000*%
%ADD450R,0.0195X0.0001*%
%ADD451R,0.0195X0.0000*%
%ADD452R,0.0202X0.0001*%
%ADD453R,0.0195X0.0001*%
%ADD454R,0.0202X0.0000*%
%ADD455R,0.0194X0.0000*%
%ADD456R,0.0194X0.0001*%
%ADD457R,0.0201X0.0001*%
%ADD458R,0.0194X0.0001*%
%ADD459R,0.0201X0.0000*%
%ADD460R,0.0194X0.0000*%
%ADD461R,0.0193X0.0000*%
%ADD462R,0.0193X0.0001*%
%ADD463R,0.0193X0.0001*%
%ADD464R,0.0193X0.0000*%
%ADD465R,0.0200X0.0001*%
%ADD466R,0.0200X0.0000*%
%ADD467R,0.0192X0.0000*%
%ADD468R,0.0192X0.0001*%
%ADD469R,0.0199X0.0000*%
%ADD470R,0.0192X0.0000*%
%ADD471R,0.0199X0.0001*%
%ADD472R,0.0192X0.0001*%
%ADD473R,0.0191X0.0000*%
%ADD474R,0.0191X0.0001*%
%ADD475R,0.0191X0.0001*%
%ADD476R,0.0191X0.0000*%
%ADD477R,0.0197X0.0000*%
%ADD478R,0.0197X0.0001*%
%ADD479R,0.0190X0.0000*%
%ADD480R,0.0190X0.0001*%
%ADD481R,0.0190X0.0001*%
%ADD482R,0.0196X0.0000*%
%ADD483R,0.0190X0.0000*%
%ADD484R,0.0196X0.0001*%
%ADD485R,0.0189X0.0000*%
%ADD486R,0.0189X0.0001*%
%ADD487R,0.0189X0.0000*%
%ADD488R,0.0189X0.0001*%
%ADD489R,0.0195X0.0000*%
%ADD490R,0.0195X0.0001*%
%ADD491R,0.0188X0.0000*%
%ADD492R,0.0188X0.0001*%
%ADD493R,0.0188X0.0001*%
%ADD494R,0.0194X0.0000*%
%ADD495R,0.0188X0.0000*%
%ADD496R,0.0194X0.0001*%
%ADD497R,0.0187X0.0000*%
%ADD498R,0.0187X0.0001*%
%ADD499R,0.0187X0.0001*%
%ADD500R,0.0187X0.0000*%
%ADD501R,0.0192X0.0000*%
%ADD502R,0.0186X0.0000*%
%ADD503R,0.0192X0.0001*%
%ADD504R,0.0186X0.0001*%
%ADD505R,0.0186X0.0000*%
%ADD506R,0.0191X0.0001*%
%ADD507R,0.0186X0.0001*%
%ADD508R,0.0191X0.0000*%
%ADD509R,0.0185X0.0000*%
%ADD510R,0.0185X0.0001*%
%ADD511R,0.0185X0.0001*%
%ADD512R,0.0185X0.0000*%
%ADD513R,0.0190X0.0001*%
%ADD514R,0.0190X0.0000*%
%ADD515R,0.0184X0.0000*%
%ADD516R,0.0184X0.0001*%
%ADD517R,0.0184X0.0001*%
%ADD518R,0.0184X0.0000*%
%ADD519R,0.0189X0.0001*%
%ADD520R,0.0189X0.0000*%
%ADD521R,0.0183X0.0000*%
%ADD522R,0.0183X0.0001*%
%ADD523R,0.0183X0.0000*%
%ADD524R,0.0183X0.0001*%
%ADD525R,0.0187X0.0001*%
%ADD526R,0.0187X0.0000*%
%ADD527R,0.0182X0.0000*%
%ADD528R,0.0182X0.0001*%
%ADD529R,0.0182X0.0001*%
%ADD530R,0.0182X0.0000*%
%ADD531R,0.0186X0.0000*%
%ADD532R,0.0186X0.0001*%
%ADD533R,0.0181X0.0000*%
%ADD534R,0.0181X0.0001*%
%ADD535R,0.0181X0.0001*%
%ADD536R,0.0181X0.0000*%
%ADD537R,0.0185X0.0000*%
%ADD538R,0.0180X0.0000*%
%ADD539R,0.0185X0.0001*%
%ADD540R,0.0180X0.0001*%
%ADD541R,0.0180X0.0000*%
%ADD542R,0.0180X0.0001*%
%ADD543R,0.0184X0.0000*%
%ADD544R,0.0184X0.0001*%
%ADD545R,0.0179X0.0000*%
%ADD546R,0.0179X0.0001*%
%ADD547R,0.0179X0.0001*%
%ADD548R,0.0179X0.0000*%
%ADD549R,0.0182X0.0000*%
%ADD550R,0.0178X0.0000*%
%ADD551R,0.0182X0.0001*%
%ADD552R,0.0178X0.0001*%
%ADD553R,0.0178X0.0001*%
%ADD554R,0.0178X0.0000*%
%ADD555R,0.0181X0.0000*%
%ADD556R,0.0177X0.0000*%
%ADD557R,0.0181X0.0001*%
%ADD558R,0.0177X0.0001*%
%ADD559R,0.0177X0.0000*%
%ADD560R,0.0177X0.0001*%
%ADD561R,0.0180X0.0000*%
%ADD562R,0.0176X0.0000*%
%ADD563R,0.0180X0.0001*%
%ADD564R,0.0176X0.0001*%
%ADD565R,0.0176X0.0001*%
%ADD566R,0.0176X0.0000*%
%ADD567R,0.0179X0.0001*%
%ADD568R,0.0179X0.0000*%
%ADD569R,0.0175X0.0000*%
%ADD570R,0.0175X0.0001*%
%ADD571R,0.0175X0.0001*%
%ADD572R,0.0175X0.0000*%
%ADD573R,0.0174X0.0000*%
%ADD574R,0.0177X0.0001*%
%ADD575R,0.0174X0.0001*%
%ADD576R,0.0177X0.0000*%
%ADD577R,0.0174X0.0000*%
%ADD578R,0.0174X0.0001*%
%ADD579R,0.0176X0.0001*%
%ADD580R,0.0176X0.0000*%
%ADD581R,0.0173X0.0000*%
%ADD582R,0.0173X0.0001*%
%ADD583R,0.0173X0.0001*%
%ADD584R,0.0173X0.0000*%
%ADD585R,0.0173X0.0000*%
%ADD586R,0.0175X0.0001*%
%ADD587R,0.0173X0.0001*%
%ADD588R,0.0175X0.0000*%
%ADD589R,0.0172X0.0001*%
%ADD590R,0.0172X0.0000*%
%ADD591R,0.0174X0.0000*%
%ADD592R,0.0171X0.0000*%
%ADD593R,0.0174X0.0001*%
%ADD594R,0.0171X0.0001*%
%ADD595R,0.0171X0.0000*%
%ADD596R,0.0171X0.0001*%
%ADD597R,0.0170X0.0000*%
%ADD598R,0.0172X0.0000*%
%ADD599R,0.0172X0.0001*%
%ADD600R,0.0170X0.0001*%
%ADD601R,0.0170X0.0001*%
%ADD602R,0.0170X0.0000*%
%ADD603R,0.0171X0.0000*%
%ADD604R,0.0169X0.0000*%
%ADD605R,0.0171X0.0001*%
%ADD606R,0.0169X0.0001*%
%ADD607R,0.0169X0.0001*%
%ADD608R,0.0169X0.0000*%
%ADD609R,0.0168X0.0000*%
%ADD610R,0.0168X0.0001*%
%ADD611R,0.0170X0.0000*%
%ADD612R,0.0170X0.0001*%
%ADD613R,0.0168X0.0000*%
%ADD614R,0.0168X0.0001*%
%ADD615R,0.0169X0.0000*%
%ADD616R,0.0168X0.0000*%
%ADD617R,0.0169X0.0001*%
%ADD618R,0.0168X0.0001*%
%ADD619R,0.0167X0.0001*%
%ADD620R,0.0167X0.0000*%
%ADD621R,0.0166X0.0000*%
%ADD622R,0.0166X0.0001*%
%ADD623R,0.0167X0.0000*%
%ADD624R,0.0167X0.0001*%
%ADD625R,0.0166X0.0001*%
%ADD626R,0.0166X0.0000*%
%ADD627R,0.0165X0.0000*%
%ADD628R,0.0166X0.0001*%
%ADD629R,0.0165X0.0001*%
%ADD630R,0.0166X0.0000*%
%ADD631R,0.0165X0.0000*%
%ADD632R,0.0165X0.0001*%
%ADD633R,0.0164X0.0000*%
%ADD634R,0.0165X0.0001*%
%ADD635R,0.0164X0.0001*%
%ADD636R,0.0165X0.0000*%
%ADD637R,0.0164X0.0001*%
%ADD638R,0.0164X0.0000*%
%ADD639R,0.0163X0.0000*%
%ADD640R,0.0164X0.0001*%
%ADD641R,0.0163X0.0001*%
%ADD642R,0.0164X0.0000*%
%ADD643R,0.0163X0.0001*%
%ADD644R,0.0163X0.0000*%
%ADD645R,0.0163X0.0000*%
%ADD646R,0.0163X0.0001*%
%ADD647R,0.0162X0.0001*%
%ADD648R,0.0162X0.0000*%
%ADD649R,0.0162X0.0000*%
%ADD650R,0.0161X0.0001*%
%ADD651R,0.0162X0.0001*%
%ADD652R,0.0161X0.0000*%
%ADD653R,0.0161X0.0000*%
%ADD654R,0.0161X0.0001*%
%ADD655R,0.0160X0.0001*%
%ADD656R,0.0161X0.0001*%
%ADD657R,0.0160X0.0000*%
%ADD658R,0.0161X0.0000*%
%ADD659R,0.0160X0.0000*%
%ADD660R,0.0160X0.0001*%
%ADD661R,0.0160X0.0000*%
%ADD662R,0.0160X0.0001*%
%ADD663R,0.0159X0.0001*%
%ADD664R,0.0159X0.0000*%
%ADD665R,0.0159X0.0000*%
%ADD666R,0.0159X0.0001*%
%ADD667R,0.0159X0.0000*%
%ADD668R,0.0159X0.0001*%
%ADD669R,0.0158X0.0000*%
%ADD670R,0.0158X0.0001*%
%ADD671R,0.0158X0.0000*%
%ADD672R,0.0158X0.0000*%
%ADD673R,0.0158X0.0001*%
%ADD674R,0.0158X0.0001*%
%ADD675R,0.0157X0.0000*%
%ADD676R,0.0157X0.0001*%
%ADD677R,0.0156X0.0000*%
%ADD678R,0.0156X0.0001*%
%ADD679R,0.0156X0.0000*%
%ADD680R,0.0156X0.0001*%
%ADD681R,0.0157X0.0001*%
%ADD682R,0.0155X0.0000*%
%ADD683R,0.0157X0.0000*%
%ADD684R,0.0155X0.0001*%
%ADD685R,0.0155X0.0001*%
%ADD686R,0.0155X0.0000*%
%ADD687R,0.0155X0.0000*%
%ADD688R,0.0156X0.0000*%
%ADD689R,0.0155X0.0001*%
%ADD690R,0.0156X0.0001*%
%ADD691R,0.0154X0.0000*%
%ADD692R,0.0154X0.0001*%
%ADD693R,0.0154X0.0001*%
%ADD694R,0.0154X0.0000*%
%ADD695R,0.0153X0.0000*%
%ADD696R,0.0153X0.0001*%
%ADD697R,0.0154X0.0000*%
%ADD698R,0.0152X0.0001*%
%ADD699R,0.0154X0.0001*%
%ADD700R,0.0152X0.0000*%
%ADD701R,0.0152X0.0001*%
%ADD702R,0.0152X0.0000*%
%ADD703R,0.0151X0.0000*%
%ADD704R,0.0153X0.0000*%
%ADD705R,0.0151X0.0001*%
%ADD706R,0.0153X0.0001*%
%ADD707R,0.0151X0.0001*%
%ADD708R,0.0151X0.0000*%
%ADD709R,0.0150X0.0001*%
%ADD710R,0.0150X0.0000*%
%ADD711R,0.0150X0.0000*%
%ADD712R,0.0150X0.0001*%
%ADD713R,0.0150X0.0001*%
%ADD714R,0.0152X0.0001*%
%ADD715R,0.0150X0.0000*%
%ADD716R,0.0152X0.0000*%
%ADD717R,0.0149X0.0000*%
%ADD718R,0.0149X0.0001*%
%ADD719R,0.0149X0.0000*%
%ADD720R,0.0149X0.0001*%
%ADD721R,0.0151X0.0001*%
%ADD722R,0.0151X0.0000*%
%ADD723R,0.0148X0.0001*%
%ADD724R,0.0148X0.0000*%
%ADD725R,0.0260X0.0000*%
%ADD726R,0.0259X0.0000*%
%ADD727R,0.0260X0.0001*%
%ADD728R,0.0259X0.0001*%
%ADD729R,0.0868X0.0000*%
%ADD730R,0.0868X0.0001*%
%ADD731R,0.0321X0.0000*%
%ADD732R,0.0305X0.0000*%
%ADD733R,0.0321X0.0001*%
%ADD734R,0.0305X0.0001*%
%ADD735R,0.0867X0.0000*%
%ADD736R,0.0867X0.0001*%
%ADD737R,0.0867X0.0000*%
%ADD738R,0.0867X0.0001*%
%ADD739R,0.0866X0.0000*%
%ADD740R,0.0866X0.0000*%
%ADD741R,0.0866X0.0001*%
%ADD742R,0.0866X0.0000*%
%ADD743R,0.0866X0.0001*%
%ADD744R,0.0865X0.0000*%
%ADD745R,0.0865X0.0001*%
%ADD746R,0.0864X0.0001*%
%ADD747R,0.0864X0.0000*%
%ADD748R,0.0864X0.0001*%
%ADD749R,0.0864X0.0000*%
%ADD750R,0.0864X0.0001*%
%ADD751R,0.0864X0.0000*%
%ADD752R,0.0863X0.0001*%
%ADD753R,0.0863X0.0000*%
%ADD754R,0.0862X0.0001*%
%ADD755R,0.0862X0.0000*%
%ADD756R,0.0862X0.0001*%
%ADD757R,0.0862X0.0000*%
%ADD758R,0.0861X0.0001*%
%ADD759R,0.0861X0.0000*%
%ADD760R,0.0861X0.0001*%
%ADD761R,0.0860X0.0001*%
%ADD762R,0.0860X0.0000*%
%ADD763R,0.0859X0.0000*%
%ADD764R,0.0859X0.0001*%
%ADD765R,0.0858X0.0000*%
%ADD766R,0.0858X0.0001*%
%ADD767R,0.0857X0.0001*%
%ADD768R,0.0857X0.0000*%
%ADD769R,0.0856X0.0000*%
%ADD770R,0.0856X0.0001*%
%ADD771R,0.0855X0.0000*%
%ADD772R,0.0855X0.0001*%
%ADD773R,0.0855X0.0000*%
%ADD774R,0.0855X0.0001*%
%ADD775R,0.0854X0.0000*%
%ADD776R,0.0854X0.0001*%
%ADD777R,0.0853X0.0000*%
%ADD778R,0.0853X0.0001*%
%ADD779R,0.0853X0.0000*%
%ADD780R,0.0853X0.0000*%
%ADD781R,0.0852X0.0001*%
%ADD782R,0.0852X0.0000*%
%ADD783R,0.0852X0.0001*%
%ADD784R,0.0851X0.0000*%
%ADD785R,0.0850X0.0001*%
%ADD786R,0.0850X0.0000*%
%ADD787R,0.0850X0.0001*%
%ADD788R,0.0849X0.0000*%
%ADD789R,0.0848X0.0001*%
%ADD790R,0.0848X0.0000*%
%ADD791R,0.0848X0.0001*%
%ADD792R,0.0848X0.0000*%
%ADD793R,0.0847X0.0000*%
%ADD794R,0.0847X0.0001*%
%ADD795R,0.0846X0.0000*%
%ADD796R,0.0846X0.0001*%
%ADD797R,0.0845X0.0000*%
%ADD798R,0.0845X0.0000*%
%ADD799R,0.0845X0.0001*%
%ADD800R,0.0843X0.0000*%
%ADD801R,0.0843X0.0001*%
%ADD802R,0.0841X0.0000*%
%ADD803R,0.0840X0.0000*%
%ADD804R,0.0839X0.0001*%
%ADD805R,0.0838X0.0000*%
%ADD806R,0.0837X0.0001*%
%ADD807R,0.0836X0.0000*%
%ADD808R,0.0835X0.0000*%
%ADD809R,0.0834X0.0001*%
%ADD810R,0.0833X0.0000*%
%ADD811R,0.0832X0.0001*%
%ADD812R,0.0831X0.0000*%
%ADD813R,0.0830X0.0000*%
%ADD814R,0.0829X0.0001*%
%ADD815R,0.0828X0.0000*%
%ADD816R,0.0827X0.0001*%
%ADD817R,0.0826X0.0000*%
%ADD818R,0.0825X0.0000*%
%ADD819R,0.0824X0.0001*%
%ADD820R,0.0823X0.0000*%
%ADD821R,0.0822X0.0001*%
%ADD822R,0.0821X0.0000*%
%ADD823R,0.0820X0.0000*%
%ADD824R,0.0819X0.0001*%
%ADD825R,0.0818X0.0000*%
%ADD826R,0.0817X0.0001*%
%ADD827R,0.0816X0.0000*%
%ADD828R,0.0815X0.0000*%
%ADD829R,0.0814X0.0001*%
%ADD830R,0.0813X0.0000*%
%ADD831R,0.0812X0.0001*%
%ADD832R,0.0811X0.0000*%
%ADD833R,0.0810X0.0000*%
%ADD834R,0.0808X0.0001*%
%ADD835R,0.0808X0.0000*%
%ADD836R,0.0807X0.0001*%
%ADD837R,0.0805X0.0000*%
%ADD838R,0.0805X0.0000*%
%ADD839R,0.0803X0.0001*%
%ADD840R,0.0803X0.0000*%
%ADD841R,0.0802X0.0001*%
%ADD842R,0.0800X0.0000*%
%ADD843R,0.0800X0.0000*%
%ADD844R,0.0798X0.0001*%
%ADD845R,0.0798X0.0000*%
%ADD846R,0.0797X0.0001*%
%ADD847R,0.0795X0.0000*%
%ADD848R,0.0795X0.0000*%
%ADD849R,0.0793X0.0001*%
%ADD850R,0.0793X0.0000*%
%ADD851R,0.0791X0.0001*%
%ADD852R,0.0790X0.0000*%
%ADD853R,0.0789X0.0000*%
%ADD854R,0.0788X0.0001*%
%ADD855R,0.0787X0.0000*%
%ADD856R,0.0786X0.0001*%
%ADD857R,0.0785X0.0000*%
%ADD858R,0.0784X0.0000*%
%ADD859R,0.0783X0.0001*%
%ADD860R,0.0782X0.0000*%
%ADD861R,0.0781X0.0001*%
%ADD862R,0.0780X0.0000*%
%ADD863R,0.0779X0.0000*%
%ADD864R,0.0778X0.0001*%
%ADD865R,0.0777X0.0000*%
%ADD866R,0.0776X0.0001*%
%ADD867R,0.0775X0.0000*%
%ADD868R,0.0774X0.0000*%
%ADD869R,0.0773X0.0001*%
%ADD870R,0.0772X0.0000*%
%ADD871R,0.0771X0.0001*%
%ADD872R,0.0770X0.0000*%
%ADD873R,0.0769X0.0000*%
%ADD874R,0.0768X0.0001*%
%ADD875R,0.0767X0.0000*%
%ADD876R,0.0766X0.0001*%
%ADD877R,0.0765X0.0000*%
%ADD878R,0.0764X0.0000*%
%ADD879R,0.0763X0.0001*%
%ADD880R,0.0762X0.0000*%
%ADD881R,0.0761X0.0001*%
%ADD882R,0.0760X0.0000*%
%ADD883R,0.0758X0.0000*%
%ADD884R,0.0757X0.0001*%
%ADD885R,0.0757X0.0000*%
%ADD886R,0.0755X0.0001*%
%ADD887R,0.0755X0.0000*%
%ADD888R,0.0753X0.0000*%
%ADD889R,0.0752X0.0001*%
%ADD890R,0.0752X0.0000*%
%ADD891R,0.0750X0.0001*%
%ADD892R,0.0750X0.0000*%
%ADD893R,0.0748X0.0000*%
%ADD894R,0.0747X0.0001*%
%ADD895R,0.0747X0.0000*%
%ADD896R,0.0745X0.0001*%
%ADD897R,0.0745X0.0000*%
%ADD898R,0.0743X0.0000*%
%ADD899R,0.0742X0.0001*%
%ADD900R,0.0741X0.0000*%
%ADD901R,0.0740X0.0001*%
%ADD902R,0.0739X0.0000*%
%ADD903R,0.0738X0.0000*%
%ADD904R,0.0737X0.0001*%
%ADD905R,0.0736X0.0000*%
%ADD906R,0.0735X0.0001*%
%ADD907R,0.0734X0.0000*%
%ADD908R,0.0733X0.0000*%
%ADD909R,0.0732X0.0001*%
%ADD910R,0.0731X0.0000*%
%ADD911R,0.0730X0.0001*%
%ADD912R,0.0729X0.0000*%
%ADD913R,0.0728X0.0000*%
%ADD914R,0.0727X0.0001*%
%ADD915R,0.0726X0.0000*%
%ADD916R,0.0725X0.0001*%
%ADD917R,0.0724X0.0000*%
%ADD918R,0.0723X0.0000*%
%ADD919R,0.0722X0.0001*%
%ADD920R,0.0721X0.0000*%
%ADD921R,0.0720X0.0001*%
%ADD922R,0.0719X0.0000*%
%ADD923R,0.0718X0.0000*%
%ADD924R,0.0717X0.0001*%
%ADD925R,0.0716X0.0000*%
%ADD926R,0.0715X0.0001*%
%ADD927R,0.0714X0.0000*%
%ADD928R,0.0713X0.0000*%
%ADD929R,0.0712X0.0001*%
%ADD930R,0.0711X0.0000*%
%ADD931R,0.0710X0.0001*%
%ADD932R,0.0709X0.0000*%
%ADD933R,0.0707X0.0000*%
%ADD934R,0.0707X0.0001*%
%ADD935R,0.0705X0.0000*%
%ADD936R,0.0705X0.0001*%
%ADD937R,0.0703X0.0000*%
%ADD938R,0.0703X0.0000*%
%ADD939R,0.0702X0.0001*%
%ADD940R,0.0700X0.0000*%
%ADD941R,0.0700X0.0001*%
%ADD942R,0.0698X0.0000*%
%ADD943R,0.0698X0.0000*%
%ADD944R,0.0697X0.0001*%
%ADD945R,0.0695X0.0000*%
%ADD946R,0.0695X0.0001*%
%ADD947R,0.0693X0.0000*%
%ADD948R,0.0692X0.0000*%
%ADD949R,0.0691X0.0001*%
%ADD950R,0.0690X0.0000*%
%ADD951R,0.0689X0.0001*%
%ADD952R,0.0688X0.0000*%
%ADD953R,0.0687X0.0000*%
%ADD954R,0.0686X0.0001*%
%ADD955R,0.0685X0.0000*%
%ADD956R,0.0684X0.0001*%
%ADD957R,0.0683X0.0000*%
%ADD958R,0.0682X0.0000*%
%ADD959R,0.0681X0.0001*%
%ADD960R,0.0680X0.0000*%
%ADD961R,0.0679X0.0001*%
%ADD962R,0.0678X0.0000*%
%ADD963R,0.0677X0.0000*%
%ADD964R,0.0676X0.0001*%
%ADD965R,0.0675X0.0000*%
%ADD966R,0.0674X0.0001*%
%ADD967R,0.0673X0.0000*%
%ADD968R,0.0672X0.0000*%
%ADD969R,0.0671X0.0001*%
%ADD970R,0.0670X0.0000*%
%ADD971R,0.0669X0.0001*%
%ADD972R,0.0668X0.0000*%
%ADD973R,0.0667X0.0000*%
%ADD974R,0.0666X0.0001*%
%ADD975R,0.0665X0.0000*%
%ADD976R,0.0664X0.0001*%
%ADD977R,0.0663X0.0000*%
%ADD978R,0.0662X0.0000*%
%ADD979R,0.0661X0.0001*%
%ADD980R,0.0660X0.0000*%
%ADD981R,0.0659X0.0001*%
%ADD982R,0.0658X0.0000*%
%ADD983R,0.0657X0.0000*%
%ADD984R,0.0655X0.0001*%
%ADD985R,0.0655X0.0000*%
%ADD986R,0.0653X0.0001*%
%ADD987R,0.0653X0.0000*%
%ADD988R,0.0652X0.0000*%
%ADD989R,0.0650X0.0001*%
%ADD990R,0.0650X0.0000*%
%ADD991R,0.0648X0.0001*%
%ADD992R,0.0648X0.0000*%
%ADD993R,0.0647X0.0000*%
%ADD994R,0.0645X0.0001*%
%ADD995R,0.0645X0.0000*%
%ADD996R,0.0643X0.0001*%
%ADD997R,0.0642X0.0000*%
%ADD998R,0.0641X0.0000*%
%ADD999R,0.0640X0.0001*%
%ADD1000R,0.0639X0.0000*%
%ADD1001R,0.0638X0.0001*%
%ADD1002R,0.0637X0.0000*%
%ADD1003R,0.0636X0.0000*%
%ADD1004R,0.0635X0.0001*%
%ADD1005R,0.0634X0.0000*%
%ADD1006R,0.0633X0.0001*%
%ADD1007R,0.0632X0.0000*%
%ADD1008R,0.0631X0.0000*%
%ADD1009R,0.0630X0.0001*%
%ADD1010R,0.0629X0.0000*%
%ADD1011R,0.0628X0.0001*%
%ADD1012R,0.0627X0.0000*%
%ADD1013R,0.0626X0.0000*%
%ADD1014R,0.0625X0.0001*%
%ADD1015R,0.0624X0.0000*%
%ADD1016R,0.0623X0.0001*%
%ADD1017R,0.0622X0.0000*%
%ADD1018R,0.0621X0.0000*%
%ADD1019R,0.0620X0.0001*%
%ADD1020R,0.0619X0.0000*%
%ADD1021R,0.0618X0.0001*%
%ADD1022R,0.0617X0.0000*%
%ADD1023R,0.0616X0.0000*%
%ADD1024R,0.0615X0.0001*%
%ADD1025R,0.0614X0.0000*%
%ADD1026R,0.0613X0.0001*%
%ADD1027R,0.0612X0.0000*%
%ADD1028R,0.0611X0.0000*%
%ADD1029R,0.0610X0.0001*%
%ADD1030R,0.0609X0.0000*%
%ADD1031R,0.0607X0.0001*%
%ADD1032R,0.0607X0.0000*%
%ADD1033R,0.0605X0.0000*%
%ADD1034R,0.0605X0.0001*%
%ADD1035R,0.0603X0.0000*%
%ADD1036R,0.0602X0.0001*%
%ADD1037R,0.0602X0.0000*%
%ADD1038R,0.0600X0.0000*%
%ADD1039R,0.0600X0.0001*%
%ADD1040R,0.0598X0.0000*%
%ADD1041R,0.0597X0.0001*%
%ADD1042R,0.0597X0.0000*%
%ADD1043R,0.0595X0.0000*%
%ADD1044R,0.0595X0.0001*%
%ADD1045R,0.0593X0.0000*%
%ADD1046R,0.0592X0.0001*%
%ADD1047R,0.0591X0.0000*%
%ADD1048R,0.0590X0.0000*%
%ADD1049R,0.0589X0.0001*%
%ADD1050R,0.0588X0.0000*%
%ADD1051R,0.0587X0.0001*%
%ADD1052R,0.0586X0.0000*%
%ADD1053R,0.0585X0.0000*%
%ADD1054R,0.0584X0.0001*%
%ADD1055R,0.0583X0.0000*%
%ADD1056R,0.0582X0.0001*%
%ADD1057R,0.0581X0.0000*%
%ADD1058R,0.0580X0.0000*%
%ADD1059R,0.0579X0.0001*%
%ADD1060R,0.0578X0.0000*%
%ADD1061R,0.0577X0.0001*%
%ADD1062R,0.0576X0.0000*%
%ADD1063R,0.0575X0.0000*%
%ADD1064R,0.0574X0.0001*%
%ADD1065R,0.0573X0.0000*%
%ADD1066R,0.0571X0.0001*%
%ADD1067R,0.0568X0.0000*%
%ADD1068R,0.0565X0.0000*%
%ADD1069R,0.0563X0.0001*%
%ADD1070R,0.0560X0.0000*%
%ADD1071R,0.0557X0.0001*%
%ADD1072R,0.0554X0.0000*%
%ADD1073R,0.0551X0.0000*%
%ADD1074R,0.0548X0.0001*%
%ADD1075R,0.0545X0.0000*%
%ADD1076R,0.0542X0.0001*%
%ADD1077R,0.0537X0.0000*%
%ADD1078R,0.0533X0.0000*%
%ADD1079R,0.0530X0.0001*%
%ADD1080R,0.0526X0.0000*%
%ADD1081R,0.0522X0.0001*%
%ADD1082R,0.0518X0.0000*%
%ADD1083R,0.0513X0.0000*%
%ADD1084R,0.0508X0.0001*%
%ADD1085R,0.0503X0.0000*%
%ADD1086R,0.0496X0.0001*%
%ADD1087R,0.0489X0.0000*%
%ADD1088R,0.0477X0.0000*%
%ADD1089C,0.0000*%
%ADD1090C,0.0050*%
D10*
X003165Y001148D02*
X003391Y001148D01*
X003278Y001148D02*
X003278Y001488D01*
X003165Y001374D01*
X003665Y001898D02*
X003665Y002238D01*
X003835Y002238D01*
X003891Y002181D01*
X003891Y002068D01*
X003835Y002011D01*
X003665Y002011D01*
X003778Y002011D02*
X003891Y001898D01*
X004221Y001488D02*
X004335Y001488D01*
X004391Y001431D01*
X004165Y001204D01*
X004221Y001148D01*
X004335Y001148D01*
X004391Y001204D01*
X004391Y001431D01*
X004221Y001488D02*
X004165Y001431D01*
X004165Y001204D01*
X005165Y001204D02*
X005221Y001148D01*
X005335Y001148D01*
X005391Y001204D01*
X005391Y001318D01*
X005335Y001374D01*
X005278Y001374D01*
X005165Y001318D01*
X005165Y001488D01*
X005391Y001488D01*
X006165Y001318D02*
X006391Y001318D01*
X006335Y001488D02*
X006165Y001318D01*
X006335Y001148D02*
X006335Y001488D01*
X006977Y001898D02*
X006977Y002238D01*
X007147Y002238D01*
X007204Y002181D01*
X007204Y002068D01*
X007147Y002011D01*
X006977Y002011D01*
X007345Y001954D02*
X007345Y002181D01*
X007402Y002238D01*
X007515Y002238D01*
X007572Y002181D01*
X007572Y001954D01*
X007515Y001898D01*
X007402Y001898D01*
X007345Y001954D01*
X007714Y001898D02*
X007714Y002238D01*
X007884Y002238D01*
X007941Y002181D01*
X007941Y002068D01*
X007884Y002011D01*
X007714Y002011D01*
X007827Y002011D02*
X007941Y001898D01*
X008195Y001898D02*
X008195Y002238D01*
X008082Y002238D02*
X008309Y002238D01*
X008450Y002238D02*
X008620Y002238D01*
X008677Y002181D01*
X008677Y001954D01*
X008620Y001898D01*
X008450Y001898D01*
X008450Y002238D01*
X007974Y002960D02*
X006045Y002960D01*
X006045Y004500D01*
X007974Y004500D01*
X007974Y002960D01*
X010192Y002863D02*
X012812Y002863D01*
X012952Y003002D01*
X012952Y005622D01*
X010192Y005622D01*
X010192Y002863D01*
X012511Y003163D02*
X012513Y003186D01*
X012519Y003209D01*
X012528Y003230D01*
X012541Y003250D01*
X012557Y003267D01*
X012575Y003281D01*
X012595Y003292D01*
X012617Y003300D01*
X012640Y003304D01*
X012664Y003304D01*
X012687Y003300D01*
X012709Y003292D01*
X012729Y003281D01*
X012747Y003267D01*
X012763Y003250D01*
X012776Y003230D01*
X012785Y003209D01*
X012791Y003186D01*
X012793Y003163D01*
X012791Y003140D01*
X012785Y003117D01*
X012776Y003096D01*
X012763Y003076D01*
X012747Y003059D01*
X012729Y003045D01*
X012709Y003034D01*
X012687Y003026D01*
X012664Y003022D01*
X012640Y003022D01*
X012617Y003026D01*
X012595Y003034D01*
X012575Y003045D01*
X012557Y003059D01*
X012541Y003076D01*
X012528Y003096D01*
X012519Y003117D01*
X012513Y003140D01*
X012511Y003163D01*
X014040Y002238D02*
X014210Y002238D01*
X014266Y002181D01*
X014266Y002068D01*
X014210Y002011D01*
X014040Y002011D01*
X014040Y001898D02*
X014040Y002238D01*
X014408Y002181D02*
X014408Y001954D01*
X014465Y001898D01*
X014578Y001898D01*
X014635Y001954D01*
X014635Y002181D01*
X014578Y002238D01*
X014465Y002238D01*
X014408Y002181D01*
X014776Y002238D02*
X014946Y002238D01*
X015003Y002181D01*
X015003Y002068D01*
X014946Y002011D01*
X014776Y002011D01*
X014776Y001898D02*
X014776Y002238D01*
X015144Y002238D02*
X015371Y002238D01*
X015258Y002238D02*
X015258Y001898D01*
X015513Y001898D02*
X015513Y002124D01*
X015626Y002238D01*
X015740Y002124D01*
X015740Y001898D01*
X015740Y002068D02*
X015513Y002068D01*
X015003Y001898D02*
X014890Y002011D01*
X015284Y001488D02*
X015397Y001488D01*
X015454Y001431D01*
X015454Y001374D01*
X015397Y001318D01*
X015454Y001261D01*
X015454Y001204D01*
X015397Y001148D01*
X015284Y001148D01*
X015227Y001204D01*
X015340Y001318D02*
X015397Y001318D01*
X015227Y001431D02*
X015284Y001488D01*
X014454Y001318D02*
X014227Y001318D01*
X014397Y001488D01*
X014397Y001148D01*
X013454Y001204D02*
X013397Y001148D01*
X013284Y001148D01*
X013227Y001204D01*
X013227Y001318D02*
X013340Y001374D01*
X013397Y001374D01*
X013454Y001318D01*
X013454Y001204D01*
X013227Y001318D02*
X013227Y001488D01*
X013454Y001488D01*
X012454Y001488D02*
X012340Y001431D01*
X012227Y001318D01*
X012397Y001318D01*
X012454Y001261D01*
X012454Y001204D01*
X012397Y001148D01*
X012284Y001148D01*
X012227Y001204D01*
X012227Y001318D01*
X011454Y001431D02*
X011227Y001204D01*
X011227Y001148D01*
X011227Y001488D02*
X011454Y001488D01*
X011454Y001431D01*
X010391Y001431D02*
X010391Y001204D01*
X010335Y001148D01*
X010221Y001148D01*
X010165Y001204D01*
X010391Y001431D01*
X010335Y001488D01*
X010221Y001488D01*
X010165Y001431D01*
X010165Y001204D01*
X009391Y001148D02*
X009165Y001148D01*
X009278Y001148D02*
X009278Y001488D01*
X009165Y001374D01*
X008391Y001374D02*
X008391Y001431D01*
X008335Y001488D01*
X008221Y001488D01*
X008165Y001431D01*
X008391Y001374D02*
X008165Y001148D01*
X008391Y001148D01*
X007391Y001204D02*
X007335Y001148D01*
X007221Y001148D01*
X007165Y001204D01*
X007335Y001318D02*
X007391Y001261D01*
X007391Y001204D01*
X007335Y001318D02*
X007278Y001318D01*
X007335Y001318D02*
X007391Y001374D01*
X007391Y001431D01*
X007335Y001488D01*
X007221Y001488D01*
X007165Y001431D01*
X014102Y006135D02*
X014102Y006475D01*
X014272Y006475D01*
X014329Y006419D01*
X014329Y006305D01*
X014272Y006248D01*
X014102Y006248D01*
X014470Y006192D02*
X014470Y006419D01*
X014527Y006475D01*
X014640Y006475D01*
X014697Y006419D01*
X014697Y006192D01*
X014640Y006135D01*
X014527Y006135D01*
X014470Y006192D01*
X014839Y006248D02*
X015009Y006248D01*
X015066Y006305D01*
X015066Y006419D01*
X015009Y006475D01*
X014839Y006475D01*
X014839Y006135D01*
X014952Y006248D02*
X015066Y006135D01*
X015320Y006135D02*
X015320Y006475D01*
X015207Y006475D02*
X015434Y006475D01*
X015575Y006419D02*
X015575Y006192D01*
X015632Y006135D01*
X015745Y006135D01*
X015802Y006192D01*
X015802Y006419D02*
X015745Y006475D01*
X015632Y006475D01*
X015575Y006419D01*
X015272Y006898D02*
X015272Y007238D01*
X015102Y007068D01*
X015329Y007068D01*
X016165Y007068D02*
X016278Y007124D01*
X016335Y007124D01*
X016391Y007068D01*
X016391Y006954D01*
X016335Y006898D01*
X016221Y006898D01*
X016165Y006954D01*
X016165Y007068D02*
X016165Y007238D01*
X016391Y007238D01*
X017102Y007068D02*
X017102Y006954D01*
X017159Y006898D01*
X017272Y006898D01*
X017329Y006954D01*
X017329Y007011D01*
X017272Y007068D01*
X017102Y007068D01*
X017215Y007181D01*
X017329Y007238D01*
X018165Y007238D02*
X018391Y007238D01*
X018391Y007181D01*
X018165Y006954D01*
X018165Y006898D01*
X014329Y006954D02*
X014272Y006898D01*
X014159Y006898D01*
X014102Y006954D01*
X014215Y007068D02*
X014272Y007068D01*
X014329Y007011D01*
X014329Y006954D01*
X014272Y007068D02*
X014329Y007124D01*
X014329Y007181D01*
X014272Y007238D01*
X014159Y007238D01*
X014102Y007181D01*
X013391Y007181D02*
X013335Y007238D01*
X013221Y007238D01*
X013165Y007181D01*
X013391Y007181D02*
X013391Y007124D01*
X013165Y006898D01*
X013391Y006898D01*
X012391Y006898D02*
X012165Y006898D01*
X012278Y006898D02*
X012278Y007238D01*
X012165Y007124D01*
X011391Y007181D02*
X011391Y006954D01*
X011335Y006898D01*
X011221Y006898D01*
X011165Y006954D01*
X011391Y007181D01*
X011335Y007238D01*
X011221Y007238D01*
X011165Y007181D01*
X011165Y006954D01*
X009753Y006954D02*
X009753Y007181D01*
X009696Y007238D01*
X009526Y007238D01*
X009526Y006898D01*
X009696Y006898D01*
X009753Y006954D01*
X009385Y006898D02*
X009385Y007238D01*
X009158Y007238D02*
X009385Y006898D01*
X009158Y006898D02*
X009158Y007238D01*
X009016Y007181D02*
X008960Y007238D01*
X008846Y007238D01*
X008790Y007181D01*
X008790Y006954D01*
X008846Y006898D01*
X008960Y006898D01*
X009016Y006954D01*
X009016Y007068D01*
X008903Y007068D01*
X007253Y007124D02*
X007196Y007068D01*
X007253Y007011D01*
X007253Y006954D01*
X007196Y006898D01*
X007083Y006898D01*
X007026Y006954D01*
X006885Y007011D02*
X006885Y007238D01*
X007026Y007181D02*
X007083Y007238D01*
X007196Y007238D01*
X007253Y007181D01*
X007253Y007124D01*
X007196Y007068D02*
X007140Y007068D01*
X006885Y007011D02*
X006771Y006898D01*
X006658Y007011D01*
X006658Y007238D01*
X006516Y007181D02*
X006516Y007124D01*
X006460Y007068D01*
X006516Y007011D01*
X006516Y006954D01*
X006460Y006898D01*
X006346Y006898D01*
X006290Y006954D01*
X006403Y007068D02*
X006460Y007068D01*
X006516Y007181D02*
X006460Y007238D01*
X006346Y007238D01*
X006290Y007181D01*
X004753Y007181D02*
X004753Y006954D01*
X004696Y006898D01*
X004583Y006898D01*
X004526Y006954D01*
X004753Y007181D01*
X004696Y007238D01*
X004583Y007238D01*
X004526Y007181D01*
X004526Y006954D01*
X004385Y007011D02*
X004385Y007238D01*
X004158Y007238D02*
X004158Y007011D01*
X004271Y006898D01*
X004385Y007011D01*
X004016Y007068D02*
X004016Y006954D01*
X003960Y006898D01*
X003846Y006898D01*
X003790Y006954D01*
X003790Y007068D02*
X003903Y007124D01*
X003960Y007124D01*
X004016Y007068D01*
X003790Y007068D02*
X003790Y007238D01*
X004016Y007238D01*
X016227Y001431D02*
X016284Y001488D01*
X016397Y001488D01*
X016454Y001431D01*
X016454Y001374D01*
X016227Y001148D01*
X016454Y001148D01*
X017227Y001148D02*
X017454Y001148D01*
X017340Y001148D02*
X017340Y001488D01*
X017227Y001374D01*
X018227Y001431D02*
X018227Y001204D01*
X018454Y001431D01*
X018454Y001204D01*
X018397Y001148D01*
X018284Y001148D01*
X018227Y001204D01*
X018227Y001431D02*
X018284Y001488D01*
X018397Y001488D01*
X018454Y001431D01*
D11*
X018322Y001618D02*
X018322Y001743D01*
X011322Y001743D01*
X011322Y001618D01*
X010260Y001618D02*
X010260Y001743D01*
X005260Y001743D01*
X005260Y001618D01*
X004260Y001618D02*
X004260Y001743D01*
X003260Y001743D01*
X003260Y001618D01*
X011260Y006618D02*
X011260Y006743D01*
X011260Y006618D02*
X018260Y006618D01*
X018260Y006743D01*
X010322Y006993D02*
X010322Y007180D01*
X010322Y006993D02*
X009947Y006993D01*
X008572Y006993D02*
X008197Y006993D01*
X008197Y007180D01*
X007447Y007243D02*
X007447Y006993D01*
X007385Y006993D01*
X006135Y006993D02*
X006072Y006993D01*
X006072Y007243D01*
X005322Y007243D02*
X005322Y007055D01*
X004885Y007055D01*
X003635Y007055D02*
X003260Y007055D01*
X003260Y007243D01*
D12*
X004265Y005653D02*
X004230Y005618D01*
X004230Y005478D01*
X004265Y005443D01*
X004335Y005443D01*
X004370Y005478D01*
X004460Y005478D02*
X004495Y005443D01*
X004565Y005443D01*
X004600Y005478D01*
X004600Y005513D01*
X004565Y005548D01*
X004530Y005548D01*
X004565Y005548D02*
X004600Y005583D01*
X004600Y005618D01*
X004565Y005653D01*
X004495Y005653D01*
X004460Y005618D01*
X004370Y005618D02*
X004335Y005653D01*
X004265Y005653D01*
X005304Y005431D02*
X005304Y005291D01*
X005515Y005291D01*
X005515Y005431D01*
X005409Y005361D02*
X005409Y005291D01*
X005444Y005201D02*
X005479Y005201D01*
X005515Y005165D01*
X005515Y005095D01*
X005479Y005060D01*
X005409Y005095D02*
X005374Y005060D01*
X005339Y005060D01*
X005304Y005095D01*
X005304Y005165D01*
X005339Y005201D01*
X005409Y005165D02*
X005409Y005095D01*
X005409Y005165D02*
X005444Y005201D01*
X005479Y004970D02*
X005304Y004970D01*
X005479Y004970D02*
X005515Y004935D01*
X005515Y004865D01*
X005479Y004830D01*
X005304Y004830D01*
X005304Y004740D02*
X005304Y004600D01*
X005515Y004600D01*
X005409Y004600D02*
X005409Y004670D01*
X005490Y004324D02*
X005490Y004191D01*
X005490Y004258D02*
X005289Y004258D01*
X005356Y004191D01*
X005323Y004103D02*
X005389Y004103D01*
X005423Y004070D01*
X005423Y003970D01*
X005490Y003970D02*
X005289Y003970D01*
X005289Y004070D01*
X005323Y004103D01*
X005423Y004037D02*
X005490Y004103D01*
X005490Y003237D02*
X005490Y003103D01*
X005356Y003237D01*
X005323Y003237D01*
X005289Y003204D01*
X005289Y003137D01*
X005323Y003103D01*
X005323Y003016D02*
X005389Y003016D01*
X005423Y002983D01*
X005423Y002883D01*
X005423Y002949D02*
X005490Y003016D01*
X005490Y002883D02*
X005289Y002883D01*
X005289Y002983D01*
X005323Y003016D01*
X005278Y002173D02*
X005211Y002173D01*
X005178Y002139D01*
X005178Y002006D01*
X005211Y001973D01*
X005278Y001973D01*
X005311Y002006D01*
X005399Y001973D02*
X005532Y001973D01*
X005465Y001973D02*
X005465Y002173D01*
X005399Y002106D01*
X005311Y002139D02*
X005278Y002173D01*
X008180Y004408D02*
X008213Y004375D01*
X008280Y004375D01*
X008313Y004408D01*
X008401Y004408D02*
X008401Y004375D01*
X008401Y004408D02*
X008534Y004542D01*
X008534Y004575D01*
X008401Y004575D01*
X008313Y004542D02*
X008280Y004575D01*
X008213Y004575D01*
X008180Y004542D01*
X008180Y004408D01*
X008084Y005400D02*
X007951Y005400D01*
X008084Y005533D01*
X008084Y005567D01*
X008051Y005600D01*
X007984Y005600D01*
X007951Y005567D01*
X007863Y005567D02*
X007830Y005600D01*
X007763Y005600D01*
X007730Y005567D01*
X007730Y005433D01*
X007763Y005400D01*
X007830Y005400D01*
X007863Y005433D01*
X007769Y006075D02*
X007635Y006075D01*
X007602Y006108D01*
X007602Y006175D01*
X007635Y006208D01*
X007702Y006296D02*
X007702Y006429D01*
X007802Y006396D02*
X007602Y006396D01*
X007702Y006296D01*
X007769Y006208D02*
X007802Y006175D01*
X007802Y006108D01*
X007769Y006075D01*
X008963Y006089D02*
X009063Y006089D01*
X009096Y006123D01*
X009096Y006189D01*
X009063Y006223D01*
X008963Y006223D01*
X008963Y006023D01*
X009029Y006089D02*
X009096Y006023D01*
X009184Y006056D02*
X009217Y006023D01*
X009284Y006023D01*
X009317Y006056D01*
X009317Y006089D01*
X009284Y006123D01*
X009184Y006123D01*
X009184Y006056D01*
X009184Y006123D02*
X009250Y006189D01*
X009317Y006223D01*
X010280Y006546D02*
X010313Y006513D01*
X010380Y006513D01*
X010413Y006546D01*
X010501Y006546D02*
X010501Y006579D01*
X010534Y006613D01*
X010601Y006613D01*
X010634Y006579D01*
X010634Y006546D01*
X010601Y006513D01*
X010534Y006513D01*
X010501Y006546D01*
X010534Y006613D02*
X010501Y006646D01*
X010501Y006679D01*
X010534Y006713D01*
X010601Y006713D01*
X010634Y006679D01*
X010634Y006646D01*
X010601Y006613D01*
X010413Y006679D02*
X010380Y006713D01*
X010313Y006713D01*
X010280Y006679D01*
X010280Y006546D01*
X013612Y004502D02*
X013645Y004502D01*
X013779Y004368D01*
X013812Y004368D01*
X013812Y004281D02*
X013745Y004214D01*
X013745Y004248D02*
X013745Y004148D01*
X013812Y004148D02*
X013612Y004148D01*
X013612Y004248D01*
X013645Y004281D01*
X013712Y004281D01*
X013745Y004248D01*
X013612Y004368D02*
X013612Y004502D01*
X015380Y004900D02*
X015513Y004900D01*
X015601Y004900D02*
X015734Y005033D01*
X015734Y005067D01*
X015701Y005100D01*
X015634Y005100D01*
X015601Y005067D01*
X015380Y005100D02*
X015380Y004900D01*
X015601Y004900D02*
X015734Y004900D01*
X015346Y005785D02*
X015379Y005818D01*
X015379Y005852D01*
X015346Y005885D01*
X015246Y005885D01*
X015246Y005818D01*
X015279Y005785D01*
X015346Y005785D01*
X015246Y005885D02*
X015313Y005952D01*
X015379Y005985D01*
X015158Y005952D02*
X015125Y005985D01*
X015058Y005985D01*
X015025Y005952D01*
X015025Y005818D01*
X015058Y005785D01*
X015125Y005785D01*
X015158Y005818D01*
X017605Y005788D02*
X017605Y005988D01*
X017705Y005988D01*
X017738Y005954D01*
X017738Y005888D01*
X017705Y005854D01*
X017605Y005854D01*
X017671Y005854D02*
X017738Y005788D01*
X017826Y005888D02*
X017959Y005888D01*
X017926Y005788D02*
X017926Y005988D01*
X017826Y005888D01*
X018709Y006630D02*
X018842Y006697D01*
X018709Y006763D01*
X018709Y006851D02*
X018642Y006918D01*
X018842Y006918D01*
X018842Y006984D02*
X018842Y006851D01*
X018842Y007072D02*
X018842Y007105D01*
X018809Y007105D01*
X018809Y007072D01*
X018842Y007072D01*
X018809Y007182D02*
X018675Y007182D01*
X018642Y007216D01*
X018642Y007283D01*
X018675Y007316D01*
X018809Y007182D01*
X018842Y007216D01*
X018842Y007283D01*
X018809Y007316D01*
X018675Y007316D01*
X013355Y002863D02*
X013355Y002663D01*
X013421Y002663D02*
X013288Y002663D01*
X013200Y002663D02*
X013067Y002663D01*
X013067Y002863D01*
X013288Y002796D02*
X013355Y002863D01*
X013259Y002463D02*
X013126Y002463D01*
X013126Y002363D01*
X013192Y002396D01*
X013226Y002396D01*
X013259Y002363D01*
X013259Y002296D01*
X013226Y002263D01*
X013159Y002263D01*
X013126Y002296D01*
X013038Y002296D02*
X013005Y002263D01*
X012938Y002263D01*
X012905Y002296D01*
X012905Y002429D01*
X012938Y002463D01*
X013005Y002463D01*
X013038Y002429D01*
X016080Y002400D02*
X016080Y002200D01*
X016080Y002267D02*
X016180Y002267D01*
X016213Y002300D01*
X016213Y002367D01*
X016180Y002400D01*
X016080Y002400D01*
X016146Y002267D02*
X016213Y002200D01*
X016301Y002233D02*
X016334Y002200D01*
X016401Y002200D01*
X016434Y002233D01*
X016434Y002267D01*
X016401Y002300D01*
X016334Y002300D01*
X016301Y002333D01*
X016301Y002367D01*
X016334Y002400D01*
X016401Y002400D01*
X016434Y002367D01*
X016521Y002400D02*
X016655Y002400D01*
X016588Y002400D02*
X016588Y002200D01*
X018205Y002188D02*
X018205Y002388D01*
X018305Y002388D01*
X018338Y002354D01*
X018338Y002288D01*
X018305Y002254D01*
X018205Y002254D01*
X018271Y002254D02*
X018338Y002188D01*
X018426Y002221D02*
X018459Y002188D01*
X018526Y002188D01*
X018559Y002221D01*
X018559Y002254D01*
X018526Y002288D01*
X018492Y002288D01*
X018526Y002288D02*
X018559Y002321D01*
X018559Y002354D01*
X018526Y002388D01*
X018459Y002388D01*
X018426Y002354D01*
D13*
X007860Y005280D03*
D14*
X005760Y004350D03*
X005760Y003050D03*
X013960Y005030D03*
D15*
X014410Y005868D02*
X014410Y005892D01*
X010022Y006305D02*
X009998Y006305D01*
X008084Y006243D02*
X008060Y006243D01*
X007072Y005405D02*
X007072Y005380D01*
X005059Y005143D02*
X005035Y005143D01*
X008298Y003780D02*
X008322Y003780D01*
X006135Y002020D02*
X006135Y001995D01*
X013072Y002005D02*
X013072Y001980D01*
D16*
X015344Y002835D02*
X015344Y003150D01*
X015527Y003504D02*
X016346Y003504D01*
X016760Y003430D02*
X017010Y003680D01*
X016760Y003930D01*
X016760Y004430D01*
X017010Y004680D01*
X016760Y004930D01*
X016760Y005430D01*
X017010Y005680D01*
X017510Y005680D01*
X017760Y005430D01*
X018010Y005680D01*
X018510Y005680D01*
X018760Y005430D01*
X018760Y004930D01*
X018510Y004680D01*
X018760Y004430D01*
X018760Y003930D01*
X018510Y003680D01*
X018760Y003430D01*
X018760Y002930D01*
X018510Y002680D01*
X018010Y002680D01*
X017760Y002930D01*
X017510Y002680D01*
X017010Y002680D01*
X016760Y002930D01*
X016760Y003430D01*
X016525Y003150D02*
X016525Y002835D01*
X016346Y002481D02*
X015527Y002481D01*
X015185Y003729D02*
X014870Y003729D01*
X015185Y003729D02*
X015185Y003965D01*
X015185Y004595D02*
X015185Y004831D01*
X014870Y004831D01*
X016560Y004930D02*
X016560Y005430D01*
X016493Y006049D02*
X016493Y006230D01*
X016615Y006322D01*
X016493Y006411D02*
X016493Y006230D01*
X016499Y006220D02*
X016615Y006144D01*
X017260Y004680D02*
X018260Y004680D01*
X018260Y003680D02*
X017260Y003680D01*
X009252Y005657D02*
X009136Y005733D01*
X009130Y005743D02*
X009252Y005835D01*
X009130Y005924D02*
X009130Y005743D01*
X009130Y005561D01*
X007264Y006137D02*
X007264Y006348D01*
X007114Y006803D02*
X006775Y006803D01*
X005994Y006557D02*
X005836Y006715D01*
X005403Y006715D01*
X005994Y006557D02*
X005994Y005928D01*
X005836Y005770D01*
X005403Y005770D01*
X004616Y005770D02*
X004025Y005770D01*
X004025Y006715D01*
X004616Y006715D01*
X006775Y005683D02*
X007114Y005683D01*
X004069Y005519D02*
X004069Y002841D01*
X003939Y002841D01*
X002876Y002841D02*
X002876Y005519D01*
X003939Y005519D02*
X004069Y005519D01*
D17*
X009135Y006555D03*
X017560Y002230D03*
X017760Y006230D03*
D18*
X015620Y002993D02*
X015622Y003028D01*
X015628Y003063D01*
X015638Y003097D01*
X015651Y003130D01*
X015668Y003161D01*
X015689Y003189D01*
X015712Y003216D01*
X015739Y003239D01*
X015767Y003260D01*
X015798Y003277D01*
X015831Y003290D01*
X015865Y003300D01*
X015900Y003306D01*
X015935Y003308D01*
X015970Y003306D01*
X016005Y003300D01*
X016039Y003290D01*
X016072Y003277D01*
X016103Y003260D01*
X016131Y003239D01*
X016158Y003216D01*
X016181Y003189D01*
X016202Y003161D01*
X016219Y003130D01*
X016232Y003097D01*
X016242Y003063D01*
X016248Y003028D01*
X016250Y002993D01*
X016248Y002958D01*
X016242Y002923D01*
X016232Y002889D01*
X016219Y002856D01*
X016202Y002825D01*
X016181Y002797D01*
X016158Y002770D01*
X016131Y002747D01*
X016103Y002726D01*
X016072Y002709D01*
X016039Y002696D01*
X016005Y002686D01*
X015970Y002680D01*
X015935Y002678D01*
X015900Y002680D01*
X015865Y002686D01*
X015831Y002696D01*
X015798Y002709D01*
X015767Y002726D01*
X015739Y002747D01*
X015712Y002770D01*
X015689Y002797D01*
X015668Y002825D01*
X015651Y002856D01*
X015638Y002889D01*
X015628Y002923D01*
X015622Y002958D01*
X015620Y002993D01*
D19*
X008776Y002355D03*
D20*
X009393Y002355D03*
D21*
X009393Y002355D03*
X008776Y002355D03*
D22*
X008776Y002356D03*
D23*
X009393Y002356D03*
D24*
X008776Y002356D03*
D25*
X009393Y002356D03*
X009393Y002606D03*
D26*
X009393Y002357D03*
X008776Y002357D03*
D27*
X008776Y002358D03*
D28*
X009393Y002358D03*
D29*
X009393Y002358D03*
X008776Y002358D03*
D30*
X008776Y002359D03*
X009393Y002359D03*
D31*
X009393Y002359D03*
X009393Y002604D03*
X008776Y002359D03*
D32*
X008776Y002359D03*
X009393Y002359D03*
D33*
X008776Y002360D03*
D34*
X009393Y002360D03*
D35*
X008776Y002360D03*
D36*
X009393Y002360D03*
D37*
X008776Y002361D03*
D38*
X009393Y002361D03*
D39*
X009393Y002361D03*
X009393Y002601D03*
X008776Y002361D03*
D40*
X008776Y002362D03*
X009393Y002362D03*
D41*
X009393Y002363D03*
X008776Y002363D03*
D42*
X008776Y002363D03*
D43*
X009393Y002363D03*
D44*
X008776Y002364D03*
D45*
X009393Y002364D03*
D46*
X009393Y002364D03*
X008776Y002364D03*
D47*
X008776Y002364D03*
D48*
X009393Y002364D03*
D49*
X008776Y002365D03*
D50*
X009393Y002365D03*
D51*
X008776Y002365D03*
D52*
X008776Y002594D03*
X009393Y002365D03*
D53*
X008776Y002366D03*
X008776Y002594D03*
D54*
X009393Y002366D03*
D55*
X008776Y002366D03*
D56*
X009393Y002366D03*
X009393Y002596D03*
D57*
X008776Y002593D03*
X008776Y002367D03*
D58*
X009393Y002367D03*
D59*
X009393Y002368D03*
X009393Y002595D03*
X008776Y002368D03*
D60*
X008776Y002368D03*
D61*
X008776Y002592D03*
X009393Y002368D03*
D62*
X009393Y002369D03*
X008776Y002369D03*
X008776Y002591D03*
D63*
X008776Y002369D03*
D64*
X009393Y002369D03*
X009393Y002594D03*
D65*
X009393Y002593D03*
X009393Y002369D03*
X008776Y002369D03*
D66*
X008776Y002370D03*
D67*
X008776Y002590D03*
X009393Y002594D03*
X009393Y002370D03*
D68*
X008776Y002370D03*
D69*
X009393Y002370D03*
X009393Y002592D03*
D70*
X008776Y002589D03*
X008776Y002371D03*
D71*
X009393Y002371D03*
X009393Y002593D03*
D72*
X008776Y002588D03*
X008776Y002373D03*
X008776Y002371D03*
D73*
X008776Y002589D03*
X009393Y002591D03*
X009393Y002371D03*
D74*
X008776Y002372D03*
X008776Y002588D03*
D75*
X009393Y002590D03*
X009393Y002372D03*
D76*
X009393Y002373D03*
X009393Y002591D03*
D77*
X008776Y002587D03*
X008776Y002373D03*
D78*
X009393Y002373D03*
D79*
X009393Y002374D03*
X009393Y002374D03*
X009393Y002589D03*
X009393Y002589D03*
X008776Y002586D03*
X008776Y002586D03*
X008776Y002374D03*
X008776Y002374D03*
D80*
X008776Y002374D03*
D81*
X008776Y002585D03*
X009393Y002589D03*
X009393Y002374D03*
D82*
X008776Y002375D03*
X008776Y002585D03*
D83*
X009393Y002375D03*
D84*
X009393Y002375D03*
X009393Y002377D03*
X009393Y002585D03*
X009393Y002587D03*
X008776Y002584D03*
X008776Y002583D03*
X008776Y002377D03*
X008776Y002375D03*
D85*
X008776Y002376D03*
X008776Y002376D03*
X008776Y002583D03*
X008776Y002584D03*
X008776Y002584D03*
X009393Y002586D03*
X009393Y002586D03*
X009393Y002588D03*
X009393Y002378D03*
X009393Y002376D03*
X009393Y002376D03*
D86*
X008776Y002378D03*
X008776Y002379D03*
X008776Y002379D03*
X008776Y002380D03*
X008776Y002381D03*
X008776Y002381D03*
X008776Y002383D03*
X008776Y002384D03*
X008776Y002384D03*
X008776Y002385D03*
X008776Y002386D03*
X008776Y002386D03*
X008776Y002388D03*
X008776Y002389D03*
X008776Y002389D03*
X008776Y002390D03*
X008776Y002391D03*
X008776Y002391D03*
X008776Y002393D03*
X008776Y002394D03*
X008776Y002394D03*
X008776Y002395D03*
X008776Y002396D03*
X008776Y002396D03*
X008776Y002398D03*
X008776Y002399D03*
X008776Y002399D03*
X008776Y002400D03*
X008776Y002401D03*
X008776Y002401D03*
X008776Y002403D03*
X008776Y002404D03*
X008776Y002404D03*
X008776Y002405D03*
X008776Y002406D03*
X008776Y002406D03*
X008776Y002408D03*
X008776Y002409D03*
X008776Y002409D03*
X008776Y002410D03*
X008776Y002411D03*
X008776Y002411D03*
X008776Y002413D03*
X008776Y002414D03*
X008776Y002414D03*
X008776Y002415D03*
X008776Y002416D03*
X008776Y002416D03*
X008776Y002418D03*
X008776Y002419D03*
X008776Y002419D03*
X008776Y002420D03*
X008776Y002421D03*
X008776Y002421D03*
X008776Y002423D03*
X008776Y002424D03*
X008776Y002424D03*
X008776Y002425D03*
X008776Y002426D03*
X008776Y002426D03*
X008776Y002428D03*
X008776Y002429D03*
X008776Y002429D03*
X008776Y002430D03*
X008776Y002431D03*
X008776Y002431D03*
X008776Y002433D03*
X008776Y002434D03*
X008776Y002434D03*
X008776Y002435D03*
X008776Y002436D03*
X008776Y002436D03*
X008776Y002438D03*
X008776Y002439D03*
X008776Y002439D03*
X008776Y002440D03*
X008776Y002441D03*
X008776Y002441D03*
X008776Y002443D03*
X008776Y002444D03*
X008776Y002444D03*
X008776Y002445D03*
X008776Y002446D03*
X008776Y002446D03*
X008776Y002448D03*
X008776Y002449D03*
X008776Y002449D03*
X008776Y002450D03*
X008776Y002451D03*
X008776Y002451D03*
X008776Y002453D03*
X008776Y002454D03*
X008776Y002454D03*
X008776Y002455D03*
X008776Y002456D03*
X008776Y002456D03*
X008776Y002458D03*
X008776Y002459D03*
X008776Y002459D03*
X008776Y002460D03*
X008776Y002461D03*
X008776Y002461D03*
X008776Y002463D03*
X008776Y002464D03*
X008776Y002464D03*
X008776Y002465D03*
X008776Y002466D03*
X008776Y002466D03*
X008776Y002468D03*
X008776Y002469D03*
X008776Y002469D03*
X008776Y002470D03*
X008776Y002471D03*
X008776Y002471D03*
X008776Y002473D03*
X008776Y002474D03*
X008776Y002474D03*
X008776Y002475D03*
X008776Y002476D03*
X008776Y002476D03*
X008776Y002478D03*
X008776Y002479D03*
X008776Y002479D03*
X008776Y002480D03*
X008776Y002481D03*
X008776Y002481D03*
X008776Y002483D03*
X008776Y002484D03*
X008776Y002484D03*
X008776Y002485D03*
X008776Y002486D03*
X008776Y002486D03*
X008776Y002488D03*
X008776Y002489D03*
X008776Y002489D03*
X008776Y002490D03*
X008776Y002491D03*
X008776Y002491D03*
X008776Y002493D03*
X008776Y002494D03*
X008776Y002494D03*
X008776Y002495D03*
X008776Y002496D03*
X008776Y002496D03*
X008776Y002498D03*
X008776Y002499D03*
X008776Y002499D03*
X008776Y002500D03*
X008776Y002501D03*
X008776Y002501D03*
X008776Y002503D03*
X008776Y002504D03*
X008776Y002504D03*
X008776Y002505D03*
X008776Y002506D03*
X008776Y002506D03*
X008776Y002508D03*
X008776Y002509D03*
X008776Y002509D03*
X008776Y002510D03*
X008776Y002511D03*
X008776Y002511D03*
X008776Y002513D03*
X008776Y002514D03*
X008776Y002514D03*
X008776Y002515D03*
X008776Y002516D03*
X008776Y002516D03*
X008776Y002518D03*
X008776Y002519D03*
X008776Y002519D03*
X008776Y002520D03*
X008776Y002521D03*
X008776Y002521D03*
X008776Y002523D03*
X008776Y002524D03*
X008776Y002524D03*
X008776Y002525D03*
X008776Y002526D03*
X008776Y002526D03*
X008776Y002528D03*
X008776Y002529D03*
X008776Y002529D03*
X008776Y002530D03*
X008776Y002531D03*
X008776Y002531D03*
X008776Y002533D03*
X008776Y002534D03*
X008776Y002534D03*
X008776Y002535D03*
X008776Y002536D03*
X008776Y002536D03*
X008776Y002538D03*
X008776Y002539D03*
X008776Y002539D03*
X008776Y002540D03*
X008776Y002541D03*
X008776Y002541D03*
X008776Y002543D03*
X008776Y002544D03*
X008776Y002544D03*
X008776Y002545D03*
X008776Y002546D03*
X008776Y002546D03*
X008776Y002548D03*
X008776Y002549D03*
X008776Y002549D03*
X008776Y002550D03*
X008776Y002551D03*
X008776Y002551D03*
X008776Y002553D03*
X008776Y002554D03*
X008776Y002554D03*
X008776Y002555D03*
X008776Y002556D03*
X008776Y002556D03*
X008776Y002558D03*
X008776Y002559D03*
X008776Y002559D03*
X008776Y002560D03*
X008776Y002561D03*
X008776Y002561D03*
X008776Y002563D03*
X008776Y002564D03*
X008776Y002564D03*
X008776Y002565D03*
X008776Y002566D03*
X008776Y002566D03*
X008776Y002568D03*
X008776Y002569D03*
X008776Y002569D03*
X008776Y002570D03*
X008776Y002571D03*
X008776Y002571D03*
X008776Y002573D03*
X008776Y002574D03*
X008776Y002574D03*
X008776Y002575D03*
X008776Y002576D03*
X008776Y002576D03*
X008776Y002578D03*
X008776Y002579D03*
X008776Y002579D03*
X008776Y002580D03*
X008776Y002581D03*
X008776Y002581D03*
D87*
X008776Y002580D03*
X008776Y002579D03*
X008776Y002578D03*
X008776Y002577D03*
X008776Y002575D03*
X008776Y002574D03*
X008776Y002573D03*
X008776Y002572D03*
X008776Y002570D03*
X008776Y002569D03*
X008776Y002568D03*
X008776Y002567D03*
X008776Y002565D03*
X008776Y002564D03*
X008776Y002563D03*
X008776Y002562D03*
X008776Y002560D03*
X008776Y002559D03*
X008776Y002558D03*
X008776Y002557D03*
X008776Y002555D03*
X008776Y002554D03*
X008776Y002553D03*
X008776Y002552D03*
X008776Y002550D03*
X008776Y002549D03*
X008776Y002548D03*
X008776Y002547D03*
X008776Y002545D03*
X008776Y002544D03*
X008776Y002543D03*
X008776Y002542D03*
X008776Y002540D03*
X008776Y002539D03*
X008776Y002538D03*
X008776Y002537D03*
X008776Y002535D03*
X008776Y002534D03*
X008776Y002533D03*
X008776Y002532D03*
X008776Y002530D03*
X008776Y002529D03*
X008776Y002528D03*
X008776Y002527D03*
X008776Y002525D03*
X008776Y002524D03*
X008776Y002523D03*
X008776Y002522D03*
X008776Y002520D03*
X008776Y002519D03*
X008776Y002518D03*
X008776Y002517D03*
X008776Y002515D03*
X008776Y002514D03*
X008776Y002513D03*
X008776Y002512D03*
X008776Y002510D03*
X008776Y002509D03*
X008776Y002508D03*
X008776Y002507D03*
X008776Y002505D03*
X008776Y002504D03*
X008776Y002503D03*
X008776Y002502D03*
X008776Y002500D03*
X008776Y002499D03*
X008776Y002498D03*
X008776Y002497D03*
X008776Y002495D03*
X008776Y002494D03*
X008776Y002493D03*
X008776Y002492D03*
X008776Y002490D03*
X008776Y002489D03*
X008776Y002488D03*
X008776Y002487D03*
X008776Y002485D03*
X008776Y002484D03*
X008776Y002483D03*
X008776Y002482D03*
X008776Y002480D03*
X008776Y002479D03*
X008776Y002478D03*
X008776Y002477D03*
X008776Y002475D03*
X008776Y002474D03*
X008776Y002473D03*
X008776Y002472D03*
X008776Y002470D03*
X008776Y002469D03*
X008776Y002468D03*
X008776Y002467D03*
X008776Y002465D03*
X008776Y002464D03*
X008776Y002463D03*
X008776Y002462D03*
X008776Y002460D03*
X008776Y002459D03*
X008776Y002458D03*
X008776Y002457D03*
X008776Y002455D03*
X008776Y002454D03*
X008776Y002453D03*
X008776Y002452D03*
X008776Y002450D03*
X008776Y002449D03*
X008776Y002448D03*
X008776Y002447D03*
X008776Y002445D03*
X008776Y002444D03*
X008776Y002443D03*
X008776Y002442D03*
X008776Y002440D03*
X008776Y002439D03*
X008776Y002438D03*
X008776Y002437D03*
X008776Y002435D03*
X008776Y002434D03*
X008776Y002433D03*
X008776Y002432D03*
X008776Y002430D03*
X008776Y002429D03*
X008776Y002428D03*
X008776Y002427D03*
X008776Y002425D03*
X008776Y002424D03*
X008776Y002423D03*
X008776Y002422D03*
X008776Y002420D03*
X008776Y002419D03*
X008776Y002418D03*
X008776Y002417D03*
X008776Y002415D03*
X008776Y002414D03*
X008776Y002413D03*
X008776Y002412D03*
X008776Y002410D03*
X008776Y002409D03*
X008776Y002408D03*
X008776Y002407D03*
X008776Y002405D03*
X008776Y002404D03*
X008776Y002403D03*
X008776Y002402D03*
X008776Y002400D03*
X008776Y002399D03*
X008776Y002398D03*
X008776Y002397D03*
X008776Y002395D03*
X008776Y002394D03*
X008776Y002393D03*
X008776Y002392D03*
X008776Y002390D03*
X008776Y002389D03*
X008776Y002388D03*
X008776Y002387D03*
X008776Y002385D03*
X008776Y002384D03*
X008776Y002383D03*
X008776Y002382D03*
X008776Y002380D03*
X008776Y002379D03*
X008776Y002378D03*
X008776Y002582D03*
D88*
X009393Y002583D03*
X009393Y002582D03*
X009393Y002580D03*
X009393Y002579D03*
X009393Y002578D03*
X009393Y002577D03*
X009393Y002575D03*
X009393Y002574D03*
X009393Y002573D03*
X009393Y002572D03*
X009393Y002570D03*
X009393Y002569D03*
X009393Y002568D03*
X009393Y002567D03*
X009393Y002565D03*
X009393Y002564D03*
X009393Y002563D03*
X009393Y002562D03*
X009393Y002560D03*
X009393Y002559D03*
X009393Y002558D03*
X009393Y002557D03*
X009393Y002555D03*
X009393Y002554D03*
X009393Y002553D03*
X009393Y002552D03*
X009393Y002550D03*
X009393Y002549D03*
X009393Y002548D03*
X009393Y002547D03*
X009393Y002545D03*
X009393Y002544D03*
X009393Y002543D03*
X009393Y002542D03*
X009393Y002540D03*
X009393Y002539D03*
X009393Y002538D03*
X009393Y002537D03*
X009393Y002535D03*
X009393Y002534D03*
X009393Y002533D03*
X009393Y002532D03*
X009393Y002530D03*
X009393Y002529D03*
X009393Y002528D03*
X009393Y002527D03*
X009393Y002525D03*
X009393Y002524D03*
X009393Y002523D03*
X009393Y002522D03*
X009393Y002520D03*
X009393Y002519D03*
X009393Y002518D03*
X009393Y002517D03*
X009393Y002515D03*
X009393Y002514D03*
X009393Y002513D03*
X009393Y002512D03*
X009393Y002510D03*
X009393Y002509D03*
X009393Y002508D03*
X009393Y002507D03*
X009393Y002505D03*
X009393Y002504D03*
X009393Y002503D03*
X009393Y002502D03*
X009393Y002500D03*
X009393Y002499D03*
X009393Y002498D03*
X009393Y002497D03*
X009393Y002495D03*
X009393Y002494D03*
X009393Y002493D03*
X009393Y002492D03*
X009393Y002490D03*
X009393Y002489D03*
X009393Y002488D03*
X009393Y002487D03*
X009393Y002485D03*
X009393Y002484D03*
X009393Y002483D03*
X009393Y002482D03*
X009393Y002480D03*
X009393Y002479D03*
X009393Y002478D03*
X009393Y002477D03*
X009393Y002475D03*
X009393Y002474D03*
X009393Y002473D03*
X009393Y002472D03*
X009393Y002470D03*
X009393Y002469D03*
X009393Y002468D03*
X009393Y002467D03*
X009393Y002465D03*
X009393Y002464D03*
X009393Y002463D03*
X009393Y002462D03*
X009393Y002460D03*
X009393Y002459D03*
X009393Y002458D03*
X009393Y002457D03*
X009393Y002455D03*
X009393Y002454D03*
X009393Y002453D03*
X009393Y002452D03*
X009393Y002450D03*
X009393Y002449D03*
X009393Y002448D03*
X009393Y002447D03*
X009393Y002445D03*
X009393Y002444D03*
X009393Y002443D03*
X009393Y002442D03*
X009393Y002440D03*
X009393Y002439D03*
X009393Y002438D03*
X009393Y002437D03*
X009393Y002435D03*
X009393Y002434D03*
X009393Y002433D03*
X009393Y002432D03*
X009393Y002430D03*
X009393Y002429D03*
X009393Y002428D03*
X009393Y002427D03*
X009393Y002425D03*
X009393Y002424D03*
X009393Y002423D03*
X009393Y002422D03*
X009393Y002420D03*
X009393Y002419D03*
X009393Y002418D03*
X009393Y002417D03*
X009393Y002415D03*
X009393Y002414D03*
X009393Y002413D03*
X009393Y002412D03*
X009393Y002410D03*
X009393Y002409D03*
X009393Y002408D03*
X009393Y002407D03*
X009393Y002405D03*
X009393Y002404D03*
X009393Y002403D03*
X009393Y002402D03*
X009393Y002400D03*
X009393Y002399D03*
X009393Y002398D03*
X009393Y002397D03*
X009393Y002395D03*
X009393Y002394D03*
X009393Y002393D03*
X009393Y002392D03*
X009393Y002390D03*
X009393Y002389D03*
X009393Y002388D03*
X009393Y002387D03*
X009393Y002385D03*
X009393Y002384D03*
X009393Y002383D03*
X009393Y002382D03*
X009393Y002380D03*
X009393Y002379D03*
X009393Y002378D03*
X009393Y002584D03*
D89*
X009393Y002584D03*
X009393Y002584D03*
X009393Y002585D03*
X009393Y002583D03*
X009393Y002581D03*
X009393Y002581D03*
X009393Y002580D03*
X009393Y002579D03*
X009393Y002579D03*
X009393Y002578D03*
X009393Y002576D03*
X009393Y002576D03*
X009393Y002575D03*
X009393Y002574D03*
X009393Y002574D03*
X009393Y002573D03*
X009393Y002571D03*
X009393Y002571D03*
X009393Y002570D03*
X009393Y002569D03*
X009393Y002569D03*
X009393Y002568D03*
X009393Y002566D03*
X009393Y002566D03*
X009393Y002565D03*
X009393Y002564D03*
X009393Y002564D03*
X009393Y002563D03*
X009393Y002561D03*
X009393Y002561D03*
X009393Y002560D03*
X009393Y002559D03*
X009393Y002559D03*
X009393Y002558D03*
X009393Y002556D03*
X009393Y002556D03*
X009393Y002555D03*
X009393Y002554D03*
X009393Y002554D03*
X009393Y002553D03*
X009393Y002551D03*
X009393Y002551D03*
X009393Y002550D03*
X009393Y002549D03*
X009393Y002549D03*
X009393Y002548D03*
X009393Y002546D03*
X009393Y002546D03*
X009393Y002545D03*
X009393Y002544D03*
X009393Y002544D03*
X009393Y002543D03*
X009393Y002541D03*
X009393Y002541D03*
X009393Y002540D03*
X009393Y002539D03*
X009393Y002539D03*
X009393Y002538D03*
X009393Y002536D03*
X009393Y002536D03*
X009393Y002535D03*
X009393Y002534D03*
X009393Y002534D03*
X009393Y002533D03*
X009393Y002531D03*
X009393Y002531D03*
X009393Y002530D03*
X009393Y002529D03*
X009393Y002529D03*
X009393Y002528D03*
X009393Y002526D03*
X009393Y002526D03*
X009393Y002525D03*
X009393Y002524D03*
X009393Y002524D03*
X009393Y002523D03*
X009393Y002521D03*
X009393Y002521D03*
X009393Y002520D03*
X009393Y002519D03*
X009393Y002519D03*
X009393Y002518D03*
X009393Y002516D03*
X009393Y002516D03*
X009393Y002515D03*
X009393Y002514D03*
X009393Y002514D03*
X009393Y002513D03*
X009393Y002511D03*
X009393Y002511D03*
X009393Y002510D03*
X009393Y002509D03*
X009393Y002509D03*
X009393Y002508D03*
X009393Y002506D03*
X009393Y002506D03*
X009393Y002505D03*
X009393Y002504D03*
X009393Y002504D03*
X009393Y002503D03*
X009393Y002501D03*
X009393Y002501D03*
X009393Y002500D03*
X009393Y002499D03*
X009393Y002499D03*
X009393Y002498D03*
X009393Y002496D03*
X009393Y002496D03*
X009393Y002495D03*
X009393Y002494D03*
X009393Y002494D03*
X009393Y002493D03*
X009393Y002491D03*
X009393Y002491D03*
X009393Y002490D03*
X009393Y002489D03*
X009393Y002489D03*
X009393Y002488D03*
X009393Y002486D03*
X009393Y002486D03*
X009393Y002485D03*
X009393Y002484D03*
X009393Y002484D03*
X009393Y002483D03*
X009393Y002481D03*
X009393Y002481D03*
X009393Y002480D03*
X009393Y002479D03*
X009393Y002479D03*
X009393Y002478D03*
X009393Y002476D03*
X009393Y002476D03*
X009393Y002475D03*
X009393Y002474D03*
X009393Y002474D03*
X009393Y002473D03*
X009393Y002471D03*
X009393Y002471D03*
X009393Y002470D03*
X009393Y002469D03*
X009393Y002469D03*
X009393Y002468D03*
X009393Y002466D03*
X009393Y002466D03*
X009393Y002465D03*
X009393Y002464D03*
X009393Y002464D03*
X009393Y002463D03*
X009393Y002461D03*
X009393Y002461D03*
X009393Y002460D03*
X009393Y002459D03*
X009393Y002459D03*
X009393Y002458D03*
X009393Y002456D03*
X009393Y002456D03*
X009393Y002455D03*
X009393Y002454D03*
X009393Y002454D03*
X009393Y002453D03*
X009393Y002451D03*
X009393Y002451D03*
X009393Y002450D03*
X009393Y002449D03*
X009393Y002449D03*
X009393Y002448D03*
X009393Y002446D03*
X009393Y002446D03*
X009393Y002445D03*
X009393Y002444D03*
X009393Y002444D03*
X009393Y002443D03*
X009393Y002441D03*
X009393Y002441D03*
X009393Y002440D03*
X009393Y002439D03*
X009393Y002439D03*
X009393Y002438D03*
X009393Y002436D03*
X009393Y002436D03*
X009393Y002435D03*
X009393Y002434D03*
X009393Y002434D03*
X009393Y002433D03*
X009393Y002431D03*
X009393Y002431D03*
X009393Y002430D03*
X009393Y002429D03*
X009393Y002429D03*
X009393Y002428D03*
X009393Y002426D03*
X009393Y002426D03*
X009393Y002425D03*
X009393Y002424D03*
X009393Y002424D03*
X009393Y002423D03*
X009393Y002421D03*
X009393Y002421D03*
X009393Y002420D03*
X009393Y002419D03*
X009393Y002419D03*
X009393Y002418D03*
X009393Y002416D03*
X009393Y002416D03*
X009393Y002415D03*
X009393Y002414D03*
X009393Y002414D03*
X009393Y002413D03*
X009393Y002411D03*
X009393Y002411D03*
X009393Y002410D03*
X009393Y002409D03*
X009393Y002409D03*
X009393Y002408D03*
X009393Y002406D03*
X009393Y002406D03*
X009393Y002405D03*
X009393Y002404D03*
X009393Y002404D03*
X009393Y002403D03*
X009393Y002401D03*
X009393Y002401D03*
X009393Y002400D03*
X009393Y002399D03*
X009393Y002399D03*
X009393Y002398D03*
X009393Y002396D03*
X009393Y002396D03*
X009393Y002395D03*
X009393Y002394D03*
X009393Y002394D03*
X009393Y002393D03*
X009393Y002391D03*
X009393Y002391D03*
X009393Y002390D03*
X009393Y002389D03*
X009393Y002389D03*
X009393Y002388D03*
X009393Y002386D03*
X009393Y002386D03*
X009393Y002385D03*
X009393Y002384D03*
X009393Y002384D03*
X009393Y002383D03*
X009393Y002381D03*
X009393Y002381D03*
X009393Y002380D03*
X009393Y002379D03*
X009393Y002379D03*
D90*
X009393Y002588D03*
D91*
X008776Y002589D03*
D92*
X009393Y002590D03*
D93*
X008776Y002590D03*
D94*
X008776Y002591D03*
D95*
X008776Y002593D03*
D96*
X008776Y002594D03*
D97*
X009393Y002594D03*
D98*
X008776Y002595D03*
D99*
X008776Y002595D03*
D100*
X009393Y002595D03*
D101*
X008776Y002596D03*
D102*
X009393Y002596D03*
D103*
X008776Y002596D03*
D104*
X008776Y002597D03*
D105*
X009393Y002597D03*
D106*
X008776Y002598D03*
D107*
X009393Y002598D03*
D108*
X008776Y002598D03*
D109*
X009393Y002598D03*
D110*
X008776Y002599D03*
D111*
X009393Y002599D03*
D112*
X008776Y002599D03*
D113*
X009393Y002599D03*
D114*
X008776Y002599D03*
D115*
X009393Y002599D03*
D116*
X008776Y002600D03*
D117*
X009393Y002600D03*
D118*
X008776Y002600D03*
D119*
X009393Y002600D03*
D120*
X008776Y002601D03*
D121*
X009393Y002601D03*
D122*
X008776Y002601D03*
D123*
X008776Y002602D03*
D124*
X009393Y002602D03*
D125*
X008776Y002603D03*
D126*
X009393Y002603D03*
D127*
X008776Y002603D03*
D128*
X009393Y002603D03*
D129*
X008776Y002604D03*
D130*
X009393Y002604D03*
D131*
X008776Y002604D03*
D132*
X008776Y002604D03*
D133*
X009393Y002604D03*
D134*
X008777Y002605D03*
D135*
X009393Y002605D03*
D136*
X008777Y002605D03*
X008777Y002607D03*
D137*
X009393Y002605D03*
D138*
X008777Y002606D03*
X008777Y002606D03*
D139*
X009393Y002606D03*
D140*
X009393Y002607D03*
D141*
X008777Y002608D03*
X008777Y002609D03*
D142*
X009393Y002608D03*
D143*
X008777Y002608D03*
D144*
X009393Y002608D03*
D145*
X009397Y002609D03*
X009397Y002609D03*
X009397Y002610D03*
D146*
X008777Y002610D03*
X008777Y002609D03*
D147*
X008777Y002609D03*
X008777Y002610D03*
D148*
X009397Y002609D03*
D149*
X009397Y002610D03*
X009397Y002612D03*
X008768Y002669D03*
D150*
X008776Y002611D03*
X008776Y002611D03*
D151*
X008768Y002669D03*
X008768Y002669D03*
X008768Y002670D03*
X009397Y002611D03*
X009397Y002611D03*
D152*
X008776Y002612D03*
D153*
X008776Y002613D03*
X008776Y002614D03*
D154*
X009397Y002614D03*
X009397Y002614D03*
X009397Y002613D03*
D155*
X008776Y002613D03*
D156*
X009397Y002613D03*
D157*
X008776Y002614D03*
X008776Y002615D03*
D158*
X008776Y002615D03*
X008776Y002614D03*
D159*
X008767Y002672D03*
X008767Y002673D03*
X009397Y002615D03*
X009397Y002614D03*
D160*
X009397Y002615D03*
X009397Y002616D03*
X008767Y002673D03*
D161*
X008776Y002616D03*
X008776Y002616D03*
D162*
X008767Y002674D03*
X008767Y002674D03*
X008767Y002675D03*
X009398Y002619D03*
X009398Y002618D03*
X009398Y002616D03*
D163*
X008776Y002617D03*
D164*
X008767Y002674D03*
X009398Y002618D03*
X009398Y002617D03*
D165*
X008775Y002618D03*
X008775Y002619D03*
X008775Y002619D03*
D166*
X008775Y002618D03*
D167*
X009398Y002619D03*
X009398Y002620D03*
D168*
X008775Y002620D03*
X008775Y002619D03*
D169*
X009398Y002619D03*
X009398Y002620D03*
D170*
X008775Y002620D03*
D171*
X008775Y002621D03*
X008775Y002621D03*
D172*
X008767Y002678D03*
X008767Y002679D03*
X009398Y002623D03*
X009398Y002621D03*
X009398Y002621D03*
D173*
X008775Y002622D03*
D174*
X008767Y002677D03*
X008767Y002678D03*
X009398Y002622D03*
D175*
X008775Y002623D03*
X008775Y002624D03*
X008775Y002624D03*
D176*
X008775Y002623D03*
D177*
X009398Y002623D03*
X009398Y002624D03*
D178*
X009398Y002624D03*
X009398Y002624D03*
D179*
X008774Y002624D03*
X008774Y002625D03*
D180*
X008774Y002625D03*
D181*
X008766Y002681D03*
X008766Y002681D03*
X009399Y002626D03*
X009399Y002626D03*
X009399Y002625D03*
D182*
X009399Y002625D03*
X008766Y002680D03*
D183*
X008774Y002628D03*
X008774Y002626D03*
X008774Y002626D03*
D184*
X008774Y002627D03*
D185*
X008766Y002682D03*
X008766Y002683D03*
X009399Y002628D03*
X009399Y002627D03*
D186*
X009399Y002628D03*
X009399Y002629D03*
X008766Y002683D03*
X008766Y002684D03*
D187*
X008774Y002628D03*
D188*
X008774Y002629D03*
X008774Y002629D03*
D189*
X009399Y002630D03*
X009399Y002631D03*
X009399Y002629D03*
D190*
X008774Y002629D03*
X008774Y002630D03*
D191*
X009399Y002630D03*
X009399Y002629D03*
D192*
X008774Y002630D03*
D193*
X008773Y002631D03*
X008773Y002631D03*
X008773Y002633D03*
D194*
X008765Y002686D03*
X008765Y002686D03*
X009399Y002633D03*
X009399Y002631D03*
D195*
X008773Y002632D03*
D196*
X008765Y002685D03*
X008765Y002687D03*
X009399Y002633D03*
X009399Y002632D03*
D197*
X008773Y002633D03*
D198*
X008773Y002634D03*
X008773Y002634D03*
D199*
X009400Y002635D03*
X009400Y002634D03*
X009400Y002634D03*
D200*
X008773Y002634D03*
X008773Y002635D03*
D201*
X009400Y002634D03*
D202*
X008773Y002635D03*
X008773Y002636D03*
D203*
X008765Y002689D03*
X009400Y002637D03*
X009400Y002635D03*
D204*
X009400Y002636D03*
X009400Y002636D03*
X008765Y002689D03*
X008765Y002690D03*
D205*
X008773Y002638D03*
X008773Y002636D03*
D206*
X008773Y002637D03*
D207*
X008765Y002691D03*
X008765Y002691D03*
X009400Y002639D03*
X009400Y002639D03*
X009400Y002638D03*
D208*
X008772Y002638D03*
D209*
X008765Y002690D03*
X008765Y002692D03*
X009400Y002638D03*
D210*
X008772Y002639D03*
X008772Y002639D03*
D211*
X008772Y002639D03*
X008772Y002640D03*
D212*
X009400Y002640D03*
X009400Y002639D03*
D213*
X008772Y002640D03*
X008772Y002641D03*
D214*
X009400Y002641D03*
X009400Y002640D03*
D215*
X008772Y002641D03*
X008772Y002643D03*
D216*
X008764Y002694D03*
X008764Y002695D03*
X009401Y002644D03*
X009401Y002643D03*
X009401Y002641D03*
D217*
X008772Y002642D03*
D218*
X008764Y002694D03*
X008764Y002695D03*
X009401Y002643D03*
X009401Y002642D03*
D219*
X008772Y002643D03*
X008772Y002644D03*
D220*
X008772Y002644D03*
X008772Y002644D03*
D221*
X009401Y002645D03*
X009401Y002644D03*
D222*
X009401Y002644D03*
X009401Y002645D03*
D223*
X008771Y002646D03*
X008771Y002645D03*
D224*
X008771Y002645D03*
D225*
X008764Y002698D03*
X008764Y002699D03*
X009401Y002648D03*
X009401Y002646D03*
X009401Y002646D03*
D226*
X008771Y002646D03*
X008771Y002648D03*
D227*
X008771Y002647D03*
D228*
X008764Y002698D03*
X009401Y002647D03*
D229*
X008771Y002648D03*
X008771Y002649D03*
D230*
X008763Y002699D03*
X008763Y002700D03*
X009401Y002649D03*
X009401Y002648D03*
D231*
X008771Y002649D03*
X008771Y002649D03*
D232*
X008763Y002699D03*
X008763Y002700D03*
X009401Y002649D03*
X009401Y002649D03*
D233*
X008771Y002650D03*
X008771Y002651D03*
D234*
X009402Y002651D03*
X009402Y002651D03*
X009402Y002650D03*
D235*
X008771Y002650D03*
D236*
X009402Y002650D03*
D237*
X008770Y002651D03*
X008770Y002653D03*
D238*
X008770Y002653D03*
X008770Y002652D03*
D239*
X008763Y002703D03*
X009402Y002653D03*
X009402Y002652D03*
D240*
X009402Y002653D03*
X009402Y002654D03*
X008763Y002703D03*
X008763Y002704D03*
X008763Y002704D03*
D241*
X008770Y002654D03*
X008770Y002654D03*
D242*
X009402Y002655D03*
X009402Y002656D03*
X009402Y002654D03*
D243*
X008770Y002654D03*
D244*
X009402Y002654D03*
X009402Y002655D03*
D245*
X008770Y002656D03*
X008770Y002655D03*
D246*
X008770Y002655D03*
D247*
X008770Y002656D03*
X008770Y002658D03*
D248*
X008762Y002706D03*
X008762Y002706D03*
X009402Y002658D03*
X009402Y002656D03*
D249*
X008770Y002657D03*
X008770Y002658D03*
D250*
X008762Y002707D03*
X009402Y002658D03*
X009402Y002657D03*
D251*
X008769Y002659D03*
X008769Y002659D03*
D252*
X008762Y002708D03*
X008762Y002709D03*
X008762Y002709D03*
X009403Y002660D03*
X009403Y002659D03*
X009403Y002659D03*
D253*
X008769Y002659D03*
D254*
X008762Y002708D03*
X009403Y002659D03*
D255*
X008769Y002660D03*
X008769Y002661D03*
X008769Y002661D03*
D256*
X008769Y002660D03*
D257*
X009403Y002660D03*
X009403Y002662D03*
D258*
X009403Y002661D03*
X009403Y002661D03*
D259*
X008769Y002662D03*
X008769Y002663D03*
D260*
X008769Y002663D03*
D261*
X008762Y002711D03*
X008762Y002711D03*
X008762Y002713D03*
X009403Y002664D03*
X009403Y002664D03*
X009403Y002663D03*
D262*
X009403Y002663D03*
X008762Y002712D03*
D263*
X008769Y002664D03*
X008769Y002664D03*
D264*
X008769Y002664D03*
D265*
X009403Y002664D03*
X009403Y002665D03*
D266*
X008768Y002666D03*
X008768Y002666D03*
X008768Y002665D03*
D267*
X009403Y002666D03*
X009403Y002665D03*
D268*
X008768Y002665D03*
D269*
X008761Y002715D03*
X008761Y002716D03*
X009404Y002669D03*
X009404Y002668D03*
X009404Y002666D03*
D270*
X008768Y002667D03*
X008768Y002668D03*
D271*
X008761Y002714D03*
X008761Y002715D03*
X009404Y002668D03*
X009404Y002667D03*
D272*
X008768Y002668D03*
D273*
X008761Y002716D03*
X008761Y002718D03*
X009404Y002670D03*
X009404Y002669D03*
D274*
X009404Y002669D03*
X009404Y002670D03*
X008761Y002717D03*
D275*
X008768Y002670D03*
D276*
X008768Y002671D03*
X008768Y002671D03*
D277*
X009404Y002671D03*
X009404Y002671D03*
X009404Y002673D03*
D278*
X009404Y002672D03*
D279*
X009404Y002673D03*
X009404Y002674D03*
X008760Y002719D03*
X008760Y002720D03*
D280*
X008760Y002720D03*
X008760Y002721D03*
X009404Y002674D03*
X009404Y002674D03*
D281*
X009405Y002675D03*
X009405Y002676D03*
X009405Y002676D03*
D282*
X008767Y002675D03*
D283*
X009405Y002675D03*
D284*
X008767Y002676D03*
X008767Y002676D03*
D285*
X008760Y002723D03*
X008760Y002724D03*
X009405Y002678D03*
X009405Y002677D03*
D286*
X009405Y002678D03*
X009405Y002679D03*
X008760Y002724D03*
X008760Y002724D03*
D287*
X008766Y002680D03*
X008766Y002679D03*
D288*
X008760Y002725D03*
X008760Y002726D03*
X009405Y002681D03*
X009405Y002680D03*
X009405Y002679D03*
D289*
X008766Y002679D03*
D290*
X008760Y002725D03*
X009405Y002680D03*
X009405Y002679D03*
D291*
X009405Y002681D03*
X009405Y002683D03*
D292*
X009405Y002683D03*
X009405Y002682D03*
D293*
X009406Y002684D03*
X009406Y002684D03*
X009406Y002685D03*
X008759Y002729D03*
X008759Y002729D03*
D294*
X008766Y002685D03*
X008766Y002684D03*
D295*
X008766Y002684D03*
D296*
X008759Y002728D03*
X008759Y002729D03*
X009406Y002684D03*
D297*
X009406Y002685D03*
X009406Y002687D03*
D298*
X009406Y002686D03*
X009406Y002686D03*
D299*
X008765Y002688D03*
X008765Y002689D03*
D300*
X008759Y002731D03*
X008759Y002733D03*
X009406Y002689D03*
X009406Y002689D03*
X009406Y002688D03*
D301*
X008765Y002688D03*
D302*
X008759Y002732D03*
X008759Y002733D03*
X009406Y002688D03*
D303*
X009406Y002689D03*
X009406Y002690D03*
X008758Y002734D03*
D304*
X008758Y002734D03*
X008758Y002734D03*
X009406Y002691D03*
X009406Y002690D03*
D305*
X009407Y002691D03*
X009407Y002693D03*
X009407Y002694D03*
D306*
X009407Y002693D03*
X009407Y002692D03*
D307*
X008764Y002693D03*
X008764Y002694D03*
D308*
X008764Y002693D03*
D309*
X008758Y002736D03*
X008758Y002738D03*
X009407Y002695D03*
X009407Y002694D03*
D310*
X009407Y002694D03*
X009407Y002695D03*
X008758Y002737D03*
X008758Y002738D03*
D311*
X008764Y002696D03*
X008764Y002696D03*
D312*
X009407Y002696D03*
X009407Y002696D03*
X009407Y002698D03*
D313*
X008764Y002697D03*
D314*
X009407Y002697D03*
D315*
X009407Y002698D03*
X009407Y002699D03*
X008757Y002740D03*
D316*
X008757Y002740D03*
X008757Y002741D03*
X008757Y002741D03*
X009407Y002699D03*
X009407Y002699D03*
D317*
X009408Y002700D03*
X009408Y002701D03*
X009408Y002701D03*
X008757Y002743D03*
D318*
X008757Y002743D03*
X008757Y002742D03*
X009408Y002700D03*
D319*
X008763Y002701D03*
X008763Y002701D03*
D320*
X008763Y002702D03*
D321*
X009408Y002703D03*
X009408Y002702D03*
D322*
X009408Y002703D03*
X009408Y002704D03*
D323*
X009408Y002704D03*
X009408Y002705D03*
X009408Y002706D03*
X008757Y002745D03*
X008757Y002746D03*
X008757Y002746D03*
D324*
X008763Y002705D03*
X008763Y002704D03*
D325*
X008757Y002745D03*
X009408Y002705D03*
X009408Y002704D03*
D326*
X008763Y002705D03*
D327*
X009408Y002706D03*
X009408Y002708D03*
D328*
X009408Y002708D03*
X009408Y002707D03*
D329*
X009409Y002709D03*
X009409Y002709D03*
X009409Y002710D03*
X008756Y002749D03*
X008756Y002749D03*
X008756Y002750D03*
D330*
X008762Y002710D03*
X008762Y002709D03*
D331*
X008756Y002749D03*
X009409Y002709D03*
D332*
X008762Y002710D03*
D333*
X008756Y002750D03*
X009409Y002712D03*
X009409Y002710D03*
D334*
X009409Y002711D03*
X009409Y002711D03*
X008756Y002751D03*
X008756Y002751D03*
D335*
X009409Y002714D03*
X009409Y002714D03*
X009409Y002713D03*
D336*
X008761Y002713D03*
D337*
X009409Y002713D03*
D338*
X008761Y002714D03*
X008761Y002714D03*
D339*
X008755Y002754D03*
X009409Y002715D03*
X009409Y002714D03*
D340*
X009409Y002715D03*
X009409Y002716D03*
X008755Y002754D03*
X008755Y002754D03*
X008755Y002755D03*
D341*
X009410Y002719D03*
X009410Y002718D03*
X009410Y002716D03*
D342*
X009410Y002717D03*
X009410Y002718D03*
D343*
X008761Y002718D03*
D344*
X008761Y002719D03*
X008761Y002719D03*
D345*
X008755Y002758D03*
X008755Y002759D03*
X009410Y002720D03*
X009410Y002719D03*
D346*
X009410Y002719D03*
X009410Y002720D03*
X008755Y002757D03*
X008755Y002758D03*
D347*
X008755Y002759D03*
X008755Y002760D03*
X009410Y002723D03*
X009410Y002721D03*
X009410Y002721D03*
D348*
X008760Y002721D03*
X008760Y002723D03*
D349*
X008760Y002722D03*
D350*
X008755Y002759D03*
X009410Y002722D03*
D351*
X009410Y002723D03*
X009410Y002724D03*
D352*
X009410Y002724D03*
X009410Y002724D03*
D353*
X009411Y002725D03*
X009411Y002726D03*
X009411Y002726D03*
X008754Y002763D03*
X008754Y002764D03*
D354*
X008754Y002763D03*
X008754Y002762D03*
X009411Y002725D03*
D355*
X008759Y002726D03*
X008759Y002728D03*
D356*
X008759Y002727D03*
D357*
X009411Y002728D03*
X009411Y002727D03*
D358*
X009411Y002728D03*
X009411Y002729D03*
D359*
X009411Y002729D03*
X009411Y002730D03*
X009411Y002731D03*
X008754Y002766D03*
X008754Y002766D03*
D360*
X008754Y002765D03*
X008754Y002767D03*
X009411Y002730D03*
X009411Y002729D03*
D361*
X008759Y002730D03*
X008759Y002731D03*
D362*
X008759Y002730D03*
D363*
X008753Y002768D03*
X008753Y002769D03*
X009411Y002733D03*
X009411Y002731D03*
D364*
X009411Y002732D03*
X009411Y002733D03*
X008753Y002768D03*
D365*
X009412Y002735D03*
X009412Y002734D03*
X009412Y002734D03*
D366*
X009412Y002734D03*
D367*
X008758Y002735D03*
X008758Y002736D03*
D368*
X008758Y002735D03*
D369*
X008753Y002770D03*
X008753Y002772D03*
X009412Y002737D03*
X009412Y002735D03*
D370*
X009412Y002736D03*
X009412Y002736D03*
X008753Y002771D03*
X008753Y002771D03*
D371*
X009412Y002739D03*
X009412Y002739D03*
X009412Y002738D03*
D372*
X009412Y002738D03*
D373*
X008758Y002739D03*
X008758Y002739D03*
D374*
X008758Y002739D03*
D375*
X008752Y002774D03*
X008752Y002775D03*
X009412Y002740D03*
X009412Y002739D03*
D376*
X009412Y002740D03*
X009412Y002741D03*
X008752Y002774D03*
X008752Y002775D03*
D377*
X008752Y002776D03*
X008752Y002776D03*
X009413Y002744D03*
X009413Y002743D03*
X009413Y002741D03*
D378*
X009413Y002742D03*
X009413Y002743D03*
X008752Y002777D03*
D379*
X008757Y002744D03*
X008757Y002744D03*
D380*
X009413Y002745D03*
X009413Y002744D03*
D381*
X008757Y002744D03*
D382*
X009413Y002744D03*
X009413Y002745D03*
D383*
X009413Y002746D03*
X009413Y002746D03*
X009413Y002748D03*
X008752Y002779D03*
X008752Y002780D03*
D384*
X008756Y002748D03*
X008756Y002747D03*
D385*
X008752Y002779D03*
X008752Y002780D03*
X009413Y002747D03*
D386*
X008756Y002748D03*
D387*
X009413Y002748D03*
X009413Y002749D03*
D388*
X009413Y002749D03*
X009413Y002749D03*
D389*
X009414Y002750D03*
X009414Y002751D03*
X009414Y002751D03*
X008751Y002783D03*
X008751Y002784D03*
X008751Y002784D03*
D390*
X008751Y002783D03*
X009414Y002750D03*
D391*
X008756Y002752D03*
X008756Y002753D03*
D392*
X008751Y002784D03*
X008751Y002785D03*
X009414Y002753D03*
X009414Y002752D03*
D393*
X008756Y002753D03*
D394*
X008751Y002785D03*
X009414Y002754D03*
X009414Y002753D03*
D395*
X009414Y002754D03*
X009414Y002755D03*
X009414Y002756D03*
D396*
X009414Y002755D03*
X009414Y002754D03*
D397*
X008755Y002755D03*
D398*
X008755Y002756D03*
X008755Y002756D03*
D399*
X008750Y002788D03*
X008750Y002789D03*
X008750Y002789D03*
X009414Y002758D03*
X009414Y002756D03*
D400*
X009414Y002757D03*
X009414Y002758D03*
X008750Y002788D03*
D401*
X009415Y002760D03*
X009415Y002759D03*
X009415Y002759D03*
D402*
X009415Y002759D03*
D403*
X008754Y002760D03*
D404*
X008750Y002792D03*
X009415Y002762D03*
X009415Y002760D03*
D405*
X008754Y002761D03*
X008754Y002761D03*
D406*
X008750Y002791D03*
X008750Y002791D03*
X008750Y002793D03*
X009415Y002761D03*
X009415Y002761D03*
D407*
X009415Y002763D03*
X009415Y002764D03*
X009415Y002764D03*
X008750Y002794D03*
X008750Y002794D03*
D408*
X008750Y002793D03*
X009415Y002763D03*
D409*
X008754Y002764D03*
X008754Y002765D03*
D410*
X008754Y002764D03*
D411*
X009415Y002764D03*
X009415Y002765D03*
D412*
X009415Y002765D03*
X009415Y002766D03*
D413*
X009416Y002766D03*
X009416Y002768D03*
X009416Y002769D03*
X008749Y002796D03*
X008749Y002796D03*
X008749Y002798D03*
D414*
X008749Y002797D03*
X009416Y002768D03*
X009416Y002767D03*
D415*
X008753Y002769D03*
X008753Y002770D03*
D416*
X009416Y002770D03*
X009416Y002769D03*
D417*
X008753Y002769D03*
D418*
X009416Y002769D03*
X009416Y002770D03*
D419*
X009416Y002771D03*
X009416Y002771D03*
X009416Y002773D03*
X008749Y002800D03*
X008749Y002801D03*
D420*
X008749Y002800D03*
X008749Y002799D03*
X009416Y002772D03*
D421*
X008753Y002773D03*
X008753Y002774D03*
D422*
X008753Y002773D03*
D423*
X008748Y002802D03*
X009416Y002774D03*
X009416Y002773D03*
D424*
X009416Y002774D03*
X009416Y002774D03*
X008748Y002801D03*
X008748Y002803D03*
D425*
X009417Y002776D03*
X009417Y002776D03*
X009417Y002775D03*
D426*
X009417Y002775D03*
D427*
X009417Y002777D03*
X009417Y002778D03*
X008748Y002804D03*
X008748Y002805D03*
D428*
X008752Y002779D03*
X008752Y002778D03*
D429*
X008748Y002805D03*
X008748Y002806D03*
X009417Y002779D03*
X009417Y002778D03*
D430*
X008752Y002778D03*
D431*
X009417Y002779D03*
X009417Y002780D03*
X009417Y002781D03*
D432*
X009417Y002780D03*
X009417Y002779D03*
D433*
X008751Y002781D03*
X008751Y002781D03*
D434*
X008747Y002809D03*
X008747Y002809D03*
X009417Y002783D03*
X009417Y002781D03*
D435*
X008751Y002782D03*
D436*
X008747Y002808D03*
X008747Y002809D03*
X009417Y002783D03*
X009417Y002782D03*
D437*
X009418Y002784D03*
X009418Y002784D03*
X009418Y002785D03*
X008747Y002810D03*
X008747Y002811D03*
D438*
X008747Y002810D03*
X009418Y002784D03*
D439*
X009418Y002785D03*
X009418Y002787D03*
D440*
X008751Y002786D03*
X008751Y002786D03*
D441*
X009418Y002786D03*
X009418Y002786D03*
D442*
X008751Y002787D03*
D443*
X008747Y002814D03*
X008747Y002814D03*
X009418Y002789D03*
X009418Y002789D03*
X009418Y002788D03*
D444*
X009418Y002788D03*
X008747Y002813D03*
X008747Y002814D03*
D445*
X008750Y002790D03*
X008750Y002789D03*
D446*
X009418Y002789D03*
X009418Y002790D03*
D447*
X008750Y002790D03*
D448*
X009418Y002791D03*
X009418Y002790D03*
D449*
X009419Y002791D03*
X009419Y002793D03*
X009419Y002794D03*
X008746Y002816D03*
X008746Y002818D03*
D450*
X008746Y002818D03*
X008746Y002817D03*
X009419Y002793D03*
X009419Y002792D03*
D451*
X009419Y002794D03*
X009419Y002795D03*
X008746Y002819D03*
X008746Y002819D03*
D452*
X008749Y002795D03*
X008749Y002794D03*
D453*
X008746Y002819D03*
X009419Y002795D03*
X009419Y002794D03*
D454*
X008749Y002795D03*
D455*
X009419Y002796D03*
X009419Y002796D03*
X009419Y002798D03*
D456*
X009419Y002797D03*
D457*
X008749Y002798D03*
D458*
X008745Y002822D03*
X008745Y002823D03*
X009419Y002799D03*
X009419Y002798D03*
D459*
X008749Y002799D03*
X008749Y002799D03*
D460*
X008745Y002821D03*
X008745Y002823D03*
X009419Y002799D03*
X009419Y002799D03*
D461*
X009420Y002800D03*
X009420Y002801D03*
X009420Y002801D03*
D462*
X009420Y002800D03*
D463*
X009420Y002802D03*
X009420Y002803D03*
X008745Y002825D03*
D464*
X008745Y002825D03*
X008745Y002826D03*
X008745Y002826D03*
X009420Y002804D03*
X009420Y002803D03*
D465*
X008748Y002803D03*
D466*
X008748Y002804D03*
X008748Y002804D03*
D467*
X008745Y002828D03*
X009420Y002806D03*
X009420Y002805D03*
X009420Y002804D03*
D468*
X009420Y002804D03*
X009420Y002805D03*
X008745Y002827D03*
X008745Y002828D03*
D469*
X008748Y002808D03*
X008748Y002806D03*
D470*
X009420Y002806D03*
X009420Y002808D03*
D471*
X008748Y002807D03*
D472*
X009420Y002808D03*
X009420Y002807D03*
D473*
X009421Y002809D03*
X009421Y002809D03*
X009421Y002810D03*
X008744Y002830D03*
X008744Y002831D03*
X008744Y002831D03*
D474*
X008744Y002830D03*
X009421Y002809D03*
D475*
X009421Y002810D03*
X009421Y002812D03*
D476*
X009421Y002811D03*
X009421Y002811D03*
D477*
X008747Y002811D03*
X008747Y002813D03*
D478*
X008747Y002812D03*
D479*
X008744Y002834D03*
X008744Y002834D03*
X008744Y002835D03*
X009421Y002814D03*
X009421Y002814D03*
X009421Y002813D03*
D480*
X009421Y002813D03*
X008744Y002834D03*
D481*
X008743Y002835D03*
X009421Y002815D03*
X009421Y002814D03*
D482*
X008746Y002815D03*
X008746Y002816D03*
D483*
X008743Y002836D03*
X008743Y002836D03*
X009421Y002816D03*
X009421Y002815D03*
D484*
X008746Y002815D03*
D485*
X009422Y002816D03*
X009422Y002818D03*
X009422Y002819D03*
D486*
X009422Y002818D03*
X009422Y002817D03*
D487*
X009422Y002819D03*
X009422Y002820D03*
X008743Y002839D03*
X008743Y002839D03*
X008743Y002840D03*
D488*
X008743Y002839D03*
X009422Y002820D03*
X009422Y002819D03*
D489*
X008746Y002820D03*
X008746Y002821D03*
D490*
X008746Y002820D03*
D491*
X009422Y002821D03*
X009422Y002821D03*
X009422Y002823D03*
D492*
X009422Y002822D03*
D493*
X009422Y002823D03*
X009422Y002824D03*
X008742Y002842D03*
X008742Y002843D03*
D494*
X008745Y002824D03*
X008745Y002824D03*
D495*
X008742Y002843D03*
X008742Y002844D03*
X009422Y002824D03*
X009422Y002824D03*
D496*
X008745Y002824D03*
D497*
X008742Y002844D03*
X008742Y002845D03*
X009423Y002826D03*
X009423Y002826D03*
X009423Y002825D03*
D498*
X009423Y002825D03*
X008742Y002844D03*
D499*
X009423Y002828D03*
X009423Y002827D03*
D500*
X009423Y002828D03*
X009423Y002829D03*
D501*
X008744Y002829D03*
X008744Y002829D03*
D502*
X008742Y002848D03*
X008742Y002849D03*
X009423Y002831D03*
X009423Y002830D03*
X009423Y002829D03*
D503*
X008744Y002829D03*
D504*
X008742Y002847D03*
X008742Y002848D03*
X009423Y002830D03*
X009423Y002829D03*
D505*
X009423Y002831D03*
X009423Y002833D03*
D506*
X008744Y002833D03*
X008744Y002832D03*
D507*
X009423Y002833D03*
X009423Y002832D03*
D508*
X008744Y002833D03*
D509*
X008741Y002851D03*
X008741Y002851D03*
X009424Y002835D03*
X009424Y002834D03*
X009424Y002834D03*
D510*
X009424Y002834D03*
X008741Y002850D03*
X008741Y002852D03*
D511*
X008741Y002853D03*
X009424Y002837D03*
X009424Y002835D03*
D512*
X009424Y002836D03*
X009424Y002836D03*
X008741Y002853D03*
X008741Y002854D03*
D513*
X008743Y002838D03*
X008743Y002837D03*
D514*
X008743Y002838D03*
D515*
X009424Y002839D03*
X009424Y002839D03*
X009424Y002838D03*
D516*
X009424Y002838D03*
D517*
X009424Y002839D03*
X009424Y002840D03*
X008740Y002855D03*
X008740Y002857D03*
D518*
X008740Y002856D03*
X008740Y002856D03*
X009424Y002841D03*
X009424Y002840D03*
D519*
X008743Y002840D03*
D520*
X008743Y002841D03*
X008743Y002841D03*
D521*
X009425Y002841D03*
X009425Y002843D03*
X009425Y002844D03*
D522*
X009425Y002843D03*
X009425Y002842D03*
D523*
X009425Y002844D03*
X009425Y002845D03*
X008740Y002859D03*
X008740Y002860D03*
D524*
X008740Y002860D03*
X008740Y002859D03*
X009425Y002845D03*
X009425Y002844D03*
D525*
X008742Y002845D03*
D526*
X008742Y002846D03*
X008742Y002846D03*
D527*
X008740Y002861D03*
X008740Y002861D03*
X009425Y002848D03*
X009425Y002846D03*
X009425Y002846D03*
D528*
X009425Y002847D03*
X008740Y002862D03*
D529*
X009425Y002849D03*
X009425Y002848D03*
D530*
X009425Y002849D03*
X009425Y002849D03*
D531*
X008741Y002850D03*
X008741Y002849D03*
D532*
X008741Y002849D03*
D533*
X008739Y002864D03*
X008739Y002865D03*
X009426Y002851D03*
X009426Y002851D03*
X009426Y002850D03*
D534*
X009426Y002850D03*
X008739Y002864D03*
X008739Y002865D03*
D535*
X009426Y002853D03*
X009426Y002852D03*
D536*
X009426Y002853D03*
X009426Y002854D03*
D537*
X008741Y002855D03*
X008741Y002854D03*
D538*
X008739Y002868D03*
X008739Y002869D03*
X008739Y002869D03*
X009426Y002856D03*
X009426Y002855D03*
X009426Y002854D03*
D539*
X008741Y002854D03*
D540*
X008739Y002868D03*
X009426Y002855D03*
X009426Y002854D03*
D541*
X009426Y002856D03*
X009426Y002858D03*
X008738Y002870D03*
D542*
X008738Y002870D03*
X008738Y002869D03*
X009426Y002858D03*
X009426Y002857D03*
D543*
X008740Y002858D03*
X008740Y002859D03*
D544*
X008740Y002858D03*
D545*
X009427Y002859D03*
X009427Y002859D03*
X009427Y002860D03*
D546*
X009427Y002859D03*
D547*
X009427Y002860D03*
X009427Y002862D03*
X008738Y002873D03*
D548*
X008738Y002873D03*
X008738Y002874D03*
X008738Y002874D03*
X009427Y002861D03*
X009427Y002861D03*
D549*
X008739Y002863D03*
X008739Y002864D03*
D550*
X009427Y002864D03*
X009427Y002864D03*
X009427Y002863D03*
D551*
X008739Y002863D03*
D552*
X009427Y002863D03*
D553*
X009427Y002864D03*
X009427Y002865D03*
X008737Y002877D03*
D554*
X008737Y002878D03*
X008737Y002876D03*
X008737Y002876D03*
X009427Y002866D03*
X009427Y002865D03*
D555*
X008739Y002866D03*
X008739Y002866D03*
D556*
X008737Y002879D03*
X008737Y002879D03*
X009428Y002869D03*
X009428Y002868D03*
X009428Y002866D03*
D557*
X008739Y002867D03*
D558*
X008737Y002878D03*
X009428Y002868D03*
X009428Y002867D03*
D559*
X009428Y002869D03*
X009428Y002870D03*
D560*
X009428Y002870D03*
X009428Y002869D03*
D561*
X008738Y002871D03*
X008738Y002871D03*
D562*
X008737Y002881D03*
X008737Y002881D03*
X008737Y002883D03*
X009428Y002873D03*
X009428Y002871D03*
X009428Y002871D03*
D563*
X008738Y002872D03*
D564*
X008737Y002882D03*
X009428Y002872D03*
D565*
X009428Y002873D03*
X009428Y002874D03*
D566*
X009428Y002874D03*
X009428Y002874D03*
D567*
X008738Y002874D03*
X008738Y002875D03*
D568*
X008738Y002875D03*
D569*
X008736Y002885D03*
X008736Y002886D03*
X009429Y002876D03*
X009429Y002876D03*
X009429Y002875D03*
D570*
X009429Y002875D03*
X008736Y002884D03*
X008736Y002885D03*
D571*
X008736Y002887D03*
X009429Y002878D03*
X009429Y002877D03*
D572*
X009429Y002878D03*
X009429Y002879D03*
X008736Y002886D03*
X008736Y002888D03*
D573*
X009429Y002881D03*
X009429Y002880D03*
X009429Y002879D03*
D574*
X008737Y002879D03*
X008737Y002880D03*
D575*
X009429Y002880D03*
X009429Y002879D03*
D576*
X008737Y002880D03*
D577*
X008735Y002890D03*
X008735Y002891D03*
X009429Y002883D03*
X009429Y002881D03*
D578*
X009429Y002882D03*
X009429Y002883D03*
X008735Y002889D03*
X008735Y002890D03*
D579*
X008736Y002883D03*
D580*
X008736Y002884D03*
X008736Y002884D03*
D581*
X009430Y002885D03*
X009430Y002884D03*
X009430Y002884D03*
D582*
X009430Y002884D03*
D583*
X009430Y002885D03*
X009430Y002887D03*
X008735Y002893D03*
X008735Y002894D03*
D584*
X008735Y002894D03*
X008735Y002894D03*
X009430Y002886D03*
X009430Y002886D03*
D585*
X009430Y002888D03*
X009430Y002889D03*
X009430Y002889D03*
X008735Y002895D03*
X008735Y002896D03*
D586*
X008736Y002888D03*
D587*
X008735Y002895D03*
X009430Y002888D03*
D588*
X008736Y002889D03*
X008736Y002889D03*
D589*
X009430Y002889D03*
X009430Y002890D03*
D590*
X009430Y002890D03*
X009430Y002891D03*
D591*
X008735Y002891D03*
X008735Y002893D03*
D592*
X008734Y002899D03*
X008734Y002899D03*
X009431Y002894D03*
X009431Y002893D03*
X009431Y002891D03*
D593*
X008735Y002892D03*
D594*
X008734Y002898D03*
X008734Y002899D03*
X009431Y002893D03*
X009431Y002892D03*
D595*
X009431Y002894D03*
X009431Y002895D03*
D596*
X009431Y002895D03*
X009431Y002894D03*
D597*
X009431Y002896D03*
X009431Y002896D03*
X009431Y002898D03*
X008734Y002901D03*
X008734Y002903D03*
D598*
X008734Y002898D03*
X008734Y002896D03*
D599*
X008734Y002897D03*
D600*
X008734Y002902D03*
X008734Y002903D03*
X009431Y002897D03*
D601*
X009431Y002898D03*
X009431Y002899D03*
X008733Y002904D03*
D602*
X008733Y002904D03*
X008733Y002904D03*
X009431Y002899D03*
X009431Y002899D03*
D603*
X008734Y002900D03*
X008734Y002901D03*
D604*
X009432Y002901D03*
X009432Y002901D03*
X009432Y002900D03*
D605*
X008734Y002900D03*
D606*
X009432Y002900D03*
D607*
X009432Y002902D03*
X009432Y002903D03*
X008733Y002907D03*
X008733Y002908D03*
D608*
X008733Y002908D03*
X008733Y002906D03*
X009432Y002904D03*
X009432Y002903D03*
D609*
X009432Y002904D03*
X009432Y002905D03*
X009432Y002906D03*
D610*
X009432Y002905D03*
X009432Y002904D03*
D611*
X008733Y002905D03*
X008733Y002906D03*
D612*
X008733Y002905D03*
D613*
X008732Y002910D03*
X008732Y002911D03*
X008732Y002911D03*
X009432Y002908D03*
X009432Y002906D03*
D614*
X009432Y002907D03*
X009432Y002908D03*
X008732Y002910D03*
D615*
X008733Y002909D03*
X008733Y002909D03*
D616*
X008732Y002913D03*
X009433Y002910D03*
X009433Y002909D03*
X009433Y002909D03*
D617*
X008733Y002909D03*
D618*
X008732Y002912D03*
X008732Y002913D03*
X009433Y002909D03*
D619*
X009433Y002910D03*
X009433Y002912D03*
D620*
X009433Y002911D03*
X009433Y002911D03*
D621*
X009433Y002913D03*
X009433Y002914D03*
X009433Y002914D03*
X008732Y002915D03*
X008732Y002916D03*
X008732Y002916D03*
D622*
X008732Y002915D03*
X009433Y002913D03*
D623*
X008732Y002914D03*
X008732Y002914D03*
D624*
X008732Y002914D03*
D625*
X009433Y002914D03*
X009433Y002915D03*
D626*
X009433Y002915D03*
X009433Y002916D03*
D627*
X009434Y002916D03*
X009434Y002918D03*
X009434Y002919D03*
X008731Y002920D03*
X008731Y002919D03*
X008731Y002919D03*
D628*
X008731Y002918D03*
X008731Y002917D03*
D629*
X008731Y002919D03*
X009434Y002918D03*
X009434Y002917D03*
D630*
X008731Y002918D03*
D631*
X008731Y002921D03*
X008731Y002921D03*
X009434Y002920D03*
X009434Y002919D03*
D632*
X009434Y002919D03*
X009434Y002920D03*
X008731Y002920D03*
D633*
X009434Y002921D03*
X009434Y002921D03*
X009434Y002923D03*
D634*
X008731Y002923D03*
X008731Y002922D03*
D635*
X009434Y002922D03*
D636*
X008731Y002923D03*
D637*
X008730Y002924D03*
X009434Y002924D03*
X009434Y002923D03*
D638*
X009434Y002924D03*
X009434Y002924D03*
X008730Y002925D03*
X008730Y002924D03*
X008730Y002924D03*
D639*
X009435Y002925D03*
X009435Y002926D03*
X009435Y002926D03*
D640*
X008730Y002925D03*
D641*
X009435Y002925D03*
D642*
X008730Y002926D03*
X008730Y002926D03*
D643*
X008730Y002927D03*
X008730Y002928D03*
X009435Y002928D03*
X009435Y002927D03*
D644*
X009435Y002928D03*
X009435Y002929D03*
X008730Y002929D03*
X008730Y002928D03*
D645*
X008730Y002929D03*
X008730Y002930D03*
X009435Y002931D03*
X009435Y002930D03*
X009435Y002929D03*
D646*
X009435Y002929D03*
X009435Y002930D03*
X008730Y002929D03*
D647*
X008729Y002930D03*
D648*
X008729Y002931D03*
X008729Y002931D03*
D649*
X009435Y002931D03*
X009435Y002933D03*
D650*
X009436Y002934D03*
X008729Y002933D03*
X008729Y002932D03*
D651*
X009435Y002933D03*
X009435Y002932D03*
D652*
X009436Y002934D03*
X009436Y002934D03*
X009436Y002935D03*
X008729Y002934D03*
X008729Y002933D03*
D653*
X008729Y002934D03*
X008729Y002935D03*
D654*
X008729Y002934D03*
D655*
X008729Y002935D03*
X008729Y002937D03*
X009436Y002938D03*
D656*
X009436Y002937D03*
X009436Y002935D03*
D657*
X009436Y002938D03*
X009436Y002939D03*
X009436Y002939D03*
X008729Y002936D03*
X008729Y002936D03*
D658*
X009436Y002936D03*
X009436Y002936D03*
D659*
X009436Y002940D03*
X009436Y002941D03*
X008728Y002939D03*
X008728Y002938D03*
D660*
X008728Y002938D03*
X009436Y002939D03*
X009436Y002940D03*
D661*
X008728Y002940D03*
X008728Y002939D03*
D662*
X008728Y002939D03*
D663*
X008728Y002940D03*
X008728Y002942D03*
X009437Y002944D03*
X009437Y002945D03*
D664*
X009437Y002945D03*
X009437Y002944D03*
X008728Y002941D03*
X008728Y002941D03*
D665*
X009437Y002941D03*
X009437Y002943D03*
X009437Y002944D03*
D666*
X009437Y002943D03*
X009437Y002942D03*
D667*
X008728Y002943D03*
X008728Y002944D03*
D668*
X008728Y002943D03*
D669*
X008727Y002944D03*
X008727Y002945D03*
X009437Y002949D03*
X009437Y002949D03*
D670*
X009437Y002949D03*
X009437Y002948D03*
X008727Y002945D03*
X008727Y002944D03*
D671*
X008727Y002946D03*
X008727Y002946D03*
X009438Y002950D03*
X009438Y002951D03*
X009438Y002951D03*
D672*
X009437Y002948D03*
X009437Y002946D03*
X009437Y002946D03*
D673*
X009438Y002950D03*
X008727Y002947D03*
D674*
X009437Y002947D03*
D675*
X008727Y002948D03*
X008727Y002949D03*
D676*
X008727Y002948D03*
D677*
X008727Y002949D03*
X008727Y002950D03*
X009438Y002954D03*
X009438Y002955D03*
X009438Y002956D03*
D678*
X009438Y002955D03*
X009438Y002954D03*
X008727Y002950D03*
X008727Y002949D03*
D679*
X008726Y002951D03*
X008726Y002951D03*
D680*
X008726Y002952D03*
D681*
X009438Y002953D03*
X009438Y002952D03*
D682*
X009439Y002959D03*
X009439Y002959D03*
X009439Y002960D03*
X008726Y002954D03*
X008726Y002954D03*
X008726Y002953D03*
D683*
X009438Y002954D03*
X009438Y002953D03*
D684*
X009439Y002959D03*
X008726Y002953D03*
D685*
X008726Y002954D03*
X008726Y002955D03*
X009439Y002960D03*
X009439Y002962D03*
D686*
X009439Y002961D03*
X009439Y002961D03*
X008726Y002955D03*
D687*
X008726Y002956D03*
X008726Y002956D03*
D688*
X009438Y002956D03*
X009438Y002958D03*
D689*
X008726Y002957D03*
D690*
X009438Y002958D03*
X009438Y002957D03*
D691*
X009439Y002965D03*
X009439Y002966D03*
X008725Y002959D03*
X008725Y002959D03*
X008725Y002958D03*
D692*
X008725Y002958D03*
X009439Y002964D03*
X009439Y002965D03*
D693*
X008725Y002960D03*
X008725Y002959D03*
D694*
X008725Y002960D03*
D695*
X008725Y002961D03*
X008725Y002961D03*
X008725Y002963D03*
X009440Y002969D03*
X009440Y002970D03*
D696*
X009440Y002970D03*
X009440Y002969D03*
X008725Y002962D03*
D697*
X009439Y002963D03*
X009439Y002964D03*
X009439Y002964D03*
D698*
X009440Y002972D03*
X008725Y002963D03*
D699*
X009439Y002963D03*
D700*
X009440Y002971D03*
X009440Y002971D03*
X009440Y002973D03*
X008725Y002964D03*
X008725Y002964D03*
D701*
X008724Y002964D03*
X008724Y002965D03*
D702*
X008724Y002965D03*
D703*
X008724Y002966D03*
X008724Y002966D03*
X008724Y002968D03*
X009441Y002975D03*
X009441Y002976D03*
X009441Y002976D03*
D704*
X009440Y002969D03*
X009440Y002968D03*
X009440Y002966D03*
D705*
X009441Y002975D03*
X008724Y002967D03*
D706*
X009440Y002968D03*
X009440Y002967D03*
D707*
X008724Y002968D03*
D708*
X008724Y002969D03*
X008724Y002969D03*
D709*
X008724Y002969D03*
X008724Y002970D03*
X009441Y002979D03*
D710*
X009441Y002979D03*
X008724Y002971D03*
X008724Y002970D03*
D711*
X008723Y002971D03*
X008723Y002973D03*
D712*
X008723Y002972D03*
D713*
X008723Y002973D03*
X008723Y002974D03*
D714*
X009440Y002974D03*
X009440Y002973D03*
D715*
X008723Y002974D03*
X008723Y002974D03*
D716*
X009440Y002974D03*
X009440Y002974D03*
D717*
X008723Y002975D03*
X008723Y002976D03*
D718*
X008723Y002975D03*
D719*
X008723Y002976D03*
X008723Y002978D03*
D720*
X008723Y002977D03*
D721*
X009441Y002978D03*
X009441Y002977D03*
D722*
X009441Y002978D03*
X009441Y002979D03*
D723*
X008722Y002979D03*
X008722Y002978D03*
D724*
X008722Y002979D03*
X008722Y002979D03*
D725*
X008778Y002980D03*
X008778Y002981D03*
X008778Y002981D03*
X008778Y002983D03*
X008778Y002984D03*
X008778Y002984D03*
X008778Y002985D03*
X008778Y002986D03*
X008778Y002986D03*
X008778Y002988D03*
X008778Y002989D03*
X008778Y002989D03*
X008778Y002990D03*
X008778Y002991D03*
X008778Y002991D03*
X008778Y002993D03*
X008778Y002994D03*
X008778Y002994D03*
X008778Y002995D03*
X008778Y002996D03*
X008778Y002996D03*
X008778Y002998D03*
X008778Y002999D03*
X008778Y002999D03*
X008778Y003000D03*
X008778Y003001D03*
X008778Y003001D03*
X008778Y003003D03*
X008778Y003004D03*
X008778Y003004D03*
X008778Y003005D03*
D726*
X009387Y003005D03*
X009387Y003004D03*
X009387Y003004D03*
X009387Y003003D03*
X009387Y003001D03*
X009387Y003001D03*
X009387Y003000D03*
X009387Y002999D03*
X009387Y002999D03*
X009387Y002998D03*
X009387Y002996D03*
X009387Y002996D03*
X009387Y002995D03*
X009387Y002994D03*
X009387Y002994D03*
X009387Y002993D03*
X009387Y002991D03*
X009387Y002991D03*
X009387Y002990D03*
X009387Y002989D03*
X009387Y002989D03*
X009387Y002988D03*
X009387Y002986D03*
X009387Y002986D03*
X009387Y002985D03*
X009387Y002984D03*
X009387Y002984D03*
X009387Y002983D03*
X009387Y002981D03*
X009387Y002981D03*
X009387Y002980D03*
D727*
X008778Y002980D03*
X008778Y002982D03*
X008778Y002983D03*
X008778Y002984D03*
X008778Y002985D03*
X008778Y002987D03*
X008778Y002988D03*
X008778Y002989D03*
X008778Y002990D03*
X008778Y002992D03*
X008778Y002993D03*
X008778Y002994D03*
X008778Y002995D03*
X008778Y002997D03*
X008778Y002998D03*
X008778Y002999D03*
X008778Y003000D03*
X008778Y003002D03*
X008778Y003003D03*
X008778Y003004D03*
X008778Y003005D03*
D728*
X009387Y003005D03*
X009387Y003004D03*
X009387Y003003D03*
X009387Y003002D03*
X009387Y003000D03*
X009387Y002999D03*
X009387Y002998D03*
X009387Y002997D03*
X009387Y002995D03*
X009387Y002994D03*
X009387Y002993D03*
X009387Y002992D03*
X009387Y002990D03*
X009387Y002989D03*
X009387Y002988D03*
X009387Y002987D03*
X009387Y002985D03*
X009387Y002984D03*
X009387Y002983D03*
X009387Y002982D03*
X009387Y002980D03*
D729*
X009082Y003006D03*
X009082Y003006D03*
X009082Y003008D03*
X009082Y003009D03*
X009082Y003009D03*
X009082Y003010D03*
X009082Y003011D03*
X009082Y003011D03*
X009082Y003013D03*
X009082Y003014D03*
X009082Y003014D03*
X009082Y003015D03*
X009082Y003016D03*
X009082Y003016D03*
X009082Y003018D03*
X009082Y003019D03*
X009082Y003019D03*
X009082Y003020D03*
X009082Y003021D03*
X009082Y003021D03*
X009082Y003023D03*
X009082Y003024D03*
X009082Y003024D03*
X009082Y003025D03*
X009082Y003026D03*
X009082Y003155D03*
X009082Y003156D03*
X009082Y003156D03*
X009082Y003158D03*
X009082Y003159D03*
X009082Y003159D03*
X009082Y003160D03*
X009082Y003161D03*
X009082Y003161D03*
X009082Y003163D03*
X009082Y003164D03*
X009082Y003164D03*
X009082Y003165D03*
X009082Y003166D03*
X009082Y003166D03*
X009082Y003168D03*
X009082Y003169D03*
X009082Y003169D03*
X009082Y003170D03*
X009082Y003171D03*
X009082Y003171D03*
X009082Y003173D03*
X009082Y003174D03*
X009082Y003174D03*
X009082Y003175D03*
X009082Y003176D03*
X009082Y003176D03*
X009082Y003178D03*
X009082Y003179D03*
X009082Y003179D03*
X009082Y003180D03*
X009082Y003181D03*
X009082Y003181D03*
X009082Y003183D03*
X009082Y003184D03*
X009082Y003184D03*
X009082Y003185D03*
X009082Y003186D03*
X009082Y003186D03*
X009082Y003188D03*
X009082Y003189D03*
X009082Y003189D03*
X009082Y003190D03*
X009082Y003191D03*
D730*
X009082Y003190D03*
X009082Y003189D03*
X009082Y003188D03*
X009082Y003187D03*
X009082Y003185D03*
X009082Y003184D03*
X009082Y003183D03*
X009082Y003182D03*
X009082Y003180D03*
X009082Y003179D03*
X009082Y003178D03*
X009082Y003177D03*
X009082Y003175D03*
X009082Y003174D03*
X009082Y003173D03*
X009082Y003172D03*
X009082Y003170D03*
X009082Y003169D03*
X009082Y003168D03*
X009082Y003167D03*
X009082Y003165D03*
X009082Y003164D03*
X009082Y003163D03*
X009082Y003162D03*
X009082Y003160D03*
X009082Y003159D03*
X009082Y003158D03*
X009082Y003157D03*
X009082Y003155D03*
X009082Y003025D03*
X009082Y003024D03*
X009082Y003023D03*
X009082Y003022D03*
X009082Y003020D03*
X009082Y003019D03*
X009082Y003018D03*
X009082Y003017D03*
X009082Y003015D03*
X009082Y003014D03*
X009082Y003013D03*
X009082Y003012D03*
X009082Y003010D03*
X009082Y003009D03*
X009082Y003008D03*
X009082Y003007D03*
D731*
X008809Y003026D03*
X008809Y003028D03*
X008809Y003029D03*
X008809Y003029D03*
X008809Y003030D03*
X008809Y003031D03*
X008809Y003031D03*
X008809Y003033D03*
X008809Y003034D03*
X008809Y003034D03*
X008809Y003035D03*
X008809Y003036D03*
X008809Y003036D03*
X008809Y003038D03*
X008809Y003039D03*
X008809Y003039D03*
X008809Y003040D03*
X008809Y003041D03*
X008809Y003041D03*
X008809Y003043D03*
X008809Y003044D03*
X008809Y003044D03*
X008809Y003045D03*
X008809Y003046D03*
X008809Y003046D03*
X008809Y003048D03*
X008809Y003049D03*
X008809Y003049D03*
X008809Y003050D03*
X008809Y003051D03*
X008809Y003051D03*
X008809Y003053D03*
X008809Y003054D03*
X008809Y003054D03*
X008809Y003055D03*
X008809Y003056D03*
X008809Y003056D03*
X008809Y003058D03*
X008809Y003059D03*
X008809Y003059D03*
X008809Y003060D03*
X008809Y003061D03*
X008809Y003061D03*
X008809Y003063D03*
X008809Y003064D03*
X008809Y003064D03*
X008809Y003065D03*
X008809Y003066D03*
X008809Y003066D03*
X008809Y003068D03*
X008809Y003069D03*
X008809Y003069D03*
X008809Y003070D03*
X008809Y003071D03*
X008809Y003071D03*
X008809Y003073D03*
X008809Y003074D03*
X008809Y003074D03*
X008809Y003075D03*
X008809Y003076D03*
X008809Y003076D03*
X008809Y003078D03*
X008809Y003079D03*
X008809Y003079D03*
X008809Y003080D03*
X008809Y003081D03*
X008809Y003081D03*
X008809Y003083D03*
X008809Y003084D03*
X008809Y003084D03*
X008809Y003085D03*
X008809Y003086D03*
X008809Y003086D03*
X008809Y003088D03*
X008809Y003089D03*
X008809Y003089D03*
X008809Y003090D03*
X008809Y003091D03*
X008809Y003091D03*
X008809Y003093D03*
X008809Y003094D03*
X008809Y003094D03*
X008809Y003095D03*
X008809Y003096D03*
X008809Y003096D03*
X008809Y003098D03*
X008809Y003099D03*
X008809Y003099D03*
X008809Y003100D03*
X008809Y003101D03*
X008809Y003101D03*
X008809Y003103D03*
X008809Y003104D03*
X008809Y003104D03*
X008809Y003105D03*
X008809Y003106D03*
X008809Y003106D03*
X008809Y003108D03*
X008809Y003109D03*
X008809Y003109D03*
X008809Y003110D03*
X008809Y003111D03*
X008809Y003111D03*
X008809Y003113D03*
X008809Y003114D03*
X008809Y003114D03*
X008809Y003115D03*
X008809Y003116D03*
X008809Y003116D03*
X008809Y003118D03*
X008809Y003119D03*
X008809Y003119D03*
X008809Y003120D03*
X008809Y003121D03*
X008809Y003121D03*
X008809Y003123D03*
X008809Y003124D03*
X008809Y003124D03*
X008809Y003125D03*
X008809Y003126D03*
X008809Y003126D03*
X008809Y003128D03*
X008809Y003129D03*
X008809Y003129D03*
X008809Y003130D03*
X008809Y003131D03*
X008809Y003131D03*
X008809Y003133D03*
X008809Y003134D03*
X008809Y003134D03*
X008809Y003135D03*
X008809Y003136D03*
X008809Y003136D03*
X008809Y003138D03*
X008809Y003139D03*
X008809Y003139D03*
X008809Y003140D03*
X008809Y003141D03*
X008809Y003141D03*
X008809Y003143D03*
X008809Y003144D03*
X008809Y003144D03*
X008809Y003145D03*
X008809Y003146D03*
X008809Y003146D03*
X008809Y003148D03*
X008809Y003149D03*
X008809Y003149D03*
X008809Y003150D03*
X008809Y003151D03*
X008809Y003151D03*
X008809Y003153D03*
X008809Y003154D03*
X008809Y003154D03*
D732*
X009364Y003154D03*
X009364Y003154D03*
X009364Y003153D03*
X009364Y003151D03*
X009364Y003151D03*
X009364Y003150D03*
X009364Y003149D03*
X009364Y003149D03*
X009364Y003148D03*
X009364Y003146D03*
X009364Y003146D03*
X009364Y003145D03*
X009364Y003144D03*
X009364Y003144D03*
X009364Y003143D03*
X009364Y003141D03*
X009364Y003141D03*
X009364Y003140D03*
X009364Y003139D03*
X009364Y003139D03*
X009364Y003138D03*
X009364Y003136D03*
X009364Y003136D03*
X009364Y003135D03*
X009364Y003134D03*
X009364Y003134D03*
X009364Y003133D03*
X009364Y003131D03*
X009364Y003131D03*
X009364Y003130D03*
X009364Y003129D03*
X009364Y003129D03*
X009364Y003128D03*
X009364Y003126D03*
X009364Y003126D03*
X009364Y003125D03*
X009364Y003124D03*
X009364Y003124D03*
X009364Y003123D03*
X009364Y003121D03*
X009364Y003121D03*
X009364Y003120D03*
X009364Y003119D03*
X009364Y003119D03*
X009364Y003118D03*
X009364Y003116D03*
X009364Y003116D03*
X009364Y003115D03*
X009364Y003114D03*
X009364Y003114D03*
X009364Y003113D03*
X009364Y003111D03*
X009364Y003111D03*
X009364Y003110D03*
X009364Y003109D03*
X009364Y003109D03*
X009364Y003108D03*
X009364Y003106D03*
X009364Y003106D03*
X009364Y003105D03*
X009364Y003104D03*
X009364Y003104D03*
X009364Y003103D03*
X009364Y003101D03*
X009364Y003101D03*
X009364Y003100D03*
X009364Y003099D03*
X009364Y003099D03*
X009364Y003098D03*
X009364Y003096D03*
X009364Y003096D03*
X009364Y003095D03*
X009364Y003094D03*
X009364Y003094D03*
X009364Y003093D03*
X009364Y003091D03*
X009364Y003091D03*
X009364Y003090D03*
X009364Y003089D03*
X009364Y003089D03*
X009364Y003088D03*
X009364Y003086D03*
X009364Y003086D03*
X009364Y003085D03*
X009364Y003084D03*
X009364Y003084D03*
X009364Y003083D03*
X009364Y003081D03*
X009364Y003081D03*
X009364Y003080D03*
X009364Y003079D03*
X009364Y003079D03*
X009364Y003078D03*
X009364Y003076D03*
X009364Y003076D03*
X009364Y003075D03*
X009364Y003074D03*
X009364Y003074D03*
X009364Y003073D03*
X009364Y003071D03*
X009364Y003071D03*
X009364Y003070D03*
X009364Y003069D03*
X009364Y003069D03*
X009364Y003068D03*
X009364Y003066D03*
X009364Y003066D03*
X009364Y003065D03*
X009364Y003064D03*
X009364Y003064D03*
X009364Y003063D03*
X009364Y003061D03*
X009364Y003061D03*
X009364Y003060D03*
X009364Y003059D03*
X009364Y003059D03*
X009364Y003058D03*
X009364Y003056D03*
X009364Y003056D03*
X009364Y003055D03*
X009364Y003054D03*
X009364Y003054D03*
X009364Y003053D03*
X009364Y003051D03*
X009364Y003051D03*
X009364Y003050D03*
X009364Y003049D03*
X009364Y003049D03*
X009364Y003048D03*
X009364Y003046D03*
X009364Y003046D03*
X009364Y003045D03*
X009364Y003044D03*
X009364Y003044D03*
X009364Y003043D03*
X009364Y003041D03*
X009364Y003041D03*
X009364Y003040D03*
X009364Y003039D03*
X009364Y003039D03*
X009364Y003038D03*
X009364Y003036D03*
X009364Y003036D03*
X009364Y003035D03*
X009364Y003034D03*
X009364Y003034D03*
X009364Y003033D03*
X009364Y003031D03*
X009364Y003031D03*
X009364Y003030D03*
X009364Y003029D03*
X009364Y003029D03*
X009364Y003028D03*
X009364Y003026D03*
D733*
X008809Y003027D03*
X008809Y003028D03*
X008809Y003029D03*
X008809Y003030D03*
X008809Y003032D03*
X008809Y003033D03*
X008809Y003034D03*
X008809Y003035D03*
X008809Y003037D03*
X008809Y003038D03*
X008809Y003039D03*
X008809Y003040D03*
X008809Y003042D03*
X008809Y003043D03*
X008809Y003044D03*
X008809Y003045D03*
X008809Y003047D03*
X008809Y003048D03*
X008809Y003049D03*
X008809Y003050D03*
X008809Y003052D03*
X008809Y003053D03*
X008809Y003054D03*
X008809Y003055D03*
X008809Y003057D03*
X008809Y003058D03*
X008809Y003059D03*
X008809Y003060D03*
X008809Y003062D03*
X008809Y003063D03*
X008809Y003064D03*
X008809Y003065D03*
X008809Y003067D03*
X008809Y003068D03*
X008809Y003069D03*
X008809Y003070D03*
X008809Y003072D03*
X008809Y003073D03*
X008809Y003074D03*
X008809Y003075D03*
X008809Y003077D03*
X008809Y003078D03*
X008809Y003079D03*
X008809Y003080D03*
X008809Y003082D03*
X008809Y003083D03*
X008809Y003084D03*
X008809Y003085D03*
X008809Y003087D03*
X008809Y003088D03*
X008809Y003089D03*
X008809Y003090D03*
X008809Y003092D03*
X008809Y003093D03*
X008809Y003094D03*
X008809Y003095D03*
X008809Y003097D03*
X008809Y003098D03*
X008809Y003099D03*
X008809Y003100D03*
X008809Y003102D03*
X008809Y003103D03*
X008809Y003104D03*
X008809Y003105D03*
X008809Y003107D03*
X008809Y003108D03*
X008809Y003109D03*
X008809Y003110D03*
X008809Y003112D03*
X008809Y003113D03*
X008809Y003114D03*
X008809Y003115D03*
X008809Y003117D03*
X008809Y003118D03*
X008809Y003119D03*
X008809Y003120D03*
X008809Y003122D03*
X008809Y003123D03*
X008809Y003124D03*
X008809Y003125D03*
X008809Y003127D03*
X008809Y003128D03*
X008809Y003129D03*
X008809Y003130D03*
X008809Y003132D03*
X008809Y003133D03*
X008809Y003134D03*
X008809Y003135D03*
X008809Y003137D03*
X008809Y003138D03*
X008809Y003139D03*
X008809Y003140D03*
X008809Y003142D03*
X008809Y003143D03*
X008809Y003144D03*
X008809Y003145D03*
X008809Y003147D03*
X008809Y003148D03*
X008809Y003149D03*
X008809Y003150D03*
X008809Y003152D03*
X008809Y003153D03*
X008809Y003154D03*
D734*
X009364Y003154D03*
X009364Y003153D03*
X009364Y003152D03*
X009364Y003150D03*
X009364Y003149D03*
X009364Y003148D03*
X009364Y003147D03*
X009364Y003145D03*
X009364Y003144D03*
X009364Y003143D03*
X009364Y003142D03*
X009364Y003140D03*
X009364Y003139D03*
X009364Y003138D03*
X009364Y003137D03*
X009364Y003135D03*
X009364Y003134D03*
X009364Y003133D03*
X009364Y003132D03*
X009364Y003130D03*
X009364Y003129D03*
X009364Y003128D03*
X009364Y003127D03*
X009364Y003125D03*
X009364Y003124D03*
X009364Y003123D03*
X009364Y003122D03*
X009364Y003120D03*
X009364Y003119D03*
X009364Y003118D03*
X009364Y003117D03*
X009364Y003115D03*
X009364Y003114D03*
X009364Y003113D03*
X009364Y003112D03*
X009364Y003110D03*
X009364Y003109D03*
X009364Y003108D03*
X009364Y003107D03*
X009364Y003105D03*
X009364Y003104D03*
X009364Y003103D03*
X009364Y003102D03*
X009364Y003100D03*
X009364Y003099D03*
X009364Y003098D03*
X009364Y003097D03*
X009364Y003095D03*
X009364Y003094D03*
X009364Y003093D03*
X009364Y003092D03*
X009364Y003090D03*
X009364Y003089D03*
X009364Y003088D03*
X009364Y003087D03*
X009364Y003085D03*
X009364Y003084D03*
X009364Y003083D03*
X009364Y003082D03*
X009364Y003080D03*
X009364Y003079D03*
X009364Y003078D03*
X009364Y003077D03*
X009364Y003075D03*
X009364Y003074D03*
X009364Y003073D03*
X009364Y003072D03*
X009364Y003070D03*
X009364Y003069D03*
X009364Y003068D03*
X009364Y003067D03*
X009364Y003065D03*
X009364Y003064D03*
X009364Y003063D03*
X009364Y003062D03*
X009364Y003060D03*
X009364Y003059D03*
X009364Y003058D03*
X009364Y003057D03*
X009364Y003055D03*
X009364Y003054D03*
X009364Y003053D03*
X009364Y003052D03*
X009364Y003050D03*
X009364Y003049D03*
X009364Y003048D03*
X009364Y003047D03*
X009364Y003045D03*
X009364Y003044D03*
X009364Y003043D03*
X009364Y003042D03*
X009364Y003040D03*
X009364Y003039D03*
X009364Y003038D03*
X009364Y003037D03*
X009364Y003035D03*
X009364Y003034D03*
X009364Y003033D03*
X009364Y003032D03*
X009364Y003030D03*
X009364Y003029D03*
X009364Y003028D03*
X009364Y003027D03*
D735*
X009082Y003191D03*
D736*
X009082Y003192D03*
D737*
X009082Y003193D03*
X009082Y003194D03*
X009082Y003194D03*
X009082Y003195D03*
D738*
X009082Y003195D03*
X009082Y003194D03*
X009082Y003193D03*
D739*
X009083Y003196D03*
D740*
X009082Y003196D03*
X009082Y003198D03*
X009082Y003199D03*
D741*
X009082Y003198D03*
X009082Y003197D03*
D742*
X009083Y003199D03*
D743*
X009083Y003199D03*
D744*
X009082Y003200D03*
X009082Y003201D03*
X009082Y003201D03*
D745*
X009082Y003200D03*
D746*
X009083Y003202D03*
D747*
X009083Y003203D03*
D748*
X009082Y003203D03*
D749*
X009082Y003204D03*
X009082Y003204D03*
D750*
X009083Y003204D03*
D751*
X009083Y003205D03*
D752*
X009082Y003205D03*
D753*
X009082Y003206D03*
X009082Y003206D03*
D754*
X009083Y003207D03*
D755*
X009083Y003208D03*
D756*
X009082Y003208D03*
D757*
X009082Y003209D03*
X009082Y003209D03*
D758*
X009083Y003209D03*
D759*
X009082Y003210D03*
X009082Y003211D03*
X009082Y003211D03*
D760*
X009082Y003210D03*
D761*
X009082Y003212D03*
X009082Y003213D03*
D762*
X009082Y003213D03*
X009082Y003214D03*
D763*
X009082Y003214D03*
X009082Y003215D03*
D764*
X009082Y003215D03*
X009082Y003214D03*
D765*
X009082Y003216D03*
X009082Y003216D03*
X009082Y003218D03*
D766*
X009082Y003217D03*
D767*
X009082Y003218D03*
X009082Y003219D03*
D768*
X009082Y003219D03*
X009082Y003219D03*
D769*
X009082Y003220D03*
X009082Y003221D03*
D770*
X009082Y003220D03*
D771*
X009082Y003221D03*
D772*
X009082Y003222D03*
D773*
X009082Y003223D03*
D774*
X009082Y003223D03*
D775*
X009082Y003224D03*
X009082Y003224D03*
D776*
X009082Y003224D03*
D777*
X009082Y003225D03*
D778*
X009082Y003225D03*
D779*
X009082Y003226D03*
D780*
X009082Y003226D03*
D781*
X009082Y003227D03*
D782*
X009082Y003228D03*
D783*
X009082Y003228D03*
D784*
X009082Y003229D03*
X009082Y003229D03*
D785*
X009082Y003229D03*
D786*
X009082Y003230D03*
D787*
X009082Y003230D03*
D788*
X009082Y003231D03*
X009082Y003231D03*
D789*
X009082Y003232D03*
D790*
X009082Y003233D03*
D791*
X009082Y003233D03*
D792*
X009082Y003234D03*
D793*
X009082Y003234D03*
D794*
X009082Y003234D03*
D795*
X009082Y003235D03*
D796*
X009082Y003235D03*
D797*
X009082Y003236D03*
D798*
X009082Y003236D03*
D799*
X009082Y003237D03*
D800*
X009082Y003238D03*
D801*
X009082Y003238D03*
D802*
X009082Y003239D03*
D803*
X009082Y003239D03*
D804*
X009082Y003239D03*
D805*
X009082Y003240D03*
D806*
X009082Y003240D03*
D807*
X009082Y003241D03*
D808*
X009082Y003241D03*
D809*
X009082Y003242D03*
D810*
X009082Y003243D03*
D811*
X009082Y003243D03*
D812*
X009082Y003244D03*
D813*
X009082Y003244D03*
D814*
X009082Y003244D03*
D815*
X009082Y003245D03*
D816*
X009082Y003245D03*
D817*
X009082Y003246D03*
D818*
X009082Y003246D03*
D819*
X009082Y003247D03*
D820*
X009082Y003248D03*
D821*
X009082Y003248D03*
D822*
X009082Y003249D03*
D823*
X009082Y003249D03*
D824*
X009082Y003249D03*
D825*
X009082Y003250D03*
D826*
X009082Y003250D03*
D827*
X009082Y003251D03*
D828*
X009082Y003251D03*
D829*
X009082Y003252D03*
D830*
X009082Y003253D03*
D831*
X009082Y003253D03*
D832*
X009082Y003254D03*
D833*
X009082Y003254D03*
D834*
X009082Y003254D03*
D835*
X009082Y003255D03*
D836*
X009082Y003255D03*
D837*
X009082Y003256D03*
D838*
X009082Y003256D03*
D839*
X009082Y003257D03*
D840*
X009082Y003258D03*
D841*
X009082Y003258D03*
D842*
X009082Y003259D03*
D843*
X009082Y003259D03*
D844*
X009082Y003259D03*
D845*
X009082Y003260D03*
D846*
X009082Y003260D03*
D847*
X009082Y003261D03*
D848*
X009082Y003261D03*
D849*
X009082Y003262D03*
D850*
X009082Y003263D03*
D851*
X009082Y003263D03*
D852*
X009082Y003264D03*
D853*
X009082Y003264D03*
D854*
X009082Y003264D03*
D855*
X009082Y003265D03*
D856*
X009082Y003265D03*
D857*
X009082Y003266D03*
D858*
X009082Y003266D03*
D859*
X009082Y003267D03*
D860*
X009082Y003268D03*
D861*
X009082Y003268D03*
D862*
X009082Y003269D03*
D863*
X009082Y003269D03*
D864*
X009082Y003269D03*
D865*
X009082Y003270D03*
D866*
X009082Y003270D03*
D867*
X009082Y003271D03*
D868*
X009082Y003271D03*
D869*
X009082Y003272D03*
D870*
X009082Y003273D03*
D871*
X009082Y003273D03*
D872*
X009082Y003274D03*
D873*
X009082Y003274D03*
D874*
X009082Y003274D03*
D875*
X009082Y003275D03*
D876*
X009082Y003275D03*
D877*
X009082Y003276D03*
D878*
X009082Y003276D03*
D879*
X009082Y003277D03*
D880*
X009082Y003278D03*
D881*
X009082Y003278D03*
D882*
X009082Y003279D03*
D883*
X009082Y003279D03*
D884*
X009082Y003279D03*
D885*
X009082Y003280D03*
D886*
X009082Y003280D03*
D887*
X009082Y003281D03*
D888*
X009082Y003281D03*
D889*
X009082Y003282D03*
D890*
X009082Y003283D03*
D891*
X009082Y003283D03*
D892*
X009082Y003284D03*
D893*
X009082Y003284D03*
D894*
X009082Y003284D03*
D895*
X009082Y003285D03*
D896*
X009082Y003285D03*
D897*
X009082Y003286D03*
D898*
X009082Y003286D03*
D899*
X009082Y003287D03*
D900*
X009082Y003288D03*
D901*
X009082Y003288D03*
D902*
X009082Y003289D03*
D903*
X009082Y003289D03*
D904*
X009082Y003289D03*
D905*
X009082Y003290D03*
D906*
X009082Y003290D03*
D907*
X009082Y003291D03*
D908*
X009082Y003291D03*
D909*
X009082Y003292D03*
D910*
X009082Y003293D03*
D911*
X009082Y003293D03*
D912*
X009082Y003294D03*
D913*
X009082Y003294D03*
D914*
X009082Y003294D03*
D915*
X009082Y003295D03*
D916*
X009082Y003295D03*
D917*
X009082Y003296D03*
D918*
X009082Y003296D03*
D919*
X009082Y003297D03*
D920*
X009082Y003298D03*
D921*
X009082Y003298D03*
D922*
X009082Y003299D03*
D923*
X009082Y003299D03*
D924*
X009082Y003299D03*
D925*
X009082Y003300D03*
D926*
X009082Y003300D03*
D927*
X009082Y003301D03*
D928*
X009082Y003301D03*
D929*
X009082Y003302D03*
D930*
X009082Y003303D03*
D931*
X009082Y003303D03*
D932*
X009082Y003304D03*
D933*
X009082Y003304D03*
D934*
X009082Y003304D03*
D935*
X009082Y003305D03*
D936*
X009082Y003305D03*
D937*
X009082Y003306D03*
D938*
X009082Y003306D03*
D939*
X009082Y003307D03*
D940*
X009082Y003308D03*
D941*
X009082Y003308D03*
D942*
X009082Y003309D03*
D943*
X009082Y003309D03*
D944*
X009082Y003309D03*
D945*
X009082Y003310D03*
D946*
X009082Y003310D03*
D947*
X009082Y003311D03*
D948*
X009082Y003311D03*
D949*
X009082Y003312D03*
D950*
X009082Y003313D03*
D951*
X009082Y003313D03*
D952*
X009082Y003314D03*
D953*
X009082Y003314D03*
D954*
X009082Y003314D03*
D955*
X009082Y003315D03*
D956*
X009082Y003315D03*
D957*
X009082Y003316D03*
D958*
X009082Y003316D03*
D959*
X009082Y003317D03*
D960*
X009082Y003318D03*
D961*
X009082Y003318D03*
D962*
X009082Y003319D03*
D963*
X009082Y003319D03*
D964*
X009082Y003319D03*
D965*
X009082Y003320D03*
D966*
X009082Y003320D03*
D967*
X009082Y003321D03*
D968*
X009082Y003321D03*
D969*
X009082Y003322D03*
D970*
X009082Y003323D03*
D971*
X009082Y003323D03*
D972*
X009082Y003324D03*
D973*
X009082Y003324D03*
D974*
X009082Y003324D03*
D975*
X009082Y003325D03*
D976*
X009082Y003325D03*
D977*
X009082Y003326D03*
D978*
X009082Y003326D03*
D979*
X009082Y003327D03*
D980*
X009082Y003328D03*
D981*
X009082Y003328D03*
D982*
X009082Y003329D03*
D983*
X009082Y003329D03*
D984*
X009082Y003329D03*
D985*
X009082Y003330D03*
D986*
X009082Y003330D03*
D987*
X009082Y003331D03*
D988*
X009082Y003331D03*
D989*
X009082Y003332D03*
D990*
X009082Y003333D03*
D991*
X009082Y003333D03*
D992*
X009082Y003334D03*
D993*
X009082Y003334D03*
D994*
X009082Y003334D03*
D995*
X009082Y003335D03*
D996*
X009082Y003335D03*
D997*
X009082Y003336D03*
D998*
X009082Y003336D03*
D999*
X009082Y003337D03*
D1000*
X009082Y003338D03*
D1001*
X009082Y003338D03*
D1002*
X009082Y003339D03*
D1003*
X009082Y003339D03*
D1004*
X009082Y003339D03*
D1005*
X009082Y003340D03*
D1006*
X009082Y003340D03*
D1007*
X009082Y003341D03*
D1008*
X009082Y003341D03*
D1009*
X009082Y003342D03*
D1010*
X009082Y003343D03*
D1011*
X009082Y003343D03*
D1012*
X009082Y003344D03*
D1013*
X009082Y003344D03*
D1014*
X009082Y003344D03*
D1015*
X009082Y003345D03*
D1016*
X009082Y003345D03*
D1017*
X009082Y003346D03*
D1018*
X009082Y003346D03*
D1019*
X009082Y003347D03*
D1020*
X009082Y003348D03*
D1021*
X009082Y003348D03*
D1022*
X009082Y003349D03*
D1023*
X009082Y003349D03*
D1024*
X009082Y003349D03*
D1025*
X009082Y003350D03*
D1026*
X009082Y003350D03*
D1027*
X009082Y003351D03*
D1028*
X009082Y003351D03*
D1029*
X009082Y003352D03*
D1030*
X009082Y003353D03*
D1031*
X009082Y003353D03*
D1032*
X009082Y003354D03*
D1033*
X009082Y003354D03*
D1034*
X009082Y003354D03*
D1035*
X009082Y003355D03*
D1036*
X009082Y003355D03*
D1037*
X009082Y003356D03*
D1038*
X009082Y003356D03*
D1039*
X009082Y003357D03*
D1040*
X009082Y003358D03*
D1041*
X009082Y003358D03*
D1042*
X009082Y003359D03*
D1043*
X009082Y003359D03*
D1044*
X009082Y003359D03*
D1045*
X009082Y003360D03*
D1046*
X009082Y003360D03*
D1047*
X009082Y003361D03*
D1048*
X009082Y003361D03*
D1049*
X009082Y003362D03*
D1050*
X009082Y003363D03*
D1051*
X009082Y003363D03*
D1052*
X009082Y003364D03*
D1053*
X009082Y003364D03*
D1054*
X009082Y003364D03*
D1055*
X009082Y003365D03*
D1056*
X009082Y003365D03*
D1057*
X009082Y003366D03*
D1058*
X009082Y003366D03*
D1059*
X009082Y003367D03*
D1060*
X009082Y003368D03*
D1061*
X009082Y003368D03*
D1062*
X009082Y003369D03*
D1063*
X009082Y003369D03*
D1064*
X009082Y003369D03*
D1065*
X009082Y003370D03*
D1066*
X009082Y003370D03*
D1067*
X009082Y003371D03*
D1068*
X009082Y003371D03*
D1069*
X009082Y003372D03*
D1070*
X009082Y003373D03*
D1071*
X009082Y003373D03*
D1072*
X009082Y003374D03*
D1073*
X009082Y003374D03*
D1074*
X009082Y003374D03*
D1075*
X009082Y003375D03*
D1076*
X009082Y003375D03*
D1077*
X009082Y003376D03*
D1078*
X009082Y003376D03*
D1079*
X009082Y003377D03*
D1080*
X009082Y003378D03*
D1081*
X009082Y003378D03*
D1082*
X009082Y003379D03*
D1083*
X009082Y003379D03*
D1084*
X009082Y003379D03*
D1085*
X009082Y003380D03*
D1086*
X009082Y003380D03*
D1087*
X009082Y003381D03*
D1088*
X009081Y003381D03*
D1089*
X008579Y002328D02*
X008579Y002328D01*
X008579Y002328D01*
X008578Y002328D01*
X008578Y002328D01*
X008578Y002328D01*
X008578Y002328D01*
X008578Y002328D01*
X008578Y002328D01*
X008577Y002328D01*
X008577Y002328D01*
X008577Y002328D01*
X008577Y002328D01*
X008577Y002328D01*
X008577Y002328D01*
X008577Y002328D01*
X008577Y002329D01*
X008576Y002328D02*
X008576Y002328D01*
X008576Y002328D01*
X008576Y002328D01*
X008576Y002328D01*
X008576Y002328D01*
X008576Y002328D01*
X008575Y002328D01*
X008575Y002328D01*
X008575Y002328D01*
X008574Y002328D01*
X008574Y002328D01*
X008574Y002328D01*
X008574Y002328D01*
X008574Y002328D01*
X008573Y002328D01*
X008573Y002328D01*
X008573Y002328D01*
X008573Y002328D01*
X008573Y002328D01*
X008573Y002329D01*
X008573Y002329D01*
X008573Y002328D02*
X008574Y002328D01*
X008574Y002328D01*
X008574Y002328D01*
X008575Y002328D01*
X008575Y002327D01*
X008575Y002327D01*
X008575Y002327D01*
X008575Y002328D02*
X008575Y002328D01*
X008576Y002328D01*
X008576Y002328D01*
X008578Y002327D02*
X008578Y002328D01*
X008579Y002328D01*
X008579Y002328D01*
X008572Y002327D02*
X008572Y002327D01*
X008571Y002328D02*
X008572Y002328D01*
X008571Y002328D02*
X008571Y002328D01*
X008571Y002328D01*
X008571Y002328D01*
X008570Y002328D01*
X008570Y002328D01*
X008570Y002328D01*
X008571Y002328D01*
X008571Y002328D01*
X008570Y002328D01*
X008569Y002328D02*
X008570Y002329D01*
X008569Y002328D02*
X008569Y002328D01*
X008569Y002328D01*
X008569Y002328D01*
X008569Y002328D01*
X008568Y002328D01*
X008568Y002328D01*
X008567Y002328D01*
X008567Y002328D01*
X008567Y002328D01*
X008567Y002328D01*
X008567Y002328D01*
X008567Y002328D01*
X008567Y002328D01*
X008567Y002328D01*
X008567Y002328D01*
X008568Y002328D01*
X008568Y002328D01*
X008568Y002328D01*
X008569Y002328D01*
X008569Y002328D01*
X008571Y002329D02*
X008571Y002329D01*
X008566Y002329D02*
X008566Y002329D01*
X008566Y002328D02*
X008566Y002328D01*
X008566Y002328D01*
X008565Y002328D01*
X008566Y002328D01*
X008566Y002328D01*
X008565Y002329D02*
X008564Y002328D01*
X008564Y002328D01*
X008564Y002328D01*
X008563Y002328D01*
X008563Y002328D01*
X008563Y002328D01*
X008563Y002328D01*
X008563Y002328D01*
X008563Y002328D01*
X008563Y002328D01*
X008563Y002328D01*
X008562Y002328D01*
X008562Y002328D01*
X008562Y002328D01*
X008562Y002328D01*
X008562Y002328D01*
X008562Y002328D01*
X008562Y002328D01*
X008561Y002328D01*
X008561Y002328D01*
X008561Y002328D01*
X008561Y002328D01*
X008561Y002328D01*
X008560Y002328D01*
X008560Y002329D01*
X008560Y002328D01*
X008561Y002328D02*
X008562Y002328D01*
X008562Y002328D01*
X008563Y002328D02*
X008564Y002328D01*
X008563Y002328D01*
D1090*
X005160Y005843D02*
X005160Y006643D01*
M02*
