G75*
%MOIN*%
%OFA0B0*%
%FSLAX24Y24*%
%IPPOS*%
%LPD*%
%AMOC8*
5,1,8,0,0,1.08239X$1,22.5*
%
%ADD10C,0.0080*%
%ADD11R,0.0126X0.0496*%
%ADD12R,0.0500X0.0220*%
%ADD13R,0.0220X0.0500*%
%ADD14R,0.0394X0.0433*%
%ADD15R,0.0433X0.0394*%
%ADD16C,0.0740*%
%ADD17R,0.0740X0.0740*%
%ADD18R,0.0472X0.0217*%
%ADD19R,0.0315X0.0315*%
%ADD20R,0.0354X0.0315*%
%ADD21R,0.0551X0.0157*%
%ADD22R,0.0709X0.0709*%
%ADD23C,0.0476*%
%ADD24C,0.0787*%
%ADD25R,0.0335X0.0295*%
%ADD26R,0.0551X0.0630*%
%ADD27C,0.0160*%
%ADD28C,0.0350*%
%ADD29C,0.0240*%
%ADD30C,0.0100*%
%ADD31C,0.0120*%
D10*
X002760Y000480D02*
X002760Y007880D01*
X002762Y007914D01*
X002768Y007947D01*
X002777Y007979D01*
X002790Y008010D01*
X002806Y008040D01*
X002825Y008067D01*
X002848Y008092D01*
X002873Y008115D01*
X002900Y008134D01*
X002930Y008150D01*
X002961Y008163D01*
X002993Y008172D01*
X003026Y008178D01*
X003060Y008180D01*
X018660Y008180D01*
X018694Y008178D01*
X018727Y008172D01*
X018759Y008163D01*
X018790Y008150D01*
X018820Y008134D01*
X018847Y008115D01*
X018872Y008092D01*
X018895Y008067D01*
X018914Y008040D01*
X018930Y008010D01*
X018943Y007979D01*
X018952Y007947D01*
X018958Y007914D01*
X018960Y007880D01*
X018960Y000480D01*
X018959Y000480D02*
X018957Y000446D01*
X018951Y000413D01*
X018942Y000381D01*
X018929Y000350D01*
X018913Y000320D01*
X018894Y000293D01*
X018871Y000268D01*
X018846Y000245D01*
X018819Y000226D01*
X018789Y000210D01*
X018758Y000197D01*
X018726Y000188D01*
X018693Y000182D01*
X018659Y000180D01*
X018660Y000180D02*
X003060Y000180D01*
X003026Y000182D01*
X002993Y000188D01*
X002961Y000197D01*
X002930Y000210D01*
X002900Y000226D01*
X002873Y000245D01*
X002848Y000268D01*
X002825Y000293D01*
X002806Y000320D01*
X002790Y000350D01*
X002777Y000381D01*
X002768Y000413D01*
X002762Y000446D01*
X002760Y000480D01*
X007360Y003930D02*
X007385Y003955D01*
D11*
X007385Y004824D03*
X007635Y004824D03*
X007885Y004824D03*
X007135Y004824D03*
X006885Y004824D03*
X006635Y004824D03*
X006385Y004824D03*
X006135Y004824D03*
X006135Y002636D03*
X006385Y002636D03*
X006635Y002636D03*
X006885Y002636D03*
X007135Y002636D03*
X007385Y002636D03*
X007635Y002636D03*
X007885Y002636D03*
D12*
X009882Y003140D03*
X009882Y003455D03*
X009882Y003770D03*
X009882Y004085D03*
X009882Y004400D03*
X009882Y004715D03*
X009882Y005030D03*
X009882Y005345D03*
X013262Y005345D03*
X013262Y005030D03*
X013262Y004715D03*
X013262Y004400D03*
X013262Y004085D03*
X013262Y003770D03*
X013262Y003455D03*
X013262Y003140D03*
D13*
X012674Y002553D03*
X012359Y002553D03*
X012044Y002553D03*
X011729Y002553D03*
X011415Y002553D03*
X011100Y002553D03*
X010785Y002553D03*
X010470Y002553D03*
X010470Y005933D03*
X010785Y005933D03*
X011100Y005933D03*
X011415Y005933D03*
X011729Y005933D03*
X012044Y005933D03*
X012359Y005933D03*
X012674Y005933D03*
D14*
X013960Y005384D03*
X013960Y004676D03*
X010010Y005951D03*
X010010Y006659D03*
X008072Y006597D03*
X008072Y005888D03*
X005760Y004704D03*
X005047Y004808D03*
X005047Y005477D03*
X005760Y003996D03*
X005760Y003404D03*
X005760Y002696D03*
X008310Y003426D03*
X008310Y004134D03*
D15*
X007426Y005393D03*
X006718Y005393D03*
X008780Y006555D03*
X009489Y006555D03*
X014055Y005880D03*
X014764Y005880D03*
X014725Y005380D03*
X015394Y005380D03*
X017405Y006230D03*
X018114Y006230D03*
X014357Y002618D03*
X013687Y002618D03*
X013426Y001993D03*
X012718Y001993D03*
X017205Y002230D03*
X017914Y002230D03*
X006489Y002008D03*
X005780Y002008D03*
D16*
X006260Y000680D03*
X007260Y000680D03*
X008260Y000680D03*
X009260Y000680D03*
X010260Y000680D03*
X011260Y000680D03*
X012260Y000680D03*
X013260Y000680D03*
X014260Y000680D03*
X015260Y000680D03*
X016260Y000680D03*
X017260Y000680D03*
X018260Y000680D03*
X018260Y003180D03*
X017260Y003180D03*
X017260Y004180D03*
X018260Y004180D03*
X018260Y005180D03*
X018260Y007680D03*
X017260Y007680D03*
X016260Y007680D03*
X015260Y007680D03*
X014260Y007680D03*
X013260Y007680D03*
X012260Y007680D03*
X011260Y007680D03*
X010260Y007680D03*
X009260Y007680D03*
X008260Y007680D03*
X007260Y007680D03*
X006260Y007680D03*
X005260Y007680D03*
X004260Y007680D03*
X003260Y007680D03*
X003260Y000680D03*
X004260Y000680D03*
X005260Y000680D03*
D17*
X017260Y005180D03*
D18*
X007456Y005868D03*
X006433Y005868D03*
X006433Y006243D03*
X006433Y006617D03*
X007456Y006617D03*
D19*
X008902Y005743D03*
X009492Y005743D03*
X016264Y006230D03*
X016855Y006230D03*
D20*
X014516Y004654D03*
X015343Y004280D03*
X014516Y003906D03*
D21*
X004490Y003924D03*
X004490Y003668D03*
X004490Y004180D03*
X004490Y004436D03*
X004490Y004692D03*
D22*
X003447Y004633D03*
X003447Y003727D03*
D23*
X004549Y003225D03*
X004549Y005135D03*
D24*
X003447Y005601D03*
X003447Y002759D03*
D25*
X015370Y002618D03*
X016499Y002618D03*
X016499Y003367D03*
X015370Y003367D03*
D26*
X005561Y006243D03*
X004458Y006243D03*
D27*
X004401Y006203D02*
X002960Y006203D01*
X002960Y006362D02*
X004003Y006362D01*
X004003Y006300D02*
X004401Y006300D01*
X004401Y006737D01*
X004159Y006737D01*
X004113Y006725D01*
X004072Y006701D01*
X004039Y006668D01*
X004015Y006627D01*
X004003Y006581D01*
X004003Y006300D01*
X004003Y006185D02*
X004003Y005904D01*
X004015Y005858D01*
X004039Y005817D01*
X004072Y005784D01*
X004113Y005760D01*
X004159Y005748D01*
X004401Y005748D01*
X004401Y006185D01*
X004516Y006185D01*
X004516Y006300D01*
X004914Y006300D01*
X004914Y006581D01*
X004902Y006627D01*
X004878Y006668D01*
X004844Y006701D01*
X004803Y006725D01*
X004758Y006737D01*
X004516Y006737D01*
X004516Y006300D01*
X004401Y006300D01*
X004401Y006185D01*
X004003Y006185D01*
X004003Y006045D02*
X003787Y006045D01*
X003761Y006071D02*
X003557Y006155D01*
X003337Y006155D01*
X003133Y006071D01*
X002978Y005915D01*
X002960Y005871D01*
X002960Y007231D01*
X003154Y007150D01*
X003365Y007150D01*
X003560Y007231D01*
X003709Y007380D01*
X003760Y007502D01*
X003810Y007380D01*
X003959Y007231D01*
X004154Y007150D01*
X004365Y007150D01*
X004560Y007231D01*
X004709Y007380D01*
X004760Y007502D01*
X004810Y007380D01*
X004959Y007231D01*
X004980Y007222D01*
X004980Y006781D01*
X004973Y006152D01*
X004914Y006093D01*
X004914Y006185D01*
X004516Y006185D01*
X004516Y005748D01*
X004690Y005748D01*
X004690Y005507D01*
X004629Y005533D01*
X004470Y005533D01*
X004324Y005472D01*
X004212Y005360D01*
X004151Y005214D01*
X004151Y005056D01*
X004203Y004931D01*
X004148Y004931D01*
X004055Y004837D01*
X004055Y003830D01*
X004047Y003816D01*
X004035Y003771D01*
X004035Y003668D01*
X004035Y003566D01*
X004047Y003520D01*
X004071Y003479D01*
X004104Y003445D01*
X004145Y003422D01*
X004191Y003409D01*
X004195Y003409D01*
X004151Y003304D01*
X004151Y003146D01*
X004212Y003000D01*
X004324Y002888D01*
X004470Y002827D01*
X004629Y002827D01*
X004682Y002849D01*
X004665Y002807D01*
X004665Y002673D01*
X004716Y002550D01*
X004790Y002476D01*
X004790Y002388D01*
X004925Y002253D01*
X005048Y002130D01*
X005384Y002130D01*
X005384Y002026D01*
X005762Y002026D01*
X005762Y001989D01*
X005799Y001989D01*
X005799Y001631D01*
X006020Y001631D01*
X006066Y001643D01*
X006107Y001667D01*
X006141Y001700D01*
X006147Y001710D01*
X006206Y001651D01*
X006772Y001651D01*
X006865Y001744D01*
X006865Y001823D01*
X006911Y001872D01*
X007033Y001994D01*
X007094Y002055D01*
X007094Y002055D01*
X007095Y002056D01*
X007095Y002142D01*
X007095Y002208D01*
X007135Y002208D01*
X007221Y002208D01*
X007267Y002220D01*
X007281Y002228D01*
X008014Y002228D01*
X008108Y002322D01*
X008108Y002500D01*
X008180Y002470D01*
X008314Y002470D01*
X008437Y002521D01*
X008531Y002615D01*
X008582Y002738D01*
X008582Y002872D01*
X008531Y002995D01*
X008477Y003049D01*
X008573Y003049D01*
X008666Y003143D01*
X008666Y003708D01*
X008595Y003780D01*
X008622Y003807D01*
X008740Y003689D01*
X008868Y003560D01*
X009343Y003560D01*
X009298Y003515D01*
X009175Y003392D01*
X009175Y002329D01*
X008860Y002015D01*
X008298Y002015D01*
X008048Y001765D01*
X006865Y001765D01*
X006963Y001924D02*
X008206Y001924D01*
X008048Y001765D02*
X007548Y001765D01*
X007360Y001577D01*
X006798Y001577D01*
X006610Y001390D01*
X005923Y001390D01*
X005611Y001078D01*
X005560Y001129D01*
X005365Y001210D01*
X005154Y001210D01*
X004959Y001129D01*
X004810Y000980D01*
X004760Y000858D01*
X004709Y000980D01*
X004560Y001129D01*
X004365Y001210D01*
X004154Y001210D01*
X003959Y001129D01*
X003810Y000980D01*
X003760Y000858D01*
X003709Y000980D01*
X003560Y001129D01*
X003365Y001210D01*
X003154Y001210D01*
X002960Y001129D01*
X002960Y002489D01*
X002978Y002445D01*
X003133Y002289D01*
X003337Y002205D01*
X003557Y002205D01*
X003761Y002289D01*
X003916Y002445D01*
X004001Y002649D01*
X004001Y002869D01*
X003916Y003072D01*
X003776Y003213D01*
X003868Y003213D01*
X003961Y003307D01*
X003961Y004148D01*
X003929Y004180D01*
X003961Y004212D01*
X003961Y005053D01*
X003868Y005147D01*
X003776Y005147D01*
X003916Y005288D01*
X004001Y005491D01*
X004001Y005711D01*
X003916Y005915D01*
X003761Y006071D01*
X003928Y005886D02*
X004008Y005886D01*
X003994Y005728D02*
X004690Y005728D01*
X004690Y005569D02*
X004001Y005569D01*
X003967Y005411D02*
X004262Y005411D01*
X004167Y005252D02*
X003881Y005252D01*
X003921Y005094D02*
X004151Y005094D01*
X004201Y004935D02*
X003961Y004935D01*
X003961Y004777D02*
X004055Y004777D01*
X004055Y004618D02*
X003961Y004618D01*
X003961Y004460D02*
X004055Y004460D01*
X004055Y004301D02*
X003961Y004301D01*
X003961Y004143D02*
X004055Y004143D01*
X004055Y003984D02*
X003961Y003984D01*
X003961Y003826D02*
X004052Y003826D01*
X004035Y003668D02*
X004490Y003668D01*
X004035Y003668D01*
X004035Y003667D02*
X003961Y003667D01*
X003961Y003509D02*
X004054Y003509D01*
X003961Y003350D02*
X004170Y003350D01*
X004151Y003192D02*
X003797Y003192D01*
X003933Y003033D02*
X004198Y003033D01*
X004356Y002875D02*
X003998Y002875D01*
X004001Y002716D02*
X004665Y002716D01*
X004713Y002558D02*
X003963Y002558D01*
X003870Y002399D02*
X004790Y002399D01*
X004937Y002241D02*
X003643Y002241D01*
X003251Y002241D02*
X002960Y002241D01*
X002960Y002399D02*
X003024Y002399D01*
X002960Y002082D02*
X005384Y002082D01*
X005384Y001989D02*
X005384Y001787D01*
X005396Y001741D01*
X005420Y001700D01*
X005453Y001667D01*
X005494Y001643D01*
X005540Y001631D01*
X005762Y001631D01*
X005762Y001989D01*
X005384Y001989D01*
X005384Y001924D02*
X002960Y001924D01*
X002960Y001765D02*
X005390Y001765D01*
X005762Y001765D02*
X005799Y001765D01*
X005799Y001924D02*
X005762Y001924D01*
X006668Y001448D02*
X002960Y001448D01*
X002960Y001607D02*
X007389Y001607D01*
X007095Y002082D02*
X008927Y002082D01*
X009086Y002241D02*
X008027Y002241D01*
X008108Y002399D02*
X009175Y002399D01*
X009175Y002558D02*
X008473Y002558D01*
X008573Y002716D02*
X009175Y002716D01*
X009175Y002875D02*
X008581Y002875D01*
X008493Y003033D02*
X009175Y003033D01*
X009175Y003192D02*
X008666Y003192D01*
X008666Y003350D02*
X009175Y003350D01*
X009291Y003509D02*
X008666Y003509D01*
X008666Y003667D02*
X008761Y003667D01*
X008024Y003780D02*
X007953Y003708D01*
X007953Y003143D01*
X008032Y003064D01*
X008012Y003044D01*
X007755Y003044D01*
X007281Y003044D01*
X007267Y003052D01*
X007221Y003064D01*
X007135Y003064D01*
X007135Y002636D01*
X007135Y002636D01*
X007135Y002208D01*
X007135Y002636D01*
X007135Y002636D01*
X007135Y003064D01*
X007125Y003064D01*
X007125Y003196D01*
X007169Y003240D01*
X007220Y003363D01*
X007220Y003497D01*
X007169Y003620D01*
X007168Y003620D01*
X007346Y003620D01*
X007472Y003745D01*
X007595Y003868D01*
X007595Y003923D01*
X007610Y003908D01*
X007953Y003908D01*
X007953Y003852D01*
X008024Y003780D01*
X007979Y003826D02*
X007552Y003826D01*
X007394Y003667D02*
X007953Y003667D01*
X007953Y003509D02*
X007215Y003509D01*
X007214Y003350D02*
X007953Y003350D01*
X007953Y003192D02*
X007125Y003192D01*
X007135Y003033D02*
X007135Y003033D01*
X007135Y002875D02*
X007135Y002875D01*
X007135Y002716D02*
X007135Y002716D01*
X007135Y002558D02*
X007135Y002558D01*
X007135Y002399D02*
X007135Y002399D01*
X007135Y002241D02*
X007135Y002241D01*
X006885Y002636D02*
X006885Y003430D01*
X006885Y004541D02*
X006885Y004824D01*
X006885Y004824D01*
X006912Y004824D01*
X006912Y004824D01*
X006885Y004824D01*
X006885Y004541D01*
X006885Y004541D01*
X006885Y004618D02*
X006885Y004618D01*
X006885Y004777D02*
X006885Y004777D01*
X006885Y004824D02*
X006885Y004824D01*
X006885Y005016D01*
X006885Y005016D01*
X006885Y004824D01*
X006885Y004824D01*
X006885Y005225D01*
X006718Y005393D01*
X006829Y005769D02*
X006829Y006043D01*
X006826Y006046D01*
X006837Y006065D01*
X006849Y006111D01*
X006849Y006242D01*
X006433Y006242D01*
X006433Y006243D01*
X006849Y006243D01*
X006849Y006374D01*
X006837Y006420D01*
X006826Y006439D01*
X006829Y006442D01*
X006829Y006791D01*
X006735Y006885D01*
X006517Y006885D01*
X006488Y006897D01*
X005540Y006897D01*
X005540Y007222D01*
X005560Y007231D01*
X005709Y007380D01*
X005760Y007502D01*
X005810Y007380D01*
X005959Y007231D01*
X006154Y007150D01*
X006365Y007150D01*
X006560Y007231D01*
X006709Y007380D01*
X006717Y007400D01*
X006802Y007400D01*
X006810Y007380D01*
X006959Y007231D01*
X006980Y007222D01*
X006980Y006998D01*
X007022Y006895D01*
X007093Y006824D01*
X007060Y006791D01*
X007060Y006442D01*
X007154Y006348D01*
X007372Y006348D01*
X007401Y006337D01*
X007715Y006337D01*
X007715Y006314D01*
X007775Y006255D01*
X007765Y006249D01*
X007731Y006215D01*
X007707Y006174D01*
X007697Y006137D01*
X007154Y006137D01*
X007060Y006043D01*
X007060Y005718D01*
X007045Y005733D01*
X007004Y005757D01*
X006958Y005769D01*
X006829Y005769D01*
X007051Y005728D02*
X007060Y005728D01*
X007060Y005886D02*
X006829Y005886D01*
X006827Y006045D02*
X007062Y006045D01*
X006849Y006203D02*
X007724Y006203D01*
X008090Y005907D02*
X008449Y005907D01*
X008449Y006128D01*
X008437Y006174D01*
X008413Y006215D01*
X008379Y006249D01*
X008369Y006255D01*
X008405Y006290D01*
X008497Y006198D01*
X008757Y006198D01*
X008875Y006080D01*
X008721Y006080D01*
X008675Y006068D01*
X008634Y006044D01*
X008600Y006011D01*
X008577Y005969D01*
X008564Y005924D01*
X008564Y005743D01*
X008902Y005743D01*
X008902Y005742D01*
X008902Y005405D01*
X008988Y005405D01*
X009112Y005281D01*
X009235Y005158D01*
X009452Y005158D01*
X009452Y005030D01*
X009882Y005030D01*
X009882Y005030D01*
X010312Y005030D01*
X010312Y005088D01*
X010378Y005088D01*
X010382Y005084D01*
X010505Y005033D01*
X010572Y005033D01*
X010562Y005009D01*
X010562Y004925D01*
X010312Y004925D01*
X010312Y005030D01*
X009882Y005030D01*
X009882Y005030D01*
X009452Y005030D01*
X009452Y004896D01*
X009464Y004850D01*
X009472Y004837D01*
X009472Y004391D01*
X009399Y004464D01*
X009276Y004515D01*
X009143Y004515D01*
X009030Y004468D01*
X009030Y004771D01*
X008901Y004900D01*
X008757Y005044D01*
X008108Y005044D01*
X008108Y005138D01*
X008014Y005232D01*
X007803Y005232D01*
X007803Y005506D01*
X007806Y005504D01*
X007851Y005492D01*
X008054Y005492D01*
X008054Y005870D01*
X008090Y005870D01*
X008090Y005492D01*
X008293Y005492D01*
X008338Y005504D01*
X008379Y005528D01*
X008413Y005561D01*
X008437Y005602D01*
X008449Y005648D01*
X008449Y005870D01*
X008090Y005870D01*
X008090Y005907D01*
X008090Y005886D02*
X008564Y005886D01*
X008635Y006045D02*
X008449Y006045D01*
X008420Y006203D02*
X008493Y006203D01*
X008564Y005742D02*
X008564Y005561D01*
X008577Y005516D01*
X008600Y005474D01*
X008634Y005441D01*
X008675Y005417D01*
X008721Y005405D01*
X008902Y005405D01*
X008902Y005742D01*
X008902Y005742D01*
X008564Y005742D01*
X008564Y005728D02*
X008449Y005728D01*
X008417Y005569D02*
X008564Y005569D01*
X008700Y005411D02*
X007803Y005411D01*
X008054Y005569D02*
X008090Y005569D01*
X008090Y005728D02*
X008054Y005728D01*
X007803Y005252D02*
X009141Y005252D01*
X008902Y005411D02*
X008902Y005411D01*
X008902Y005569D02*
X008902Y005569D01*
X008902Y005728D02*
X008902Y005728D01*
X009882Y005345D02*
X010010Y005472D01*
X010010Y005951D01*
X010028Y006678D02*
X009991Y006678D01*
X009991Y007056D01*
X009789Y007056D01*
X009743Y007044D01*
X009702Y007020D01*
X009669Y006986D01*
X009645Y006945D01*
X009636Y006912D01*
X009206Y006912D01*
X009135Y006840D01*
X009063Y006912D01*
X008497Y006912D01*
X008429Y006843D01*
X008429Y006880D01*
X008335Y006973D01*
X007809Y006973D01*
X007773Y006937D01*
X007540Y007170D01*
X007540Y007222D01*
X007560Y007231D01*
X007709Y007380D01*
X007748Y007474D01*
X007750Y007469D01*
X007789Y007392D01*
X007840Y007322D01*
X007901Y007260D01*
X007971Y007210D01*
X008048Y007170D01*
X008131Y007144D01*
X008216Y007130D01*
X008240Y007130D01*
X008240Y007660D01*
X008280Y007660D01*
X008280Y007700D01*
X009240Y007700D01*
X009240Y007660D01*
X009280Y007660D01*
X009280Y007700D01*
X010240Y007700D01*
X010240Y007660D01*
X010280Y007660D01*
X010280Y007247D01*
X010260Y007227D01*
X010260Y007048D01*
X010230Y007056D01*
X010028Y007056D01*
X010028Y006678D01*
X010028Y006679D02*
X009991Y006679D01*
X009991Y006837D02*
X010028Y006837D01*
X010028Y006996D02*
X009991Y006996D01*
X010048Y007170D02*
X010131Y007144D01*
X010216Y007130D01*
X010240Y007130D01*
X010240Y007660D01*
X009710Y007660D01*
X009280Y007660D01*
X009280Y007130D01*
X009303Y007130D01*
X009388Y007144D01*
X009471Y007170D01*
X009548Y007210D01*
X009618Y007260D01*
X009679Y007322D01*
X009730Y007392D01*
X009760Y007450D01*
X009789Y007392D01*
X009840Y007322D01*
X009901Y007260D01*
X009971Y007210D01*
X010048Y007170D01*
X010099Y007154D02*
X009421Y007154D01*
X009280Y007154D02*
X009240Y007154D01*
X009240Y007130D02*
X009240Y007660D01*
X008810Y007660D01*
X008280Y007660D01*
X008280Y007130D01*
X008303Y007130D01*
X008388Y007144D01*
X008471Y007170D01*
X008548Y007210D01*
X008618Y007260D01*
X008679Y007322D01*
X008730Y007392D01*
X008760Y007450D01*
X008789Y007392D01*
X008840Y007322D01*
X008901Y007260D01*
X008971Y007210D01*
X009048Y007170D01*
X009131Y007144D01*
X009216Y007130D01*
X009240Y007130D01*
X009099Y007154D02*
X008421Y007154D01*
X008280Y007154D02*
X008240Y007154D01*
X008099Y007154D02*
X007555Y007154D01*
X007714Y006996D02*
X009678Y006996D01*
X009670Y007313D02*
X009849Y007313D01*
X010240Y007313D02*
X010280Y007313D01*
X010280Y007471D02*
X010240Y007471D01*
X010240Y007630D02*
X010280Y007630D01*
X010260Y007154D02*
X010240Y007154D01*
X009280Y007313D02*
X009240Y007313D01*
X009240Y007471D02*
X009280Y007471D01*
X009280Y007630D02*
X009240Y007630D01*
X008849Y007313D02*
X008670Y007313D01*
X008280Y007313D02*
X008240Y007313D01*
X008240Y007471D02*
X008280Y007471D01*
X008280Y007630D02*
X008240Y007630D01*
X007749Y007471D02*
X007747Y007471D01*
X007849Y007313D02*
X007642Y007313D01*
X006980Y007154D02*
X006375Y007154D01*
X006144Y007154D02*
X005540Y007154D01*
X005540Y006996D02*
X006981Y006996D01*
X007081Y006837D02*
X006783Y006837D01*
X006829Y006679D02*
X007060Y006679D01*
X007060Y006520D02*
X006829Y006520D01*
X006849Y006362D02*
X007141Y006362D01*
X005886Y005585D02*
X005870Y005547D01*
X005826Y005565D01*
X005693Y005565D01*
X005570Y005514D01*
X005476Y005420D01*
X005425Y005297D01*
X005425Y005163D01*
X005470Y005054D01*
X005404Y004988D01*
X005404Y005091D01*
X005352Y005142D01*
X005404Y005194D01*
X005404Y005760D01*
X005396Y005768D01*
X005643Y005768D01*
X005705Y005706D01*
X005783Y005628D01*
X005886Y005585D01*
X005879Y005569D02*
X005404Y005569D01*
X005404Y005411D02*
X005472Y005411D01*
X005425Y005252D02*
X005404Y005252D01*
X005401Y005094D02*
X005453Y005094D01*
X005047Y004808D02*
X004931Y004692D01*
X004490Y004692D01*
X004490Y003668D02*
X004490Y003668D01*
X006858Y004824D02*
X006858Y004824D01*
X006885Y004824D01*
X006885Y004824D01*
X006858Y004824D01*
X006885Y004935D02*
X006885Y004935D01*
X008108Y005094D02*
X009452Y005094D01*
X009452Y004935D02*
X008866Y004935D01*
X009024Y004777D02*
X009472Y004777D01*
X009472Y004618D02*
X009030Y004618D01*
X009404Y004460D02*
X009472Y004460D01*
X010312Y004935D02*
X010562Y004935D01*
X011032Y004636D02*
X011087Y004659D01*
X011161Y004733D01*
X011863Y004733D01*
X011788Y004657D01*
X011737Y004534D01*
X011737Y004440D01*
X011693Y004440D01*
X011570Y004389D01*
X011476Y004295D01*
X011425Y004172D01*
X011425Y004127D01*
X011380Y004127D01*
X011257Y004076D01*
X011163Y003982D01*
X011112Y003859D01*
X011112Y003765D01*
X011068Y003765D01*
X010945Y003714D01*
X010851Y003620D01*
X010800Y003497D01*
X010800Y003363D01*
X010851Y003240D01*
X010945Y003146D01*
X011068Y003095D01*
X011201Y003095D01*
X011324Y003146D01*
X011419Y003240D01*
X011421Y003245D01*
X012832Y003245D01*
X012832Y003140D01*
X012832Y003006D01*
X012844Y002962D01*
X010293Y002962D01*
X010200Y002869D01*
X010200Y002547D01*
X010092Y002445D01*
X010092Y002870D01*
X010198Y002870D01*
X010292Y002964D01*
X010292Y003037D01*
X010393Y002995D01*
X010526Y002995D01*
X010649Y003046D01*
X010744Y003140D01*
X010795Y003263D01*
X010795Y003397D01*
X010744Y003520D01*
X010670Y003594D01*
X010670Y003818D01*
X010755Y003783D01*
X010889Y003783D01*
X011012Y003834D01*
X011106Y003928D01*
X011157Y004051D01*
X011157Y004184D01*
X011106Y004307D01*
X011032Y004381D01*
X011032Y004636D01*
X011032Y004618D02*
X011772Y004618D01*
X011737Y004460D02*
X011032Y004460D01*
X011109Y004301D02*
X011482Y004301D01*
X011425Y004143D02*
X011157Y004143D01*
X011165Y003984D02*
X011129Y003984D01*
X011112Y003826D02*
X010992Y003826D01*
X010898Y003667D02*
X010670Y003667D01*
X010748Y003509D02*
X010804Y003509D01*
X010795Y003350D02*
X010805Y003350D01*
X010765Y003192D02*
X010899Y003192D01*
X010618Y003033D02*
X012832Y003033D01*
X012944Y002862D02*
X012944Y002827D01*
X013311Y002827D01*
X013311Y002850D01*
X013262Y002850D01*
X013262Y003140D01*
X013262Y003140D01*
X013262Y002850D01*
X012988Y002850D01*
X012944Y002862D01*
X013262Y002875D02*
X013262Y002875D01*
X013262Y003033D02*
X013262Y003033D01*
X013262Y003140D02*
X013262Y003140D01*
X012832Y003140D01*
X013262Y003140D01*
X013262Y003140D01*
X013692Y003140D01*
X013692Y003006D01*
X013683Y002974D01*
X013970Y002974D01*
X014022Y002923D01*
X014074Y002974D01*
X014639Y002974D01*
X014707Y002907D01*
X014818Y002952D01*
X014951Y002952D01*
X015074Y002901D01*
X015079Y002897D01*
X015092Y002910D01*
X015133Y002934D01*
X015179Y002946D01*
X015370Y002946D01*
X015370Y002618D01*
X015370Y002291D01*
X015561Y002291D01*
X015606Y002303D01*
X015647Y002327D01*
X015681Y002360D01*
X015705Y002401D01*
X015717Y002447D01*
X015717Y002618D01*
X015370Y002618D01*
X015370Y002618D01*
X015370Y002618D01*
X015370Y002291D01*
X015179Y002291D01*
X015133Y002303D01*
X015092Y002327D01*
X015080Y002339D01*
X015074Y002334D01*
X014951Y002283D01*
X014818Y002283D01*
X014707Y002328D01*
X014639Y002261D01*
X014074Y002261D01*
X014022Y002312D01*
X013970Y002261D01*
X013810Y002261D01*
X013811Y002259D01*
X013823Y002213D01*
X013823Y002011D01*
X013445Y002011D01*
X013445Y001974D01*
X013823Y001974D01*
X013823Y001772D01*
X013811Y001726D01*
X013787Y001685D01*
X013753Y001652D01*
X013712Y001628D01*
X013667Y001616D01*
X013445Y001616D01*
X013445Y001974D01*
X013408Y001974D01*
X013408Y001616D01*
X013186Y001616D01*
X013140Y001628D01*
X013099Y001652D01*
X013066Y001685D01*
X013060Y001695D01*
X013000Y001636D01*
X012569Y001636D01*
X012569Y001480D01*
X012939Y001110D01*
X012959Y001129D01*
X013154Y001210D01*
X013365Y001210D01*
X013560Y001129D01*
X013709Y000980D01*
X013760Y000858D01*
X013810Y000980D01*
X013959Y001129D01*
X014154Y001210D01*
X014365Y001210D01*
X014560Y001129D01*
X014709Y000980D01*
X014760Y000858D01*
X014810Y000980D01*
X014959Y001129D01*
X015154Y001210D01*
X015365Y001210D01*
X015560Y001129D01*
X015709Y000980D01*
X015760Y000858D01*
X015810Y000980D01*
X015959Y001129D01*
X016154Y001210D01*
X016365Y001210D01*
X016560Y001129D01*
X016709Y000980D01*
X016760Y000858D01*
X016810Y000980D01*
X016959Y001129D01*
X017154Y001210D01*
X017365Y001210D01*
X017560Y001129D01*
X017709Y000980D01*
X017760Y000858D01*
X017810Y000980D01*
X017959Y001129D01*
X018154Y001210D01*
X018365Y001210D01*
X018560Y001129D01*
X018709Y000980D01*
X018760Y000858D01*
X018760Y002950D01*
X018730Y002892D01*
X018679Y002822D01*
X018618Y002760D01*
X018548Y002710D01*
X018471Y002670D01*
X018388Y002644D01*
X018303Y002630D01*
X018280Y002630D01*
X018280Y003160D01*
X018240Y003160D01*
X018240Y002630D01*
X018216Y002630D01*
X018131Y002644D01*
X018048Y002670D01*
X017971Y002710D01*
X017970Y002711D01*
X017970Y002587D01*
X018197Y002587D01*
X018290Y002493D01*
X018290Y001967D01*
X018197Y001873D01*
X017631Y001873D01*
X017560Y001945D01*
X017488Y001873D01*
X016922Y001873D01*
X016829Y001967D01*
X016829Y002391D01*
X016811Y002360D01*
X016777Y002327D01*
X016736Y002303D01*
X016690Y002291D01*
X016499Y002291D01*
X016499Y002618D01*
X016499Y002618D01*
X016152Y002618D01*
X016152Y002447D01*
X016164Y002401D01*
X016188Y002360D01*
X016222Y002327D01*
X016263Y002303D01*
X016308Y002291D01*
X016499Y002291D01*
X016499Y002618D01*
X016499Y002618D01*
X016152Y002618D01*
X016152Y002790D01*
X016164Y002836D01*
X016188Y002877D01*
X016222Y002910D01*
X016263Y002934D01*
X016308Y002946D01*
X016499Y002946D01*
X016499Y002618D01*
X016499Y002618D01*
X016499Y002618D01*
X016847Y002618D01*
X016847Y002511D01*
X016922Y002587D01*
X017020Y002587D01*
X017020Y002706D01*
X016959Y002731D01*
X016810Y002880D01*
X016735Y003061D01*
X016733Y003059D01*
X016266Y003059D01*
X016172Y003153D01*
X016172Y003157D01*
X015697Y003157D01*
X015697Y003153D01*
X015603Y003059D01*
X015136Y003059D01*
X015042Y003153D01*
X015042Y003320D01*
X013923Y003320D01*
X013898Y003345D01*
X013793Y003345D01*
X013672Y003395D01*
X013672Y003333D01*
X013680Y003320D01*
X013692Y003274D01*
X013692Y003140D01*
X013262Y003140D01*
X013692Y003192D02*
X015042Y003192D01*
X015370Y002946D02*
X015370Y002618D01*
X015717Y002618D01*
X015717Y002790D01*
X015705Y002836D01*
X015681Y002877D01*
X015647Y002910D01*
X015606Y002934D01*
X015561Y002946D01*
X015370Y002946D01*
X015370Y002875D02*
X015370Y002875D01*
X015682Y002875D02*
X016187Y002875D01*
X016499Y002875D02*
X016499Y002875D01*
X016499Y002946D02*
X016499Y002618D01*
X016847Y002618D01*
X016847Y002790D01*
X016835Y002836D01*
X016811Y002877D01*
X016777Y002910D01*
X016736Y002934D01*
X016690Y002946D01*
X016499Y002946D01*
X016747Y003033D02*
X013692Y003033D01*
X013672Y003350D02*
X013781Y003350D01*
X014159Y003833D02*
X014144Y003870D01*
X014049Y003964D01*
X013926Y004015D01*
X013793Y004015D01*
X013672Y003965D01*
X013672Y004324D01*
X013696Y004299D01*
X014223Y004299D01*
X014266Y004343D01*
X014272Y004337D01*
X014759Y004337D01*
X014853Y004430D01*
X014853Y004820D01*
X016730Y004820D01*
X016730Y004744D01*
X016823Y004650D01*
X017009Y004650D01*
X016959Y004629D01*
X016810Y004480D01*
X016730Y004285D01*
X016730Y004075D01*
X016810Y003880D01*
X016959Y003731D01*
X017082Y003680D01*
X016959Y003629D01*
X016906Y003577D01*
X016827Y003577D01*
X016827Y003580D01*
X016733Y003674D01*
X016266Y003674D01*
X016172Y003580D01*
X016172Y003577D01*
X015697Y003577D01*
X015697Y003580D01*
X015603Y003674D01*
X015316Y003674D01*
X015299Y003688D01*
X015246Y003740D01*
X015232Y003740D01*
X015220Y003749D01*
X015146Y003740D01*
X014873Y003740D01*
X014873Y003906D01*
X014873Y004087D01*
X014861Y004133D01*
X014837Y004174D01*
X014804Y004208D01*
X014762Y004231D01*
X014717Y004243D01*
X014516Y004243D01*
X014516Y003906D01*
X014873Y003906D01*
X014516Y003906D01*
X014516Y003906D01*
X014516Y003906D01*
X014516Y004243D01*
X014315Y004243D01*
X014269Y004231D01*
X014228Y004208D01*
X014195Y004174D01*
X014171Y004133D01*
X014159Y004087D01*
X014159Y003906D01*
X014159Y003833D01*
X014159Y003906D02*
X014516Y003906D01*
X014516Y003906D01*
X014159Y003906D01*
X014159Y003984D02*
X014001Y003984D01*
X014176Y004143D02*
X013672Y004143D01*
X013672Y003984D02*
X013718Y003984D01*
X013695Y004301D02*
X013672Y004301D01*
X014225Y004301D02*
X015005Y004301D01*
X015005Y004143D02*
X014855Y004143D01*
X014873Y003984D02*
X015078Y003984D01*
X015099Y003963D02*
X015005Y004056D01*
X015005Y004504D01*
X015099Y004597D01*
X015586Y004597D01*
X015680Y004504D01*
X015680Y004056D01*
X015586Y003963D01*
X015099Y003963D01*
X014873Y003826D02*
X016864Y003826D01*
X016740Y003667D02*
X017050Y003667D01*
X016767Y003984D02*
X015608Y003984D01*
X015680Y004143D02*
X016730Y004143D01*
X016736Y004301D02*
X015680Y004301D01*
X015680Y004460D02*
X016802Y004460D01*
X016948Y004618D02*
X014853Y004618D01*
X014853Y004460D02*
X015005Y004460D01*
X014853Y004777D02*
X016730Y004777D01*
X016730Y005240D02*
X016464Y005240D01*
X016495Y005313D01*
X016495Y005447D01*
X016444Y005570D01*
X016349Y005664D01*
X016226Y005715D01*
X016093Y005715D01*
X015970Y005664D01*
X015966Y005660D01*
X015754Y005660D01*
X015677Y005737D01*
X015160Y005737D01*
X015160Y005862D01*
X014782Y005862D01*
X014782Y005898D01*
X015160Y005898D01*
X015160Y006101D01*
X015148Y006146D01*
X015124Y006187D01*
X015091Y006221D01*
X015050Y006245D01*
X015004Y006257D01*
X014782Y006257D01*
X014782Y005898D01*
X014745Y005898D01*
X014745Y006257D01*
X014524Y006257D01*
X014478Y006245D01*
X014437Y006221D01*
X014403Y006187D01*
X014397Y006177D01*
X014338Y006237D01*
X013772Y006237D01*
X013679Y006143D01*
X013679Y006123D01*
X013576Y006165D01*
X013479Y006165D01*
X013721Y006408D01*
X014409Y006408D01*
X014471Y006470D01*
X015096Y006470D01*
X015346Y006720D01*
X015909Y006720D01*
X016159Y006970D01*
X017159Y006970D01*
X017339Y007150D01*
X017365Y007150D01*
X017560Y007231D01*
X017709Y007380D01*
X017760Y007502D01*
X017810Y007380D01*
X017959Y007231D01*
X018154Y007150D01*
X018250Y007150D01*
X018250Y006587D01*
X017831Y006587D01*
X017760Y006515D01*
X017688Y006587D01*
X017122Y006587D01*
X017081Y006545D01*
X017079Y006547D01*
X016631Y006547D01*
X016572Y006488D01*
X016566Y006498D01*
X016532Y006532D01*
X016491Y006555D01*
X016445Y006567D01*
X016264Y006567D01*
X016083Y006567D01*
X016037Y006555D01*
X015996Y006532D01*
X015963Y006498D01*
X015939Y006457D01*
X015927Y006411D01*
X015927Y006230D01*
X015927Y006049D01*
X015939Y006003D01*
X015963Y005962D01*
X015996Y005928D01*
X016037Y005905D01*
X016083Y005893D01*
X016264Y005893D01*
X016264Y006230D01*
X015927Y006230D01*
X016264Y006230D01*
X016264Y006230D01*
X016264Y006230D01*
X016264Y006567D01*
X016264Y006230D01*
X016264Y006230D01*
X016264Y005893D01*
X016445Y005893D01*
X016491Y005905D01*
X016532Y005928D01*
X016566Y005962D01*
X016572Y005972D01*
X016631Y005913D01*
X017079Y005913D01*
X017081Y005915D01*
X017122Y005873D01*
X017688Y005873D01*
X017760Y005945D01*
X017831Y005873D01*
X018397Y005873D01*
X018490Y005967D01*
X018490Y006064D01*
X018546Y006120D01*
X018670Y006243D01*
X018670Y007340D01*
X018709Y007380D01*
X018760Y007502D01*
X018760Y005358D01*
X018709Y005480D01*
X018560Y005629D01*
X018365Y005710D01*
X018154Y005710D01*
X017959Y005629D01*
X017810Y005480D01*
X017790Y005430D01*
X017790Y005616D01*
X017696Y005710D01*
X016823Y005710D01*
X016730Y005616D01*
X016730Y005240D01*
X016730Y005252D02*
X016469Y005252D01*
X016495Y005411D02*
X016730Y005411D01*
X016730Y005569D02*
X016444Y005569D01*
X017110Y005886D02*
X014782Y005886D01*
X014782Y006045D02*
X014745Y006045D01*
X014745Y006203D02*
X014782Y006203D01*
X015109Y006203D02*
X015927Y006203D01*
X015927Y006362D02*
X013676Y006362D01*
X013739Y006203D02*
X013517Y006203D01*
X014372Y006203D02*
X014419Y006203D01*
X015147Y006520D02*
X015985Y006520D01*
X016264Y006520D02*
X016264Y006520D01*
X016264Y006362D02*
X016264Y006362D01*
X016264Y006203D02*
X016264Y006203D01*
X016264Y006045D02*
X016264Y006045D01*
X015928Y006045D02*
X015160Y006045D01*
X015686Y005728D02*
X018760Y005728D01*
X018760Y005886D02*
X018410Y005886D01*
X018490Y006045D02*
X018760Y006045D01*
X018760Y006203D02*
X018630Y006203D01*
X018670Y006362D02*
X018760Y006362D01*
X018760Y006520D02*
X018670Y006520D01*
X018670Y006679D02*
X018760Y006679D01*
X018760Y006837D02*
X018670Y006837D01*
X018670Y006996D02*
X018760Y006996D01*
X018760Y007154D02*
X018670Y007154D01*
X018670Y007313D02*
X018760Y007313D01*
X018747Y007471D02*
X018760Y007471D01*
X018144Y007154D02*
X017375Y007154D01*
X017185Y006996D02*
X018250Y006996D01*
X018250Y006837D02*
X016026Y006837D01*
X016544Y006520D02*
X016604Y006520D01*
X017755Y006520D02*
X017764Y006520D01*
X018250Y006679D02*
X015305Y006679D01*
X014721Y005384D02*
X013960Y005384D01*
X014721Y005384D02*
X014725Y005380D01*
X014516Y004143D02*
X014516Y004143D01*
X014516Y003984D02*
X014516Y003984D01*
X015610Y003667D02*
X016259Y003667D01*
X017260Y003180D02*
X017260Y002265D01*
X017205Y002230D01*
X016829Y002241D02*
X013816Y002241D01*
X013823Y002082D02*
X016829Y002082D01*
X016872Y001924D02*
X013823Y001924D01*
X013821Y001765D02*
X018760Y001765D01*
X018760Y001924D02*
X018247Y001924D01*
X018290Y002082D02*
X018760Y002082D01*
X018760Y002241D02*
X018290Y002241D01*
X018290Y002399D02*
X018760Y002399D01*
X018760Y002558D02*
X018226Y002558D01*
X018240Y002716D02*
X018280Y002716D01*
X018557Y002716D02*
X018760Y002716D01*
X018760Y002875D02*
X018717Y002875D01*
X018280Y002875D02*
X018240Y002875D01*
X018240Y003033D02*
X018280Y003033D01*
X016995Y002716D02*
X016847Y002716D01*
X016847Y002558D02*
X016893Y002558D01*
X016815Y002875D02*
X016812Y002875D01*
X016499Y002716D02*
X016499Y002716D01*
X016499Y002558D02*
X016499Y002558D01*
X016152Y002558D02*
X015717Y002558D01*
X015717Y002716D02*
X016152Y002716D01*
X016166Y002399D02*
X015703Y002399D01*
X015370Y002399D02*
X015370Y002399D01*
X015370Y002558D02*
X015370Y002558D01*
X015370Y002618D02*
X015370Y002618D01*
X015370Y002716D02*
X015370Y002716D01*
X016499Y002399D02*
X016499Y002399D01*
X017538Y001924D02*
X017581Y001924D01*
X018760Y001607D02*
X012569Y001607D01*
X012601Y001448D02*
X018760Y001448D01*
X018760Y001290D02*
X012759Y001290D01*
X012918Y001131D02*
X012963Y001131D01*
X013556Y001131D02*
X013963Y001131D01*
X013807Y000973D02*
X013712Y000973D01*
X014556Y001131D02*
X014963Y001131D01*
X014807Y000973D02*
X014712Y000973D01*
X015556Y001131D02*
X015963Y001131D01*
X015807Y000973D02*
X015712Y000973D01*
X016556Y001131D02*
X016963Y001131D01*
X016807Y000973D02*
X016712Y000973D01*
X017556Y001131D02*
X017963Y001131D01*
X017807Y000973D02*
X017712Y000973D01*
X018556Y001131D02*
X018760Y001131D01*
X018760Y000973D02*
X018712Y000973D01*
X013445Y001765D02*
X013408Y001765D01*
X013408Y001924D02*
X013445Y001924D01*
X012832Y003192D02*
X011370Y003192D01*
X010301Y003033D02*
X010292Y003033D01*
X010205Y002875D02*
X010203Y002875D01*
X010200Y002716D02*
X010092Y002716D01*
X010092Y002558D02*
X010200Y002558D01*
X005822Y001290D02*
X002960Y001290D01*
X002960Y001131D02*
X002963Y001131D01*
X003556Y001131D02*
X003963Y001131D01*
X003807Y000973D02*
X003712Y000973D01*
X004556Y001131D02*
X004963Y001131D01*
X004807Y000973D02*
X004712Y000973D01*
X005556Y001131D02*
X005664Y001131D01*
X005705Y005706D02*
X005705Y005706D01*
X005684Y005728D02*
X005404Y005728D01*
X004974Y006203D02*
X004516Y006203D01*
X004516Y006362D02*
X004401Y006362D01*
X004401Y006520D02*
X004516Y006520D01*
X004516Y006679D02*
X004401Y006679D01*
X004049Y006679D02*
X002960Y006679D01*
X002960Y006520D02*
X004003Y006520D01*
X004401Y006045D02*
X004516Y006045D01*
X004516Y005886D02*
X004401Y005886D01*
X004914Y006362D02*
X004975Y006362D01*
X004977Y006520D02*
X004914Y006520D01*
X004867Y006679D02*
X004978Y006679D01*
X004980Y006837D02*
X002960Y006837D01*
X002960Y006996D02*
X004980Y006996D01*
X004980Y007154D02*
X004375Y007154D01*
X004144Y007154D02*
X003375Y007154D01*
X003144Y007154D02*
X002960Y007154D01*
X003642Y007313D02*
X003877Y007313D01*
X003772Y007471D02*
X003747Y007471D01*
X004642Y007313D02*
X004877Y007313D01*
X004772Y007471D02*
X004747Y007471D01*
X005642Y007313D02*
X005877Y007313D01*
X005772Y007471D02*
X005747Y007471D01*
X006642Y007313D02*
X006877Y007313D01*
X003107Y006045D02*
X002960Y006045D01*
X002960Y005886D02*
X002966Y005886D01*
X017642Y007313D02*
X017877Y007313D01*
X017772Y007471D02*
X017747Y007471D01*
X017701Y005886D02*
X017818Y005886D01*
X017790Y005569D02*
X017899Y005569D01*
X018620Y005569D02*
X018760Y005569D01*
X018760Y005411D02*
X018738Y005411D01*
D28*
X016322Y004305D03*
X015822Y004555D03*
X015822Y003930D03*
X016322Y003805D03*
X014260Y003180D03*
X013822Y003180D03*
X013860Y003680D03*
X014060Y004130D03*
X012385Y004830D03*
X012072Y004468D03*
X011760Y004105D03*
X011447Y003793D03*
X010822Y004118D03*
X011260Y004430D03*
X010897Y004943D03*
X010572Y005368D03*
X009135Y004993D03*
X008635Y005305D03*
X008560Y006080D03*
X006947Y005993D03*
X006947Y006555D03*
X005560Y005655D03*
X005760Y005230D03*
X006185Y005430D03*
X007010Y004230D03*
X006885Y003430D03*
X008247Y002805D03*
X010460Y003330D03*
X011135Y003430D03*
X009210Y004180D03*
X013110Y006030D03*
X013510Y005830D03*
X015822Y005868D03*
X016160Y005380D03*
X014885Y002618D03*
X017635Y001743D03*
X018635Y001930D03*
X005000Y002740D03*
X004635Y002243D03*
X004197Y002493D03*
X004697Y001743D03*
X003135Y006430D03*
X003510Y006680D03*
X003135Y006868D03*
D29*
X005047Y005830D02*
X005047Y005477D01*
X005047Y005830D02*
X005252Y006035D01*
X005260Y006780D01*
X005423Y006617D01*
X006433Y006617D01*
X005904Y006617D01*
X005780Y006493D01*
X005780Y006028D01*
X005776Y006028D01*
X005561Y006243D01*
X005780Y006028D02*
X005942Y005865D01*
X006429Y005865D01*
X006433Y005868D01*
X006195Y005631D01*
X006185Y005631D01*
X006185Y005430D01*
X006718Y005393D02*
X006947Y005622D01*
X006947Y005993D01*
X007456Y006617D02*
X007697Y006617D01*
X007260Y007054D01*
X007260Y007680D01*
X006260Y007680D01*
X005260Y007680D02*
X005260Y006780D01*
X007697Y006617D02*
X008033Y006617D01*
X009882Y005345D02*
X009905Y005368D01*
X010572Y005368D01*
X015394Y005380D02*
X016160Y005380D01*
X014407Y002640D02*
X014385Y002618D01*
X014885Y002618D01*
X014407Y002640D02*
X014357Y002618D01*
D30*
X013687Y002618D02*
X012739Y002618D01*
X012674Y002553D01*
X012674Y002055D01*
X012718Y001993D01*
X012359Y002553D02*
X012359Y001393D01*
X013072Y000680D01*
X013260Y000680D01*
X012260Y000680D02*
X012044Y000958D01*
X012044Y002553D01*
X011729Y002553D02*
X011729Y001087D01*
X011260Y000680D01*
X010947Y001430D02*
X010260Y000743D01*
X010260Y000680D01*
X009510Y000680D02*
X009260Y000680D01*
X009510Y000680D02*
X010560Y001730D01*
X011060Y001730D01*
X011100Y001770D01*
X011100Y002553D01*
X010785Y002553D02*
X010785Y002055D01*
X010710Y001980D01*
X010360Y001980D01*
X009510Y001180D01*
X008822Y001180D01*
X008385Y000680D01*
X008260Y000680D01*
X008022Y001180D02*
X007522Y000680D01*
X007260Y000680D01*
X007022Y001180D02*
X006522Y000680D01*
X006260Y000680D01*
X006010Y001180D02*
X005510Y000680D01*
X005260Y000680D01*
X006010Y001180D02*
X006697Y001180D01*
X006885Y001368D01*
X007447Y001368D01*
X007635Y001555D01*
X008135Y001555D01*
X008385Y001805D01*
X008947Y001805D01*
X009385Y002243D01*
X009385Y003305D01*
X009535Y003455D01*
X009882Y003455D01*
X009882Y003140D02*
X009882Y002365D01*
X009072Y001555D01*
X008447Y001555D01*
X008260Y001368D01*
X007822Y001368D01*
X007635Y001180D01*
X007022Y001180D01*
X008022Y001180D02*
X008447Y001180D01*
X008635Y001368D01*
X009260Y001368D01*
X010447Y002493D01*
X010470Y002515D01*
X010470Y002553D01*
X011415Y002553D02*
X011415Y001523D01*
X011322Y001430D01*
X010947Y001430D01*
X008247Y002805D02*
X008247Y003293D01*
X008322Y003368D01*
X008310Y003426D01*
X007360Y003930D02*
X007260Y003830D01*
X006710Y003830D01*
X006510Y003630D01*
X006510Y003180D01*
X006635Y003055D01*
X006635Y002636D01*
X006385Y002636D01*
X006135Y002636D02*
X006135Y002403D01*
X006072Y002340D01*
X005135Y002340D01*
X005000Y002475D01*
X005000Y002740D01*
X005760Y002696D02*
X005760Y002780D01*
X006145Y003165D01*
X006135Y004824D01*
X005760Y004704D02*
X005760Y005230D01*
X007135Y004824D02*
X007135Y004355D01*
X007010Y004230D01*
X007385Y003955D02*
X007385Y004824D01*
X007385Y005345D01*
X007426Y005393D01*
X007635Y004824D02*
X007635Y004180D01*
X007697Y004118D01*
X008300Y004118D01*
X008310Y004134D01*
X009210Y004180D02*
X009260Y004118D01*
X009322Y004055D01*
X009852Y004055D01*
X009882Y004085D01*
X009882Y004400D02*
X010390Y004400D01*
X010460Y004330D01*
X010460Y003330D01*
X011135Y003430D02*
X011160Y003455D01*
X013262Y003455D01*
X013262Y003770D02*
X011475Y003770D01*
X011447Y003793D01*
X011760Y004105D02*
X011790Y004085D01*
X013262Y004085D01*
X013262Y004400D02*
X012154Y004400D01*
X012072Y004468D01*
X012385Y004830D02*
X012472Y004743D01*
X013234Y004743D01*
X013262Y004715D01*
X013942Y004715D01*
X013960Y004676D01*
X013962Y004693D01*
X014449Y004693D01*
X014516Y004654D01*
X013262Y005030D02*
X017109Y005030D01*
X017260Y005180D01*
X018197Y005180D02*
X018260Y005180D01*
X018510Y005180D01*
X018760Y004930D01*
X018760Y003930D01*
X018510Y003680D01*
X018010Y003680D01*
X017760Y003430D01*
X017760Y002390D01*
X017914Y002230D01*
X017260Y003180D02*
X017073Y003367D01*
X016499Y003367D01*
X015370Y003367D01*
X015160Y003530D01*
X014010Y003530D01*
X013860Y003680D01*
X012210Y005368D02*
X011785Y004943D01*
X010897Y004943D01*
X010662Y004715D02*
X010822Y004555D01*
X010822Y004118D01*
X010662Y004715D02*
X009882Y004715D01*
X009882Y005345D02*
X009859Y005368D01*
X009322Y005368D01*
X009197Y005493D01*
X009197Y006055D01*
X008800Y006452D01*
X008780Y006555D01*
X008728Y006577D01*
X008072Y006597D01*
X008033Y006617D01*
X007456Y006617D02*
X007447Y006628D01*
X008780Y006555D02*
X008782Y006577D01*
X009489Y006555D02*
X009492Y006532D01*
X009492Y005743D01*
X010470Y005933D02*
X010470Y007140D01*
X011010Y007680D01*
X011260Y007680D01*
X011510Y007118D02*
X012072Y007680D01*
X012260Y007680D01*
X011910Y007180D02*
X012635Y007180D01*
X013135Y007680D01*
X013260Y007680D01*
X013635Y007180D02*
X014072Y007618D01*
X014197Y007618D01*
X014260Y007680D01*
X014072Y007180D02*
X014760Y007180D01*
X015260Y007680D01*
X015635Y007180D02*
X016072Y007618D01*
X016197Y007618D01*
X016260Y007680D01*
X016072Y007180D02*
X017072Y007180D01*
X017260Y007368D01*
X017260Y007680D01*
X018260Y007680D02*
X018460Y007480D01*
X018460Y006330D01*
X018360Y006230D01*
X018114Y006230D01*
X017405Y006230D02*
X016855Y006230D01*
X016072Y007180D02*
X015822Y006930D01*
X015260Y006930D01*
X015010Y006680D01*
X014385Y006680D01*
X014322Y006618D01*
X013635Y006618D01*
X013385Y006368D01*
X012472Y006368D01*
X012359Y006255D01*
X012359Y005933D01*
X012044Y005933D02*
X012044Y006252D01*
X012347Y006555D01*
X013260Y006555D01*
X013510Y006805D01*
X014135Y006805D01*
X014260Y006930D01*
X014885Y006930D01*
X015135Y007180D01*
X015635Y007180D01*
X014072Y007180D02*
X013885Y006993D01*
X013322Y006993D01*
X013072Y006743D01*
X012172Y006743D01*
X011860Y006430D01*
X011760Y006430D01*
X011729Y006400D01*
X011729Y005933D01*
X011415Y005933D02*
X011415Y006585D01*
X011447Y006618D01*
X011672Y006618D01*
X011985Y006930D01*
X012822Y006930D01*
X013072Y007180D01*
X013635Y007180D01*
X011910Y007180D02*
X011597Y006868D01*
X011135Y006868D01*
X011100Y006833D01*
X011100Y005933D01*
X010785Y005933D02*
X010785Y007018D01*
X010885Y007118D01*
X011510Y007118D01*
X012674Y005933D02*
X012772Y006030D01*
X013110Y006030D01*
X013960Y005765D02*
X014055Y005880D01*
X013960Y005765D02*
X013960Y005384D01*
X013262Y005345D02*
X013239Y005368D01*
X012210Y005368D01*
X006885Y002636D02*
X006885Y002143D01*
X006760Y002018D01*
X006489Y002008D01*
X006135Y002636D02*
X006127Y002743D01*
X005760Y003404D02*
X005732Y003404D01*
X005657Y003480D01*
X005010Y003480D01*
X004947Y003543D01*
X004947Y004118D01*
X004885Y004180D01*
X004490Y004180D01*
X004490Y004436D02*
X005004Y004436D01*
X005135Y004305D01*
X005135Y004055D01*
X005197Y003993D01*
X005612Y003993D01*
X005760Y003996D01*
X005612Y003430D02*
X005760Y003404D01*
D31*
X007885Y004824D02*
X008665Y004824D01*
X008810Y004680D01*
X008810Y003930D01*
X008960Y003780D01*
X009872Y003780D01*
X009882Y003770D01*
X013239Y005368D02*
X013297Y005368D01*
X013510Y005580D01*
X013510Y005830D01*
M02*
