G75*
%MOIN*%
%OFA0B0*%
%FSLAX24Y24*%
%IPPOS*%
%LPD*%
%AMOC8*
5,1,8,0,0,1.08239X$1,22.5*
%
%ADD10R,0.0126X0.0496*%
%ADD11R,0.0500X0.0220*%
%ADD12R,0.0220X0.0500*%
%ADD13R,0.0394X0.0433*%
%ADD14R,0.0433X0.0394*%
%ADD15R,0.0472X0.0217*%
%ADD16R,0.0315X0.0315*%
%ADD17R,0.0354X0.0315*%
%ADD18R,0.0551X0.0157*%
%ADD19R,0.0709X0.0709*%
%ADD20R,0.0335X0.0295*%
%ADD21R,0.0551X0.0630*%
D10*
X006135Y002636D03*
X006385Y002636D03*
X006635Y002636D03*
X006885Y002636D03*
X007135Y002636D03*
X007385Y002636D03*
X007635Y002636D03*
X007885Y002636D03*
X007885Y004824D03*
X007635Y004824D03*
X007385Y004824D03*
X007135Y004824D03*
X006885Y004824D03*
X006635Y004824D03*
X006385Y004824D03*
X006135Y004824D03*
D11*
X009882Y004715D03*
X009882Y005030D03*
X009882Y005345D03*
X009882Y004400D03*
X009882Y004085D03*
X009882Y003770D03*
X009882Y003455D03*
X009882Y003140D03*
X013262Y003140D03*
X013262Y003455D03*
X013262Y003770D03*
X013262Y004085D03*
X013262Y004400D03*
X013262Y004715D03*
X013262Y005030D03*
X013262Y005345D03*
D12*
X012674Y005933D03*
X012359Y005933D03*
X012044Y005933D03*
X011729Y005933D03*
X011415Y005933D03*
X011100Y005933D03*
X010785Y005933D03*
X010470Y005933D03*
X010470Y002553D03*
X010785Y002553D03*
X011100Y002553D03*
X011415Y002553D03*
X011729Y002553D03*
X012044Y002553D03*
X012359Y002553D03*
X012674Y002553D03*
D13*
X013960Y004676D03*
X013960Y005384D03*
X010010Y005951D03*
X010010Y006659D03*
X008072Y006597D03*
X008072Y005888D03*
X005760Y004704D03*
X005047Y004808D03*
X005047Y005477D03*
X005760Y003996D03*
X005760Y003404D03*
X005760Y002696D03*
X008310Y003426D03*
X008310Y004134D03*
D14*
X005780Y002008D03*
X006489Y002008D03*
X012718Y001993D03*
X013426Y001993D03*
X013687Y002618D03*
X014357Y002618D03*
X017205Y002230D03*
X017914Y002230D03*
X015407Y005368D03*
X014737Y005368D03*
X014764Y005880D03*
X014055Y005880D03*
X017405Y006230D03*
X018114Y006230D03*
X009489Y006555D03*
X008780Y006555D03*
X007426Y005393D03*
X006718Y005393D03*
D15*
X006433Y005868D03*
X006433Y006243D03*
X006433Y006617D03*
X007456Y006617D03*
X007456Y005868D03*
D16*
X008902Y005743D03*
X009492Y005743D03*
X016264Y006230D03*
X016855Y006230D03*
D17*
X014516Y004654D03*
X015343Y004280D03*
X014516Y003906D03*
D18*
X004490Y003924D03*
X004490Y003668D03*
X004490Y004180D03*
X004490Y004436D03*
X004490Y004692D03*
D19*
X003447Y004633D03*
X003447Y003727D03*
D20*
X015370Y003367D03*
X016499Y003367D03*
X016499Y002618D03*
X015370Y002618D03*
D21*
X005561Y006243D03*
X004458Y006243D03*
M02*
