%
M48
M72
T01C0.0150
T02C0.0236
T03C0.0400
T04C0.0433
%
T01
X4697Y1743
X4635Y2243
X4197Y2493
X5000Y2740
X6885Y3430
X7010Y4230
X5760Y5230
X6185Y5430
X5560Y5655
X6947Y5993
X6947Y6555
X8560Y6080
X8635Y5305
X9035Y4993
X9010Y4180
X10460Y3330
X11135Y3430
X11447Y3793
X11760Y4105
X11260Y4430
X10822Y4118
X12072Y4468
X12385Y4830
X10897Y4943
X10572Y5368
X13110Y6030
X13510Y5830
X15822Y5868
X16160Y5380
X15972Y4655
X16472Y4505
X15972Y4080
X16472Y4005
X14360Y3130
X13872Y3130
X13860Y3680
X14060Y4130
X17635Y1743
X18635Y1930
X8247Y2805
X3135Y6430
X3510Y6680
X3135Y6868
T02
X4549Y5135
X4549Y3225
T03
X3260Y680
X4260Y680
X5260Y680
X6260Y680
X7260Y680
X8260Y680
X9260Y680
X10260Y680
X11260Y680
X12260Y680
X13260Y680
X14260Y680
X15260Y680
X16260Y680
X17260Y680
X18260Y680
X18260Y3180
X17260Y3180
X17260Y4180
X18260Y4180
X18260Y5180
X17260Y5180
X17260Y7680
X18260Y7680
X16260Y7680
X15260Y7680
X14260Y7680
X13260Y7680
X12260Y7680
X11260Y7680
X10260Y7680
X9260Y7680
X8260Y7680
X7260Y7680
X6260Y7680
X5260Y7680
X4260Y7680
X3260Y7680
T04
X3447Y5601
X3447Y2759
M30
