G75*
%MOIN*%
%OFA0B0*%
%FSLAX24Y24*%
%IPPOS*%
%LPD*%
%AMOC8*
5,1,8,0,0,1.08239X$1,22.5*
%
%ADD10C,0.0090*%
%ADD11C,0.0060*%
%ADD12C,0.0059*%
D10*
X011272Y006197D02*
X011187Y006282D01*
X011187Y006708D01*
X011442Y006708D01*
X011527Y006623D01*
X011527Y006453D01*
X011442Y006368D01*
X011187Y006368D01*
X011272Y006197D02*
X011357Y006197D01*
X010975Y006453D02*
X010890Y006538D01*
X010634Y006538D01*
X010634Y006623D02*
X010634Y006368D01*
X010890Y006368D01*
X010975Y006453D01*
X010719Y006708D02*
X010634Y006623D01*
X010719Y006708D02*
X010890Y006708D01*
X010422Y006793D02*
X010337Y006878D01*
X010167Y006878D01*
X010082Y006793D01*
X010082Y006708D01*
X010167Y006623D01*
X010082Y006538D01*
X010082Y006453D01*
X010167Y006368D01*
X010337Y006368D01*
X010422Y006453D01*
X010252Y006623D02*
X010167Y006623D01*
X009870Y006793D02*
X009785Y006878D01*
X009615Y006878D01*
X009529Y006793D01*
X009529Y006708D01*
X009870Y006368D01*
X009529Y006368D01*
X009317Y006368D02*
X008977Y006368D01*
X008765Y006453D02*
X008680Y006368D01*
X008510Y006368D01*
X008425Y006453D01*
X008425Y006623D01*
X008510Y006708D01*
X008595Y006708D01*
X008765Y006623D01*
X008765Y006878D01*
X008425Y006878D01*
X008977Y006878D02*
X009317Y006878D01*
X009317Y006368D01*
X009317Y006623D02*
X009147Y006623D01*
X011739Y006623D02*
X011739Y006538D01*
X012080Y006538D01*
X012080Y006453D02*
X012080Y006623D01*
X011995Y006708D01*
X011824Y006708D01*
X011739Y006623D01*
X011995Y006368D02*
X012080Y006453D01*
X011995Y006368D02*
X011824Y006368D01*
X012292Y006368D02*
X012292Y006623D01*
X012377Y006708D01*
X012462Y006623D01*
X012462Y006368D01*
X012632Y006368D02*
X012632Y006708D01*
X012547Y006708D01*
X012462Y006623D01*
X012844Y006708D02*
X013185Y006368D01*
X013185Y006708D02*
X012844Y006368D01*
X013567Y006368D02*
X013567Y006878D01*
X013737Y006878D02*
X013397Y006878D01*
X013949Y006708D02*
X013949Y006368D01*
X014290Y006368D02*
X014290Y006708D01*
X014119Y006878D01*
X013949Y006708D01*
X013949Y006623D02*
X014290Y006623D01*
D11*
X008471Y002168D02*
X008471Y001998D01*
X008584Y001998D02*
X008584Y002168D01*
X008528Y002224D01*
X008471Y002168D01*
X008584Y002168D02*
X008641Y002224D01*
X008698Y002224D01*
X008698Y001998D01*
X008839Y002054D02*
X008839Y002168D01*
X008896Y002224D01*
X009009Y002224D01*
X009066Y002168D01*
X009066Y002054D01*
X009009Y001998D01*
X008896Y001998D01*
X008839Y002054D01*
X009208Y001998D02*
X009378Y001998D01*
X009434Y002054D01*
X009434Y002168D01*
X009378Y002224D01*
X009208Y002224D01*
X009562Y002054D02*
X009562Y001998D01*
X009619Y001998D01*
X009619Y002054D01*
X009562Y002054D01*
X009760Y001998D02*
X009930Y001998D01*
X009987Y002054D01*
X009987Y002168D01*
X009930Y002224D01*
X009760Y002224D01*
X010119Y001998D02*
X010232Y001998D01*
X010176Y001998D02*
X010176Y002224D01*
X010232Y002224D01*
X010365Y002224D02*
X010478Y002224D01*
X010421Y002281D02*
X010421Y002054D01*
X010365Y001998D01*
X010619Y002054D02*
X010619Y002168D01*
X010676Y002224D01*
X010790Y002224D01*
X010846Y002168D01*
X010846Y002054D01*
X010790Y001998D01*
X010676Y001998D01*
X010619Y002054D01*
X010988Y002054D02*
X011045Y001998D01*
X011215Y001998D01*
X011215Y002338D01*
X011215Y002224D02*
X011045Y002224D01*
X010988Y002168D01*
X010988Y002054D01*
X011356Y002054D02*
X011413Y001998D01*
X011526Y001998D01*
X011583Y002054D01*
X011583Y002168D01*
X011526Y002224D01*
X011413Y002224D01*
X011356Y002168D01*
X011356Y002054D01*
X011720Y002224D02*
X011776Y002224D01*
X011890Y002111D01*
X011890Y001998D02*
X011890Y002224D01*
X012031Y002224D02*
X012201Y002224D01*
X012258Y002168D01*
X012258Y002054D01*
X012201Y001998D01*
X012031Y001998D01*
X012400Y001998D02*
X012400Y002168D01*
X012456Y002224D01*
X012570Y002224D01*
X012570Y002111D02*
X012400Y002111D01*
X012400Y001998D02*
X012570Y001998D01*
X012627Y002054D01*
X012570Y002111D01*
X012754Y002054D02*
X012754Y001998D01*
X012811Y001998D01*
X012811Y002054D01*
X012754Y002054D01*
X012952Y002054D02*
X013009Y001998D01*
X013066Y002054D01*
X013122Y001998D01*
X013179Y002054D01*
X013179Y002224D01*
X013320Y002224D02*
X013320Y002054D01*
X013377Y001998D01*
X013434Y002054D01*
X013491Y001998D01*
X013547Y002054D01*
X013547Y002224D01*
X013689Y002224D02*
X013689Y002054D01*
X013745Y001998D01*
X013802Y002054D01*
X013859Y001998D01*
X013916Y002054D01*
X013916Y002224D01*
X013568Y002648D02*
X013454Y002648D01*
X013511Y002648D02*
X013511Y002988D01*
X013568Y002988D02*
X013454Y002988D01*
X013322Y002988D02*
X013322Y002648D01*
X013322Y002818D02*
X013265Y002874D01*
X013152Y002874D01*
X013095Y002818D01*
X013095Y002648D01*
X012954Y002648D02*
X012784Y002648D01*
X012727Y002704D01*
X012784Y002761D01*
X012897Y002761D01*
X012954Y002818D01*
X012897Y002874D01*
X012727Y002874D01*
X012529Y002874D02*
X012415Y002874D01*
X012359Y002818D01*
X012359Y002648D01*
X012529Y002648D01*
X012585Y002704D01*
X012529Y002761D01*
X012359Y002761D01*
X012217Y002648D02*
X012217Y002874D01*
X012047Y002874D01*
X011990Y002818D01*
X011990Y002648D01*
X011480Y002648D02*
X011480Y002988D01*
X011254Y002988D02*
X011480Y002761D01*
X011424Y002818D02*
X011254Y002648D01*
X011112Y002704D02*
X011112Y002818D01*
X011055Y002874D01*
X010942Y002874D01*
X010885Y002818D01*
X010885Y002761D01*
X011112Y002761D01*
X011112Y002704D02*
X011055Y002648D01*
X010942Y002648D01*
X010744Y002648D02*
X010744Y002988D01*
X010687Y002874D02*
X010574Y002874D01*
X010517Y002818D01*
X010517Y002648D01*
X010376Y002648D02*
X010376Y002874D01*
X010376Y002761D02*
X010262Y002874D01*
X010205Y002874D01*
X010069Y002874D02*
X010012Y002874D01*
X010012Y002648D01*
X010069Y002648D02*
X009955Y002648D01*
X009823Y002648D02*
X009653Y002648D01*
X009596Y002704D01*
X009596Y002818D01*
X009653Y002874D01*
X009823Y002874D01*
X009823Y002988D02*
X009823Y002648D01*
X009455Y002704D02*
X009398Y002761D01*
X009228Y002761D01*
X009228Y002818D02*
X009228Y002648D01*
X009398Y002648D01*
X009455Y002704D01*
X009285Y002874D02*
X009228Y002818D01*
X009285Y002874D02*
X009398Y002874D01*
X009086Y002874D02*
X009086Y002648D01*
X009086Y002761D02*
X008973Y002874D01*
X008916Y002874D01*
X010012Y002988D02*
X010012Y003045D01*
X010687Y002874D02*
X010744Y002818D01*
X010176Y002395D02*
X010176Y002338D01*
X012952Y002224D02*
X012952Y002054D01*
D12*
X011923Y004915D02*
X011775Y005036D01*
X011715Y005005D01*
X011630Y005209D01*
X011668Y005231D01*
X011700Y005260D01*
X011724Y005296D01*
X011739Y005337D01*
X011744Y005380D01*
X011739Y005424D01*
X011723Y005465D01*
X011698Y005502D01*
X011665Y005531D01*
X011626Y005552D01*
X011584Y005563D01*
X011539Y005563D01*
X011496Y005553D01*
X011457Y005533D01*
X011423Y005505D01*
X011398Y005469D01*
X011381Y005428D01*
X011375Y005384D01*
X011379Y005340D01*
X011394Y005298D01*
X011418Y005261D01*
X011450Y005231D01*
X011489Y005209D01*
X011404Y005005D01*
X011344Y005036D01*
X011196Y004915D01*
X011094Y005016D01*
X011215Y005165D01*
X011184Y005225D01*
X011164Y005289D01*
X010973Y005308D01*
X010973Y005452D01*
X011164Y005471D01*
X011184Y005535D01*
X011215Y005595D01*
X011094Y005744D01*
X011196Y005845D01*
X011344Y005724D01*
X011404Y005755D01*
X011468Y005776D01*
X011488Y005966D01*
X011631Y005966D01*
X011651Y005776D01*
X011715Y005755D01*
X011775Y005724D01*
X011923Y005845D01*
X012025Y005744D01*
X011904Y005595D01*
X011935Y005535D01*
X011955Y005471D01*
X012146Y005452D01*
X012146Y005308D01*
X011955Y005289D01*
X011935Y005225D01*
X011904Y005165D01*
X012025Y005016D01*
X011923Y004915D01*
X011966Y004957D02*
X011871Y004957D01*
X011800Y005015D02*
X012023Y005015D01*
X011979Y005072D02*
X011687Y005072D01*
X011711Y005015D02*
X011734Y005015D01*
X011663Y005130D02*
X011932Y005130D01*
X011915Y005187D02*
X011639Y005187D01*
X011683Y005245D02*
X011941Y005245D01*
X012091Y005302D02*
X011726Y005302D01*
X011742Y005360D02*
X012146Y005360D01*
X012146Y005418D02*
X011740Y005418D01*
X011716Y005475D02*
X011954Y005475D01*
X011936Y005533D02*
X011663Y005533D01*
X011456Y005533D02*
X011184Y005533D01*
X011165Y005475D02*
X011402Y005475D01*
X011380Y005418D02*
X010973Y005418D01*
X010973Y005360D02*
X011377Y005360D01*
X011393Y005302D02*
X011028Y005302D01*
X011178Y005245D02*
X011436Y005245D01*
X011480Y005187D02*
X011204Y005187D01*
X011187Y005130D02*
X011456Y005130D01*
X011432Y005072D02*
X011140Y005072D01*
X011096Y005015D02*
X011319Y005015D01*
X011385Y005015D02*
X011408Y005015D01*
X011248Y004957D02*
X011153Y004957D01*
X011213Y005590D02*
X011906Y005590D01*
X011947Y005648D02*
X011172Y005648D01*
X011125Y005705D02*
X011994Y005705D01*
X012006Y005763D02*
X011822Y005763D01*
X011893Y005820D02*
X011948Y005820D01*
X011691Y005763D02*
X011428Y005763D01*
X011473Y005820D02*
X011646Y005820D01*
X011640Y005878D02*
X011479Y005878D01*
X011484Y005936D02*
X011635Y005936D01*
X011297Y005763D02*
X011113Y005763D01*
X011171Y005820D02*
X011227Y005820D01*
M02*
